<?xml version="1.0" encoding="UTF-8"?>
<svg id="a" data-name="Layer 1" xmlns="http://www.w3.org/2000/svg" viewBox="0 0 512 469.33">
  <path d="m405.33,85.33h-64v-21.33c0-35.35-28.65-64-64-64h-42.67c-35.35,0-64,28.65-64,64v21.33h-64C47.79,85.4.07,133.12,0,192v170.67c.07,58.88,47.79,106.6,106.67,106.67h298.67c58.88-.07,106.6-47.79,106.67-106.67v-170.67c-.07-58.88-47.79-106.6-106.67-106.67Zm-192-21.33c0-11.78,9.55-21.33,21.33-21.33h42.67c11.78,0,21.33,9.55,21.33,21.33v21.33h-85.33v-21.33Zm256,298.67c0,35.35-28.65,64-64,64H106.67c-35.35,0-64-28.65-64-64v-170.67c0-35.35,28.65-64,64-64h298.67c35.35,0,64,28.65,64,64v170.67Zm-128-85.33c0,11.78-9.55,21.33-21.33,21.33h-42.67v42.67c0,11.78-9.55,21.33-21.33,21.33s-21.33-9.55-21.33-21.33v-42.67h-42.67c-11.78,0-21.33-9.55-21.33-21.33s9.55-21.33,21.33-21.33h42.67v-42.67c0-11.78,9.55-21.33,21.33-21.33s21.33,9.55,21.33,21.33v42.67h42.67c11.78,0,21.33,9.55,21.33,21.33Z"/>
</svg>