<?xml version="1.0" encoding="UTF-8"?>
<svg id="a" data-name="Layer 1" xmlns="http://www.w3.org/2000/svg" viewBox="0 0 512 512">
  <path d="m256,0C114.84,0,0,114.84,0,256s114.84,256,256,256h256v-256C512,114.84,397.16,0,256,0Zm213.33,469.33h-213.33c-117.63,0-213.33-95.7-213.33-213.33S138.37,42.67,256,42.67s213.33,95.7,213.33,213.33v213.33ZM170.67,170.67h64v106.67c0,47.06-38.27,85.33-85.33,85.33v-42.67c23.53,0,42.67-19.14,42.67-42.67h-64v-64c0-23.53,19.14-42.67,42.67-42.67Zm149.33,0h64v106.67c0,47.06-38.27,85.33-85.33,85.33v-42.67c23.53,0,42.67-19.14,42.67-42.67h-64v-64c0-23.53,19.14-42.67,42.67-42.67Z"/>
</svg>