<svg xmlns="http://www.w3.org/2000/svg" viewBox="0 0 512 512">
  <path d="m512,234.67c0-33.45-16.04-64.85-42.67-84.86v-.47c0-40.47-28.31-74.43-66.18-83.16C394.43,28.33,360.47,0,320,0c-25.47,0-48.34,11.22-64,28.95C240.34,11.2,217.47,0,192,0c-40.47,0-74.43,28.31-83.16,66.18-37.85,8.73-66.18,42.69-66.18,83.16v.47C16.04,169.81,0,201.22,0,234.67c0,18.9,5.01,37.06,14.63,53.33-9.6,16.28-14.63,34.43-14.63,53.33,0,35.97,18.3,69.21,48.36,88.87,15.32,48.62,59.99,81.79,111.64,81.79,39.64,0,74.75-19.75,96-49.94,21.25,30.19,56.36,49.94,96,49.94,51.67,0,96.32-33.19,111.66-81.79,30.04-19.65,48.34-52.91,48.34-88.87,0-18.9-5.01-37.06-14.63-53.33,9.6-16.28,14.63-34.43,14.63-53.33h0Zm-352,234.67c-34.86,0-64.7-23.79-72.55-57.86l-2.2-9.45-8.53-4.57c-21.01-11.24-34.07-32.75-34.07-56.13,0-14.4,4.99-28.2,14.46-39.94l10.84-13.4-10.84-13.4c-9.47-11.71-14.46-25.51-14.46-39.94,0-22.83,12.61-44.1,32.92-55.53l13.23-7.42s-3.48-19.84-3.48-22.38c0-23.53,19.14-42.67,42.67-42.67h21.33v-21.33c0-23.53,19.14-42.67,42.67-42.67s42.67,19.14,42.67,42.67v309.33c0,41.17-33.49,74.67-74.67,74.67h.02Zm294.87-167.94c9.47,11.71,14.46,25.51,14.46,39.94,0,23.38-13.06,44.89-34.05,56.13l-8.53,4.57-2.18,9.43c-7.87,34.07-37.72,57.86-72.58,57.86-41.17,0-74.67-33.49-74.67-74.67V85.33c0-23.53,19.14-42.67,42.67-42.67s42.67,19.14,42.67,42.67v21.33h21.33c23.53,0,42.67,19.14,42.67,42.67,0,2.56-3.48,22.38-3.48,22.38l13.23,7.42c20.31,11.41,32.92,32.68,32.92,55.53,0,14.4-4.99,28.2-14.46,39.94l-10.84,13.4,10.84,13.4h0Z"/>
</svg>