<?xml version="1.0" encoding="UTF-8"?>
<svg id="a" data-name="Outline" xmlns="http://www.w3.org/2000/svg" viewBox="0 0 512 512">
  <path d="m405.33,85.33h-23.47C371.66,35.7,328,.06,277.33,0h-42.67c-50.67.06-94.33,35.7-104.53,85.33h-23.47C47.79,85.4.07,133.12,0,192v213.33c.07,58.88,47.79,106.6,106.67,106.67h298.67c58.88-.07,106.6-47.79,106.67-106.67v-213.33c-.07-58.88-47.79-106.6-106.67-106.67Zm-170.67-42.67h42.67c27.02.11,51.07,17.19,60.07,42.67h-162.82c9.01-25.48,33.05-42.55,60.07-42.67Zm-128,85.33h298.67c35.35,0,64,28.65,64,64v64H42.67v-64c0-35.35,28.65-64,64-64Zm298.67,341.33H106.67c-35.35,0-64-28.65-64-64v-106.67h192v21.33c0,11.78,9.55,21.33,21.33,21.33s21.33-9.55,21.33-21.33v-21.33h192v106.67c0,35.35-28.65,64-64,64Z"/>
</svg>