<?xml version="1.0" encoding="UTF-8"?>
<svg id="a" data-name="Outline" xmlns="http://www.w3.org/2000/svg" viewBox="0 0 512 384">
  <circle cx="117.33" cy="266.67" r="32"/>
  <path d="m405.33,0H106.67C47.79.07.07,47.79,0,106.67v170.67c.07,58.88,47.79,106.6,106.67,106.67h298.67c58.88-.07,106.6-47.79,106.67-106.67V106.67c-.07-58.88-47.79-106.6-106.67-106.67ZM106.67,42.67h298.67c35.35,0,64,28.65,64,64H42.67c0-35.35,28.65-64,64-64Zm298.67,298.67H106.67c-35.35,0-64-28.65-64-64v-128h426.67v128c0,35.35-28.65,64-64,64Z"/>
</svg>