<?xml version="1.0" encoding="UTF-8"?>
<svg id="a" data-name="Layer 1" xmlns="http://www.w3.org/2000/svg" viewBox="0 0 512 512">
  <path d="m256,0C114.62,0,0,114.62,0,256s114.62,256,256,256,256-114.62,256-256C511.85,114.68,397.32.15,256,0Zm204.22,194.56l-190.04,36.95c-2.99-4.62-5.62-9.46-7.85-14.49L191.08,52.76c112.05-35.92,232,25.81,267.92,137.86.42,1.31.83,2.63,1.22,3.94Zm-204.22,274.77c-117.76.04-213.26-95.39-213.31-213.15-.03-77.3,41.79-148.57,109.28-186.25l71.21,164.07c10.13,23.32,26.04,43.67,46.23,59.14l141.93,108.63c-40.19,43.07-96.44,67.54-155.35,67.56Zm181.33-101.44l-130.67-100.01,161.73-31.42c.58,6.4.98,12.95.98,19.54-.02,39.56-11.12,78.32-32.04,111.89h0Z"/>
</svg>