<?xml version="1.0" encoding="UTF-8"?>
<svg id="a" data-name="Layer 1" xmlns="http://www.w3.org/2000/svg" viewBox="0 0 384 512">
  <path d="m352.75,66.6l-35.33-35.37C297.45,11.17,270.29-.08,241.98,0H106.67C47.79.07.07,47.79,0,106.67v298.67c.07,58.88,47.79,106.6,106.67,106.67h170.67c58.88-.07,106.6-47.79,106.67-106.67V142.02c.07-28.3-11.18-55.46-31.25-75.41h0Zm-30.17,30.17c3.03,3.01,5.74,6.33,8.09,9.9h-53.33v-53.33c3.56,2.37,6.88,5.09,9.92,8.11l35.33,35.33Zm18.75,308.57c0,35.35-28.65,64-64,64H106.67c-35.35,0-64-28.65-64-64V106.67c0-35.35,28.65-64,64-64h128v64c0,23.56,19.1,42.67,42.67,42.67h64v256Zm-64-213.33c11.78,0,21.33,9.55,21.33,21.33s-9.55,21.33-21.33,21.33H106.67c-11.78,0-21.33-9.55-21.33-21.33s9.55-21.33,21.33-21.33h170.67Zm21.33,106.67c0,11.78-9.55,21.33-21.33,21.33H106.67c-11.78,0-21.33-9.55-21.33-21.33s9.55-21.33,21.33-21.33h170.67c11.78,0,21.33,9.55,21.33,21.33Zm-4.1,72.81c6.9,9.5,4.83,22.79-4.63,29.74-21.61,15.4-47.21,24.24-73.73,25.45-15.49-.07-30.51-5.33-42.67-14.93-7-4.8-9.66-6.4-14.93-6.4-14.26,2.21-27.72,8.04-39.08,16.94-9.59,6.84-22.92,4.61-29.75-4.99-6.52-9.14-4.83-21.78,3.86-28.89,18.8-14.59,41.37-23.52,65.07-25.73,14.21.23,27.95,5.14,39.08,13.97,5.07,4.56,11.61,7.17,18.43,7.36,17.44-1.31,34.22-7.27,48.58-17.26,9.53-6.91,22.86-4.79,29.78,4.74h0Z"/>
</svg>