<?xml version="1.0" encoding="UTF-8"?>
<svg id="a" data-name="Layer 1" xmlns="http://www.w3.org/2000/svg" viewBox="0 0 512.02 448.09">
  <path d="m490.69,277.35h-14.23c-5.33,0-10.62.41-15.89,1.22l-150.31-112.73,36.01-34.47c8.51-8.15,8.81-21.67.66-30.17-8.17-8.51-21.7-8.79-30.17-.66l-89.02,85.23c-4.44,4.44-10.47,6.72-16.81,6.19-6.36-.51-11.95-3.73-15.77-9.07-5.85-8.11-4.05-20.8,3.58-28.46l100.33-94.49c19.01-17.86,48.73-22.23,71.98-10.56l49.41,24.7c14.72,7.36,31.23,11.24,47.68,11.24h22.53c11.8,0,21.33-9.54,21.33-21.33s-9.54-21.33-21.33-21.33h-22.53c-9.88,0-19.8-2.33-28.63-6.74l-49.37-24.7c-38.91-19.48-88.6-12.25-120.34,17.66l-13.18,12.42-14.93-13.61C222.08,9.83,196.69,0,169.37,0c-16.45,0-32.85,3.88-47.51,11.2l-49.37,24.7c-8.85,4.42-18.77,6.74-28.65,6.74h-22.49C9.56,42.65.02,52.18.02,63.98s9.54,21.33,21.33,21.33h22.53c16.45,0,32.96-3.9,47.7-11.24l49.41-24.7c21.8-10.97,52.44-8,71.98,9.86l12.52,11.41-56.45,53.16c-22.89,22.87-26.54,59.03-8.49,84.01,11.09,15.42,33.13,26.86,52.14,26.86,16.92,0,33.15-6.66,44.89-18.41l21.46-20.54,135.38,101.53c-.66.47-132.22,99.11-132.22,99.11-15.42,11.99-36.95,11.99-52.69-.23l-129.94-97.45c-18.33-13.76-41.07-21.33-64-21.33h-14.23c-11.8,0-21.33,9.54-21.33,21.33s9.54,21.33,21.33,21.33h14.23c13.76,0,27.39,4.54,38.4,12.8l129.64,97.24c15.47,12.03,34.01,18.05,52.5,18.05s36.76-5.95,51.99-17.81l129.98-97.45c10.99-8.26,24.62-12.8,38.38-12.8h14.23c11.8,0,21.33-9.54,21.33-21.33s-9.54-21.33-21.33-21.33h0Z"/>
</svg>