<svg xmlns="http://www.w3.org/2000/svg" viewBox="0 0 511.91 512">
  <path d="m191.25,512h-105.92c-47.13,0-85.33-38.21-85.33-85.33v-106.67c0-47.13,38.21-85.33,85.33-85.33h188.95c23.48.01,45.25,12.3,57.39,32.41l68.63-75.41c23.86-26.24,64.47-28.17,90.71-4.31.01.01.03.03.04.04,25.89,23.79,27.95,63.93,4.63,90.24l-145.07,162.92c-40.51,45.44-98.49,71.43-159.36,71.45Zm-105.92-234.67c-23.56,0-42.67,19.1-42.67,42.67v106.67c0,23.56,19.1,42.67,42.67,42.67h105.92c48.67-.02,95.02-20.8,127.4-57.13l145.17-162.94c7.84-8.83,7.16-22.32-1.54-30.31-4.25-3.82-9.82-5.83-15.53-5.61-5.72.24-11.1,2.77-14.93,7.02l-94.42,103.91c-8.45,23.38-29.08,40.2-53.67,43.78l-110.1,15.74c-11.66,1.67-22.48-6.43-24.15-18.09-1.67-11.66,6.43-22.48,18.09-24.15l110.12-15.72c13.33-1.86,22.62-14.18,20.76-27.5-1.68-12.05-12-21.01-24.17-20.99H85.33Zm149.33-83.75c-9.67.03-19.06-3.26-26.6-9.3-36.52-29.31-80.06-73.34-80.06-116.01C126.91,31.78,155.51,1.26,192,0c15.94.06,31.24,6.31,42.67,17.43C246.09,6.31,261.39.06,277.33,0c36.49,1.26,65.09,31.78,64,68.27,0,42.67-43.54,86.7-80.09,116.03-7.54,6.03-16.92,9.31-26.58,9.28h0Zm-42.67-150.91c-12.9,1.29-22.39,12.68-21.33,25.6,0,19.2,24.55,50.99,64.13,82.75,39.32-31.77,63.87-63.55,63.87-82.75,1.05-12.92-8.43-24.31-21.33-25.6-12.9,1.29-22.39,12.68-21.33,25.6,0,11.78-9.55,21.33-21.33,21.33s-21.33-9.55-21.33-21.33c1.05-12.92-8.43-24.31-21.33-25.6Z"/>
</svg>