<?xml version="1.0" encoding="UTF-8"?>
<svg id="a" data-name="Layer 1" xmlns="http://www.w3.org/2000/svg" viewBox="0 0 512.12 512">
  <path d="m362.67,0c-11.78,0-21.33,9.55-21.33,21.33,0,62.91-55.1,85.33-106.67,85.33H85.33C38.21,106.67,0,144.87,0,192v42.67c.09,25.88,11.99,50.3,32.3,66.33l76.2,170.07c11.07,24.89,35.76,40.93,63,40.94,35.13-.02,63.6-28.52,63.58-63.66,0-8.94-1.9-17.78-5.55-25.94l-46.93-102.4h52.07c51.56,0,106.67,22.42,106.67,85.33,0,11.78,9.55,21.33,21.33,21.33s21.33-9.55,21.33-21.33V21.33C384,9.55,374.45,0,362.67,0h0Zm-172.01,439.87c4.69,10.59-.09,22.98-10.68,27.67-2.67,1.18-5.55,1.79-8.47,1.8-10.4,0-19.82-6.15-24.02-15.66l-59.9-133.67h48.09l55,119.87Zm150.68-128.41c-30.48-23.48-68.22-35.56-106.67-34.13H85.33c-23.56,0-42.67-19.1-42.67-42.67v-42.67c0-23.56,19.1-42.67,42.67-42.67h149.33c38.44,1.46,76.17-10.58,106.67-34.03v196.16Zm168.53,18.18c-5.26,10.54-18.07,14.83-28.61,9.57,0,0-.01,0-.02,0l-42.67-21.33c-10.54-5.27-14.82-18.08-9.56-28.63,5.27-10.54,18.08-14.82,28.63-9.56l42.67,21.33c10.49,5.26,14.76,18,9.56,28.52v.11Zm-80.85-192c-5.27-10.54-1-23.35,9.54-28.62,0,0,.01,0,.02,0l42.67-21.33c10.54-5.27,23.36-.99,28.63,9.56,5.27,10.54.99,23.36-9.56,28.63h0l-42.67,21.33c-10.54,5.27-23.35,1-28.62-9.54,0,0,0-.01,0-.02Zm-2.35,75.69c0-11.78,9.55-21.33,21.33-21.33h42.67c11.78,0,21.33,9.55,21.33,21.33s-9.55,21.33-21.33,21.33h-42.67c-11.78,0-21.33-9.55-21.33-21.33Z"/>
</svg>