<svg xmlns="http://www.w3.org/2000/svg" viewBox="0 0 512 469.33">
  <path d="m405.33,0H106.67C47.79.07.07,47.79,0,106.67v256c.07,58.88,47.79,106.6,106.67,106.67h298.67c58.88-.07,106.6-47.79,106.67-106.67V106.67c-.07-58.88-47.79-106.6-106.67-106.67ZM106.67,42.67h298.67c26.13.05,49.61,15.99,59.31,40.26l-163.37,163.39c-25.03,24.93-65.51,24.93-90.54,0L47.36,82.92c9.7-24.27,33.17-40.2,59.31-40.26Zm298.67,384H106.67c-35.35,0-64-28.65-64-64v-224l137.9,137.81c41.69,41.59,109.18,41.59,150.87,0l137.9-137.81v224c0,35.35-28.65,64-64,64Z"/>
</svg>