<?xml version="1.0" encoding="UTF-8"?>
<svg id="a" data-name="Layer 1" xmlns="http://www.w3.org/2000/svg" viewBox="0 0 426.67 511.98">
  <path d="m382.93,118.08l-74.35-74.35C280.38,15.53,242.88,0,202.99,0h-96.32C47.85-.02,0,47.83,0,106.65v298.67c0,58.82,47.85,106.67,106.67,106.67h213.33c58.82,0,106.67-47.85,106.67-106.67v-181.65c0-39.89-15.53-77.38-43.73-105.6v.02Zm-30.17,30.17c6.78,6.78,12.52,14.31,17.17,22.4h-92.61c-11.75,0-21.33-9.58-21.33-21.33V56.7c8.09,4.65,15.64,10.39,22.4,17.17l74.35,74.35.02.02Zm31.23,257.07c0,35.29-28.71,64-64,64H106.67c-35.29,0-64-28.71-64-64V106.65c0-35.29,28.71-64,64-64h96.32c3.48,0,6.93.17,10.35.49v106.18c0,35.29,28.71,64,64,64h106.18c.32,3.41.49,6.87.49,10.35v181.65h0Zm-96-128h-149.33c-29.4,0-53.33,23.94-53.33,53.33v42.67c0,29.4,23.94,53.33,53.33,53.33h149.33c29.4,0,53.33-23.94,53.33-53.33v-42.67c0-29.4-23.94-53.33-53.33-53.33Zm10.67,96c0,5.89-4.78,10.67-10.67,10.67h-149.33c-5.89,0-10.67-4.78-10.67-10.67v-42.67c0-5.89,4.78-10.67,10.67-10.67h149.33c5.89,0,10.67,4.78,10.67,10.67v42.67ZM85.33,213.31c0-11.78,9.56-21.33,21.33-21.33h42.67c11.78,0,21.33,9.56,21.33,21.33s-9.56,21.33-21.33,21.33h-42.67c-11.78,0-21.33-9.56-21.33-21.33Zm0-85.33c0-11.78,9.56-21.33,21.33-21.33h42.67c11.78,0,21.33,9.56,21.33,21.33s-9.56,21.33-21.33,21.33h-42.67c-11.78,0-21.33-9.56-21.33-21.33Z"/>
</svg>