<?xml version="1.0" encoding="UTF-8"?>
<svg id="a" data-name="Bold" xmlns="http://www.w3.org/2000/svg" viewBox="0 0 319.95 512">
  <path d="m4.71,274.79c-13.08,25.71,1.77,37.99,35.65,58.99,28.8,17.79,68.59,24.3,94.14,26.9-10.47,10.07,37.53-36.1-100.71,96.87-29.31,28.1,17.88,73.17,47.17,45.67l79.3-76.48c30.36,29.21,59.46,57.19,79.3,76.59,29.31,27.61,76.48-17.09,47.49-45.67-2.18-2.07-107.46-103.06-101.03-96.87,25.88-2.6,65.07-9.49,93.53-26.9l-.02-.02c33.88-21.1,48.73-33.37,35.84-59.07-7.79-14.59-28.78-26.79-56.73-5.7,0,0-37.74,28.91-98.6,28.91s-98.6-28.91-98.6-28.91c-27.93-21.21-49-8.9-56.7,5.7h0Z"/>
  <path d="m159.98,259.03c74.2,0,134.78-57.98,134.78-129.37S234.18,0,159.98,0,25.17,57.98,25.17,129.66s60.59,129.37,134.81,129.37Zm0-193.34c36.46,0,66.2,28.61,66.2,63.98s-29.74,63.68-66.2,63.68-66.2-28.61-66.2-63.68c-.02-35.39,29.72-63.98,66.2-63.98h0Z"/>
</svg>