<?xml version="1.0" encoding="UTF-8"?>
<svg id="a" data-name="Outline" xmlns="http://www.w3.org/2000/svg" viewBox="0 0 512 469.33">
  <path d="m405.33,0H106.67C47.79.07.07,47.79,0,106.67v170.67c.07,58.88,47.79,106.6,106.67,106.67h128v42.67h-85.33c-11.78,0-21.33,9.55-21.33,21.33s9.55,21.33,21.33,21.33h213.33c11.78,0,21.33-9.55,21.33-21.33s-9.55-21.33-21.33-21.33h-85.33v-42.67h128c58.88-.07,106.6-47.79,106.67-106.67V106.67c-.07-58.88-47.79-106.6-106.67-106.67ZM106.67,42.67h298.67c35.35,0,64,28.65,64,64v149.33H42.67V106.67c0-35.35,28.65-64,64-64Zm298.67,298.67H106.67c-27.02-.11-51.07-17.19-60.07-42.67h418.82c-9.01,25.48-33.05,42.55-60.07,42.67Z"/>
</svg>