<?xml version="1.0" encoding="UTF-8"?>
<svg id="a" data-name="Layer 1" xmlns="http://www.w3.org/2000/svg" viewBox="0 0 512 512">
  <path d="m512,192c.15-35.35-28.39-64.12-63.73-64.26-35.35-.15-64.12,28.39-64.26,63.73-.11,27.22,17,51.53,42.67,60.6v89.26c0,70.69-57.31,128-128,128s-128-57.31-128-128v-1.71c73.38-10.65,127.86-73.48,128-147.63v-85.33C298.6,47.79,250.88.07,192,0c-11.78,0-21.33,9.55-21.33,21.33s9.55,21.33,21.33,21.33c35.35,0,64,28.65,64,64v85.33c0,58.91-47.76,106.67-106.67,106.67s-106.67-47.76-106.67-106.67v-85.33c0-35.35,28.65-64,64-64,11.78,0,21.33-9.55,21.33-21.33S118.45,0,106.67,0C47.79.07.07,47.79,0,106.67v85.33c.14,74.15,54.62,136.98,128,147.63v1.71c0,94.26,76.41,170.67,170.67,170.67s170.67-76.41,170.67-170.67v-89.26c25.48-9.01,42.55-33.05,42.67-60.07Zm-64,21.33c-11.78,0-21.33-9.55-21.33-21.33s9.55-21.33,21.33-21.33,21.33,9.55,21.33,21.33-9.55,21.33-21.33,21.33Z"/>
</svg>