<?xml version="1.0" encoding="UTF-8"?>
<svg id="a" data-name="Layer 1" xmlns="http://www.w3.org/2000/svg" viewBox="0 0 511.12 511.16">
  <path d="m491.82,357.13c25.74,25.81,25.74,67.59,0,93.4l-19.41,22.38C297.68,640.18-127.49,215.12,37.2,39.84l24.53-21.33c25.83-25.01,66.95-24.63,92.31.85.66.66,40.19,52.01,40.19,52.01,24.37,25.6,24.3,65.83-.15,91.35l-24.7,31.06c27.61,67.09,80.83,120.41,147.86,148.16l31.25-24.85c25.52-24.43,65.74-24.49,91.33-.13,0,0,51.33,39.51,51.99,40.17Zm-29.35,31.02s-51.05-39.27-51.71-39.94c-9.15-9.07-23.9-9.07-33.05,0-.58.6-43.61,34.88-43.61,34.88-5.9,4.7-13.84,5.93-20.89,3.24-87-32.39-155.66-100.95-188.18-187.9-2.9-7.15-1.72-15.3,3.09-21.33,0,0,34.28-43.05,34.86-43.61,9.07-9.15,9.07-23.9,0-33.05-.66-.64-39.94-51.73-39.94-51.73-9.26-8.3-23.39-7.94-32.21.83l-24.53,21.33c-120.36,144.73,248.09,492.74,374.91,372.89l19.43-22.4c9.47-8.77,10.27-23.47,1.81-33.22h0Z"/>
</svg>