<?xml version="1.0" encoding="UTF-8"?>
<svg id="a" data-name="Layer 1" xmlns="http://www.w3.org/2000/svg" viewBox="0 0 341.33 512">
  <path d="m234.67,512H106.67c-58.82,0-106.67-47.85-106.67-106.67V106.67C0,47.85,47.85,0,106.67,0h128c58.82,0,106.67,47.85,106.67,106.67v298.67c0,58.82-47.85,106.67-106.67,106.67ZM106.67,42.67c-35.29,0-64,28.71-64,64v298.67c0,35.29,28.71,64,64,64h128c35.29,0,64-28.71,64-64V106.67c0-35.29-28.71-64-64-64H106.67Zm106.67,362.67h0c0-11.78-9.56-21.33-21.33-21.33h-42.67c-11.78,0-21.33,9.56-21.33,21.33h0c0,11.78,9.56,21.33,21.33,21.33h42.67c11.78,0,21.33-9.56,21.33-21.33Z"/>
</svg>