<?xml version="1.0" encoding="UTF-8"?>
<svg id="a" data-name="Layer 1" xmlns="http://www.w3.org/2000/svg" viewBox="0 0 512 512.02">
  <path d="m192,234.68c-11.78,0-21.33-9.54-21.33-21.33,0-27.9,22.14-40.09,31.59-45.29,6.19-3.39,12.69-11.41,10.71-22.74-1.47-8.36-8.58-15.47-16.92-16.92-6.53-1.19-12.84.47-17.75,4.61-4.86,4.05-7.64,10.03-7.64,16.36,0,11.8-9.56,21.33-21.33,21.33s-21.33-9.54-21.33-21.33c0-18.97,8.34-36.84,22.87-49.05,14.53-12.2,33.64-17.37,52.54-13.93,25.79,4.5,47.02,25.71,51.56,51.56,4.76,27.14-8.15,54.25-32.13,67.5-9.54,5.25-9.54,6.78-9.54,7.91,0,11.8-9.56,21.33-21.33,21.33l.02-.02Zm0,21.33c-14.72,0-26.67,11.95-26.67,26.67s11.95,26.67,26.67,26.67,26.67-11.95,26.67-26.67-11.95-26.67-26.67-26.67Zm234.58-62.29c-.13,16.41-1.94,32.38-5.29,47.83,29.25,23.49,48.04,59.46,48.04,99.8v106.67c0,11.78-9.56,21.33-21.33,21.33h-106.67c-40.34,0-76.31-18.79-99.8-48.04-15.45,3.33-31.42,5.16-47.83,5.29,29.55,50.97,84.59,85.42,147.63,85.42h106.67c35.35,0,64-28.65,64-64v-106.67c0-63.04-34.45-118.08-85.42-147.63h0Zm-43.07,12.18c3.95-55.74-16.38-110.29-55.74-149.67S233.9-3.55,178.11.51C81.56,7.33,0,97.92,0,198.33v107.48c0,43.11,35.03,78.21,78.1,78.21h95.51c110.66,0,202.86-78.23,209.9-178.11Zm-85.91-119.49c30.63,30.61,46.42,73.07,43.37,116.48-5.4,76.33-80.47,138.43-167.36,138.43h-95.51c-19.54,0-35.43-15.94-35.43-35.54v-107.48c0-78.85,63.4-149.95,138.45-155.26,3.56-.26,7.1-.38,10.65-.38,39.64,0,77.74,15.62,105.83,43.75h0Z"/>
</svg>