<?xml version="1.0" encoding="UTF-8"?>
<svg id="a" data-name="Outline" xmlns="http://www.w3.org/2000/svg" viewBox="0 0 512.43 512.43">
  <path d="m506.44,476.27l-127.34-127.34c74.7-91.36,61.19-225.97-30.17-300.67C257.58-26.44,122.96-12.93,48.26,78.43c-74.7,91.36-61.19,225.97,30.17,300.67,78.69,64.34,191.82,64.34,270.51,0l127.34,127.34c8.47,8.18,21.98,7.95,30.17-.52,7.98-8.27,7.98-21.37,0-29.64Zm-292.42-91.58c-94.26,0-170.67-76.41-170.67-170.67S119.77,43.36,214.02,43.36s170.67,76.41,170.67,170.67c-.11,94.21-76.45,170.56-170.67,170.67Z"/>
</svg>