<?xml version="1.0" encoding="UTF-8"?>
<svg id="a" data-name="Layer 1" xmlns="http://www.w3.org/2000/svg" viewBox="0 0 409.6 333.31">
  <path id="b" data-name="04.Twitter" d="m409.6,39.42c-15.36,6.66-31.23,11.26-48.13,13.31,17.41-10.24,30.72-26.62,36.86-46.59-16.38,9.73-34.3,16.38-53.25,20.48-15.36-16.38-37.38-26.62-61.44-26.62-46.59,0-83.97,37.89-83.97,83.97,0,6.66.51,12.8,2.05,18.94-69.63-3.07-131.07-36.86-172.54-87.55-29.7,53.25,3.58,97.28,25.6,112.13-13.31,0-26.62-4.1-37.89-10.24,0,41.47,29.18,75.78,67.07,83.46-8.19,2.56-26.62,4.1-37.89,1.54,10.75,33.28,41.98,57.86,78.34,58.37-28.67,22.53-70.66,40.45-124.42,34.82,37.38,24.06,81.41,37.89,129.02,37.89,154.62,0,238.59-128,238.59-238.59,0-3.58,0-7.17-.51-10.75,17.41-12.8,31.74-27.65,42.5-44.54h0Z"/>
</svg>