<?xml version="1.0" encoding="UTF-8"?>
<svg id="a" data-name="Layer 1" xmlns="http://www.w3.org/2000/svg" viewBox="0 0 512 512">
  <path d="m405.33,512H106.67c-58.88-.07-106.6-47.79-106.67-106.67V106.67C.07,47.79,47.79.07,106.67,0h298.67c58.88.07,106.6,47.79,106.67,106.67v298.67c-.07,58.88-47.79,106.6-106.67,106.67ZM106.67,42.67c-35.35,0-64,28.65-64,64v298.67c0,35.35,28.65,64,64,64h298.67c35.35,0,64-28.65,64-64V106.67c0-35.35-28.65-64-64-64H106.67Zm92.63,320.11c-8.89-.03-17.62-2.41-25.3-6.89-15.45-8.84-24.94-25.32-24.83-43.11v-113.54c-.02-27.53,22.28-49.87,49.81-49.9,8.72,0,17.29,2.27,24.85,6.61l112.6,56.21c24.22,13.07,33.25,43.31,20.18,67.53-4.42,8.19-11.05,14.98-19.13,19.6l-114.69,57.32c-7.15,4.08-15.25,6.21-23.49,6.17h0Zm-.53-170.67c-1.18,0-2.33.31-3.35.9-2.25,1.25-3.63,3.65-3.58,6.23v113.54c.02,3.97,3.26,7.17,7.23,7.15,1.2,0,2.38-.32,3.44-.9l114.69-57.34c1.73-1.36,2.69-3.48,2.56-5.67.05-2.59-1.34-4.99-3.61-6.23l-112.51-56.21c-1.47-.9-3.14-1.4-4.86-1.45h0Z"/>
</svg>