<svg  xmlns="http://www.w3.org/2000/svg" viewBox="0 0 532.34 303.73">
  <path d="m472,126.98c7.57-9.79,13.58-17.64,18.02-23.56,31.97-42.5,45.82-69.65,41.57-81.48l-1.67-2.77c-1.11-1.66-3.98-3.19-8.59-4.58-4.62-1.38-10.53-1.6-17.74-.69l-79.82.56c-1.85-.18-3.7-.14-5.55.13-1.85.28-3.05.56-3.61.83-.56.28-1.02.51-1.38.69l-1.11.83c-.92.55-1.94,1.52-3.05,2.91-1.11,1.39-2.04,3-2.77,4.85-8.68,22.36-18.57,43.15-29.66,62.36-6.84,11.46-13.12,21.4-18.84,29.79-5.73,8.41-10.53,14.6-14.41,18.57-3.88,3.97-7.39,7.17-10.53,9.56-3.15,2.41-5.55,3.42-7.2,3.05-1.67-.37-3.24-.73-4.71-1.11-2.59-1.66-4.67-3.92-6.24-6.79-1.57-2.86-2.63-6.46-3.19-10.81-.55-4.34-.88-8.08-.97-11.23-.1-3.14-.05-7.57.14-13.31.18-5.73.27-9.6.27-11.64,0-7.01.14-14.64.42-22.86.27-8.22.51-14.74.69-19.54.18-4.8.27-9.88.27-15.24s-.32-9.56-.98-12.61c-.65-3.04-1.62-6-2.91-8.87-1.3-2.86-3.19-5.08-5.69-6.65-2.5-1.57-5.59-2.82-9.28-3.75-9.8-2.22-22.27-3.41-37.42-3.6-34.37-.36-56.45,1.86-66.24,6.66-3.88,2.04-7.39,4.8-10.53,8.32-3.33,4.07-3.79,6.29-1.38,6.65,11.09,1.66,18.94,5.64,23.56,11.92l1.66,3.32c1.29,2.41,2.58,6.66,3.88,12.75,1.29,6.1,2.12,12.84,2.5,20.23.92,13.49.92,25.03,0,34.65-.92,9.61-1.8,17.09-2.63,22.44-.83,5.36-2.08,9.7-3.74,13.02-1.66,3.33-2.77,5.37-3.33,6.11-.56.73-1.02,1.2-1.38,1.38-2.4.92-4.9,1.38-7.48,1.38s-5.73-1.3-9.43-3.89c-3.7-2.58-7.53-6.14-11.5-10.67-3.98-4.52-8.45-10.86-13.45-18.99-4.99-8.12-10.17-17.74-15.52-28.82l-4.43-8.04c-2.77-5.16-6.56-12.7-11.36-22.58s-9.06-19.44-12.75-28.69c-1.48-3.87-3.7-6.83-6.65-8.87l-1.38-.83c-.92-.74-2.4-1.52-4.44-2.35-2.04-.83-4.15-1.43-6.38-1.81l-75.94.55c-7.76,0-13.02,1.76-15.8,5.27l-1.11,1.66c-.56.93-.83,2.41-.83,4.44s.56,4.53,1.66,7.48c11.09,26.06,23.15,51.19,36.17,75.39,13.03,24.21,24.35,43.71,33.95,58.49,9.61,14.79,19.4,28.73,29.38,41.85s16.58,21.52,19.82,25.21c3.23,3.7,5.77,6.48,7.62,8.32l6.93,6.66c4.43,4.43,10.95,9.74,19.54,15.94,8.59,6.19,18.1,12.29,28.55,18.29,10.43,6.01,22.59,10.9,36.44,14.69,13.86,3.79,27.34,5.32,40.47,4.57h31.87c6.47-.55,11.36-2.58,14.69-6.1l1.11-1.38c.73-1.1,1.43-2.82,2.08-5.12.64-2.31.98-4.85.98-7.62-.19-7.94.42-15.12,1.8-21.48,1.38-6.38,2.95-11.17,4.71-14.42,1.76-3.23,3.74-5.95,5.96-8.18,2.22-2.22,3.78-3.55,4.71-4.02.92-.45,1.67-.78,2.22-.97,4.43-1.48,9.65-.04,15.66,4.3,6,4.35,11.64,9.7,16.91,16.08,5.26,6.38,11.59,13.53,18.98,21.48,7.39,7.94,13.86,13.86,19.4,17.74l5.55,3.34c3.7,2.21,8.49,4.24,14.41,6.1,5.91,1.84,11.09,2.31,15.52,1.38l70.95-1.11c7.02,0,12.47-1.15,16.35-3.46,3.88-2.3,6.19-4.85,6.93-7.62.73-2.77.78-5.9.14-9.42-.65-3.51-1.3-5.95-1.94-7.34-.65-1.38-1.25-2.55-1.81-3.46-9.24-16.63-26.89-37.05-52.94-61.26l-.56-.55-.27-.28-.27-.27h-.28c-11.83-11.27-19.31-18.85-22.45-22.74-5.73-7.38-7.02-14.86-3.88-22.44,2.2-5.74,10.51-17.85,24.93-36.33Z"/>
</svg>