<?xml version="1.0" encoding="UTF-8"?>
<svg id="a" data-name="Layer 1" xmlns="http://www.w3.org/2000/svg" viewBox="0 0 511.97 511.64">
  <path d="m505.69,230.17c-8.34-8.34-21.82-8.34-30.17,0l-11.71,11.71L270.06,48.13l11.71-11.71c8.34-8.34,8.34-21.82,0-30.17s-21.82-8.34-30.17,0L102.28,155.59c-8.34,8.34-8.34,21.82,0,30.17,4.16,4.16,9.62,6.25,15.08,6.25s10.92-2.09,15.08-6.25l12.39-12.39,81.64,81.64L6.26,475.23c-8.34,8.34-8.34,21.82,0,30.17,4.16,4.16,9.62,6.25,15.08,6.25s10.92-2.09,15.08-6.25l220.22-220.22,81.94,81.94-12.37,12.37c-8.34,8.34-8.34,21.82,0,30.17,4.16,4.16,9.62,6.25,15.08,6.25s10.92-2.09,15.08-6.25l149.33-149.33c8.34-8.34,8.34-21.82,0-30.17l-.02.02Zm-193.88,49.86l-78.34-78.34,64.9-64.9,78.34,78.34-64.9,64.9h0Zm-71.91-201.73l28.31,28.31-64.9,64.9-28.31-28.31,64.9-64.9h0Zm102.1,231.89c18.11-18.11,48.09-48.09,64.9-64.9l26.75,26.75-64.9,64.9-26.75-26.75Z"/>
</svg>