<?xml version="1.0" encoding="UTF-8"?>
<svg id="a" data-name="Capa 1" xmlns="http://www.w3.org/2000/svg" viewBox="0 0 382.93 512">
  <defs>
    <style>
      .c-doc, .d-doc {
        fill: #fff;
      }

      .d-doc {
        fill-rule: evenodd;
        isolation: isolate;
        opacity: .3;
      }

      .e-doc {
        fill: #0263d1;
      }
    </style>
  </defs>
  <g id="b" data-name="Vrstva_1">
    <path class="e-doc" d="m66.61,0h171.31l145.01,151.29v294.1c0,36.79-29.82,66.61-66.61,66.61H66.61c-36.79,0-66.61-29.82-66.61-66.61V66.61C0,29.82,29.82,0,66.61,0Z"/>
    <g>
      <path class="d-doc" d="m237.71,0v150.05h145.22L237.71,0Z"/>
      <path class="c-doc" d="m61.84,365.33v-84.76h30.02c6,0,11.6.9,16.77,2.55,5.18,1.73,9.87,4.21,14.08,7.52,4.21,3.31,7.52,7.73,9.94,13.25s3.66,11.87,3.66,19.05-1.24,13.53-3.66,19.05-5.73,9.94-9.94,13.25-8.9,5.8-14.08,7.52c-5.18,1.66-10.77,2.55-16.77,2.55h-30.02Zm21.19-18.43h6.28c3.38,0,6.56-.41,9.39-1.17,2.9-.83,5.52-2.14,8.01-3.87s4.42-4.21,5.8-7.45c1.45-3.18,2.14-7.04,2.14-11.46s-.69-8.28-2.14-11.53c-1.38-3.18-3.31-5.66-5.8-7.39-2.48-1.79-5.11-3.04-8.01-3.87-2.83-.76-6-1.17-9.39-1.17h-6.28v47.9Zm104.71,19.4c-12.77,0-23.33-4.14-31.68-12.35-8.35-8.21-12.49-18.57-12.49-30.99s4.14-22.78,12.49-30.99c8.35-8.21,18.91-12.35,31.68-12.35s22.98,4.14,31.34,12.35c8.28,8.21,12.42,18.57,12.42,30.99s-4.14,22.78-12.42,30.99c-8.35,8.21-18.77,12.35-31.34,12.35Zm-16.29-25.47c4.21,4.69,9.59,7.04,16.15,7.04s11.87-2.35,16.08-7.04c4.21-4.76,6.28-10.7,6.28-17.88s-2.07-13.11-6.28-17.88c-4.21-4.69-9.53-7.04-16.08-7.04s-11.94,2.35-16.15,7.04c-4.21,4.76-6.35,10.7-6.35,17.88s2.14,13.11,6.35,17.88Zm110.43,25.47c-12.35,0-22.64-3.87-30.78-11.46-8.21-7.66-12.29-18.29-12.29-31.89s4.14-24.16,12.42-31.82c8.35-7.66,18.5-11.53,30.65-11.53,10.97,0,19.95,2.69,27.06,8.14,7.04,5.38,11.11,12.56,12.15,21.53l-21.4,4.35c-.9-4.69-3.04-8.49-6.35-11.32s-7.18-4.28-11.6-4.28c-6.07,0-11.11,2.14-15.18,6.49-4.07,4.42-6.14,10.49-6.14,18.43s2.07,14.01,6.07,18.36c4.07,4.42,9.11,6.56,15.25,6.56,4.42,0,8.21-1.24,11.32-3.73s5.04-5.8,5.87-9.94l21.88,4.97c-2,8.56-6.42,15.18-13.32,19.95-6.83,4.76-15.39,7.18-25.61,7.18h0Z"/>
    </g>
  </g>
</svg>