<?xml version="1.0" encoding="UTF-8"?>
<svg id="a" data-name="Capa 1" xmlns="http://www.w3.org/2000/svg" viewBox="0 0 382.91 512">
  <defs>
    <style>
      .c-pdf, .d-pdf {
        fill: #fff;
      }

      .e-pdf {
        fill: #e5252a;
      }

      .e-pdf, .d-pdf {
        fill-rule: evenodd;
      }

      .d-pdf {
        isolation: isolate;
        opacity: .3;
      }
    </style>
  </defs>
  <g id="b" data-name="Vrstva_1">
    <path class="e-pdf" d="m66.65,0h171.18l145.08,151.22v294.13c0,36.85-29.81,66.65-66.53,66.65H66.65C29.81,512,0,482.19,0,445.35V66.65C0,29.81,29.81,0,66.65,0h0Z"/>
    <g>
      <path class="d-pdf" d="m237.7,0v150.07h145.21L237.7,0Z"/>
      <path class="c-pdf" d="m74.07,382.02v-93.52h39.79c9.85,0,17.66,2.69,23.54,8.19,5.88,5.37,8.83,12.67,8.83,21.75s-2.94,16.38-8.83,21.75c-5.88,5.5-13.69,8.19-23.54,8.19h-15.86v33.65h-23.92Zm23.92-53.99h13.18c3.58,0,6.4-.77,8.32-2.56,1.92-1.66,2.94-3.97,2.94-7.04s-1.02-5.37-2.94-7.04c-1.92-1.79-4.73-2.56-8.32-2.56h-13.18v19.19Zm58.08,53.99v-93.52h33.14c6.52,0,12.67.9,18.42,2.81,5.76,1.92,11,4.61,15.61,8.32,4.61,3.58,8.32,8.44,11,14.58,2.56,6.14,3.97,13.18,3.97,21.11s-1.41,14.84-3.97,20.98c-2.69,6.14-6.4,11-11,14.58-4.61,3.71-9.85,6.4-15.61,8.32-5.76,1.92-11.9,2.81-18.42,2.81h-33.14Zm23.41-20.34h6.91c3.71,0,7.16-.38,10.36-1.28,3.07-.9,6.01-2.3,8.83-4.22,2.69-1.92,4.86-4.61,6.4-8.19s2.3-7.8,2.3-12.67-.77-9.21-2.3-12.79-3.71-6.27-6.4-8.19c-2.81-1.92-5.76-3.33-8.83-4.22-3.2-.9-6.65-1.28-10.36-1.28h-6.91v52.84Zm70.75,20.34v-93.52h66.53v20.34h-42.6v14.97h34.03v20.21h-34.03v38h-23.92Z"/>
    </g>
  </g>
</svg>