<?xml version="1.0" encoding="UTF-8"?>
<svg id="a" data-name="Capa 1" xmlns="http://www.w3.org/2000/svg" viewBox="0 0 382.88 512">
  <defs>
    <style>
      .c-xls, .d-xls {
        fill: #fff;
      }

      .d-xls {
        isolation: isolate;
        opacity: .3;
      }

      .d-xls, .e-xls {
        fill-rule: evenodd;
      }

      .e-xls {
        fill: #00733b;
      }
    </style>
  </defs>
  <g id="b" data-name="Vrstva_1">
    <path class="e-xls"
          d="m66.52,0h171.35l145,151.36v293.93c0,36.81-29.71,66.71-66.52,66.71H66.52C29.9,512,0,482.1,0,445.29V66.52C0,29.9,29.9,0,66.52,0Z"/>
    <g>
      <path class="d-xls" d="m237.69,0v150.05h145.19L237.69,0Z"/>
      <path class="c-xls"
            d="m159.21,372.79h-24.85l-17-28.59-17,28.59h-25.04l29.52-49.71-25.97-43.17h25.04l13.45,22.42,13.27-22.42h25.04l-25.79,43.35,29.34,49.52Zm8.78,0v-92.87h23.73v72.69h40.36v20.18h-64.09Zm103.33,1.12c-9.34,0-17.56-2.99-24.67-8.78-6.91-5.61-10.84-12.71-11.4-21.12l20.37-5.98c.56,4.48,2.43,8.41,5.61,11.4,3.36,2.99,7.1,4.48,11.21,4.48,3.36,0,6.17-.75,8.41-2.24,2.06-1.49,3.18-3.55,3.18-5.98,0-2.06-.93-3.74-2.62-5.23-1.68-1.31-3.92-2.43-6.54-3.36s-5.79-1.87-8.97-2.62c-3.36-.93-6.73-2.06-9.9-3.55-3.36-1.31-6.35-2.99-8.97-5.05-2.8-1.87-4.86-4.67-6.54-8.22-1.68-3.36-2.62-7.47-2.62-12.15,0-7.66,3.18-14.01,9.72-19.06,6.54-5.23,14.39-7.66,23.54-7.66s17.19,2.24,23.92,6.54c6.73,4.48,11.02,10.28,12.71,17.38l-21.3,8.97c-.93-3.92-2.8-7.1-5.42-9.53-2.62-2.24-5.98-3.55-9.9-3.55-2.99,0-5.23.75-7.1,1.87-1.68,1.12-2.43,2.8-2.43,4.86,0,1.87,1.12,3.55,3.36,4.86,2.24,1.12,5.23,2.06,8.6,2.62s7.1,1.5,11.02,2.8c4.11,1.5,7.66,2.99,11.21,5.05,3.36,1.87,6.17,5.05,8.41,9.16,2.43,4.3,3.55,9.34,3.55,15.14,0,8.6-3.36,15.7-10.09,20.93s-15.51,8.03-26.35,8.03h0Z"/>
    </g>
  </g>
</svg>