<?xml version="1.0" encoding="UTF-8"?>
<svg id="a" data-name="Режим изоляции" xmlns="http://www.w3.org/2000/svg" viewBox="0 0 224.92 406.9">
  <g>
    <ellipse cx="84.57" cy="382.43" rx="72.91" ry="24.47" style="opacity: .1;"/>
    <path d="m113.17,372.87c-2.21,0-4.14-1.62-4.46-3.87l-3.3-22.97c-.35-2.46,1.36-4.75,3.82-5.1,2.46-.35,4.75,1.36,5.1,3.82l3.3,22.97c.35,2.46-1.36,4.75-3.82,5.1-.22.03-.43.05-.65.05Z" style="fill: #ee4a51;"/>
    <path d="m52.52,372.98c-.05,0-.11,0-.16,0-2.49-.09-4.43-2.18-4.35-4.66l.83-23.19c.09-2.49,2.21-4.41,4.67-4.34,2.49.09,4.43,2.18,4.35,4.66l-.83,23.19c-.09,2.43-2.09,4.34-4.5,4.34Z" style="fill: #ee4a51;"/>
    <path d="m28.46,394.51c-.21,0-.43-.02-.64-.05-2.47-.35-4.18-2.63-3.83-5.1l6.2-43.33c.35-2.46,2.64-4.18,5.1-3.82,2.47.35,4.18,2.63,3.83,5.1l-6.2,43.33c-.32,2.25-2.25,3.87-4.46,3.87Z" style="fill: #ee4a51;"/>
    <path d="m139,394.25c-2.13,0-4.03-1.52-4.43-3.69l-8.87-48.21c-.45-2.45,1.17-4.79,3.62-5.24,2.44-.46,4.8,1.17,5.25,3.62l8.87,48.21c.45,2.45-1.17,4.79-3.62,5.24-.28.05-.55.07-.82.07Z" style="fill: #ee4a51;"/>
    <path d="m157.56,300.71s11.2,17.79-.86,34.25c-6.28,8.58-24.73,23.08-78.01,23-38.32-.06-62.99-12.74-71.98-22.89-11.86-13.39-.96-37.39-.96-37.39l151.8,3.03Z" style="fill: #fc5158;"/>
    <path d="m4.05,302.85c0-18.85,34.35-34.12,76.71-34.12s76.71,15.28,76.71,34.12-34.35,34.12-76.71,34.12-76.71-15.28-76.71-34.12Z" style="fill: #ff6268;"/>
    <path d="m80.77,338.1c-42.92,0-77.84-15.81-77.84-35.25,0-.62.5-1.13,1.13-1.13s1.13.5,1.13,1.13c0,18.19,33.91,33,75.59,33,38.52,0,71.58-13.13,75.25-29.89.13-.61.74-.99,1.34-.86.61.13.99.73.86,1.34-3.95,18.05-37.25,31.66-77.45,31.66Z" style="fill: #ff888c;"/>
  </g>
  <g>
    <path d="m67.4,181.34s-9.46,12.65-23.6,23.32c-11.7,8.83-30.81,9.77-33.01,19.27-5.19,22.45,28.45,27.87,46.01,17.48,31.03-18.36,27.05-53.9,27.05-53.9l-16.46-6.16Z" style="fill: #ffa55c;"/>
    <path d="m53.69,243.19s-6.93-15.13-26.91-12.31C-5.01,235.36.79,274.12.79,274.12l47.31-7.3,5.59-23.64Z" style="fill: #ee934c;"/>
    <path d="m28.29,245.73s-.32-3.61-1.45-7.23c-1.61-5.18-3.77-7-3.77-7,0,0-13.62,1.95-20.02,18.49-4.32,11.17-2.19,23.9-2.19,23.9l30.22-4.67-2.78-23.49Z" style="fill: #fff; opacity: .48;"/>
    <path d="m151.39,189.21s6.66,24.16,5.6,57.29c-1.85,57.74-24.31,73.23-60.78,75.98-26.85,2.03-58.87-5.29-79.44-14.97-24.91-11.73-18.78-48.37-2.97-58.06,17.86-10.95,34.62,4.38,34.62,4.38,0,0,2.29-9.83,8.59-27.58,8.39-23.63,19.76-42.22,19.76-42.22l74.62,5.17Z" style="fill: #ffa55c;"/>
    <path d="m28.15,245.82c-.57,0-1.05-.42-1.12-1,0-.07-.81-6.85-3.97-11.66-.34-.52-.2-1.22.32-1.56.52-.34,1.22-.2,1.56.32,3.46,5.27,4.29,12.35,4.32,12.65.07.62-.38,1.18-.99,1.25-.04,0-.09,0-.13,0Z" style="fill: #ed894b;"/>
    <path d="m12.38,304.93s12.16-.06,17.49-28.43c3.91-20.83-.7-30.95-.7-30.95,0,0-.36-.04-.99-.05-4.61-.09-23.81,1.12-27.53,27.23-3.34,23.47,11.73,32.2,11.73,32.2Z" style="fill: #fff; opacity: .56;"/>
    <path d="m63.56,209.85s5.73-5.45,12.62-2.04c8.05,3.99,13.13,13.88,10.5,26.62-3.13,15.16-11.41,24.95-11.41,24.95,0,0-6.79.41-13.5-1.07-7.76-1.71-13.37-4.67-13.37-4.67,0,0,2.87-11.03,6.8-21.93,4.48-12.43,8.37-21.86,8.37-21.86Z" style="fill: #fff; opacity: .56;"/>
    <path d="m154.2,264.27s30.73,2.84,19.33,28.75c-8.46,19.21-30.56,7.25-30.56,7.25l11.23-36Z" style="fill: #ffa55c;"/>
    <path d="m143.47,301.42c-.23,0-.46-.07-.66-.21-.51-.36-.62-1.07-.26-1.57.11-.15,10.84-15.37,11.64-33.83.03-.62.55-1.13,1.17-1.08.62.03,1.1.55,1.08,1.17-.82,19.15-11.6,34.4-12.05,35.04-.22.31-.57.47-.92.47Z" style="fill: #ed894b;"/>
    <path d="m52.36,239.74c-.1,0-.19-.01-.29-.04-.6-.16-.96-.78-.8-1.38.06-.22,6-22.39,15.36-37.34.33-.53,1.03-.69,1.55-.36.53.33.69,1.03.36,1.55-9.18,14.66-15.04,36.51-15.1,36.72-.13.5-.59.84-1.09.84Z" style="fill: #ed894b;"/>
    <path d="m139.39,190.75s-35.53,11.49-59.21,3.75c-17.52-5.72-11.72-14.54-11.72-14.54l70.94,10.79Z" style="fill: #dc5a36; opacity: .31;"/>
    <path d="m71.25,260.74s-.04,0-.07,0c-12.9-.75-22.96-5.56-23.38-5.76-.56-.27-.79-.95-.52-1.51.27-.56.95-.79,1.51-.52.1.05,10.09,4.82,22.53,5.54.62.04,1.1.57,1.06,1.19-.03.6-.53,1.06-1.12,1.06Z" style="fill: #ed894b;"/>
    <path d="m14.12,305.61c-.49,0-.95-.33-1.09-.83-.17-.6.18-1.22.78-1.39,7.12-1.98,13.13-14.37,15.71-32.34,2.27-15.86-.8-23.39-.83-23.46-.24-.57.02-1.23.6-1.48.57-.25,1.23.02,1.48.59.14.32,3.36,8.09.99,24.67-2.74,19.16-9.22,31.94-17.34,34.2-.1.03-.2.04-.3.04Z" style="fill: #ed894b;"/>
    <path d="m1.23,270.11c-.09,0-.18-.01-.27-.03-.6-.15-.97-.76-.83-1.36,2.21-9,7.1-16.56,13.08-20.23,4.88-2.99,10.13-4.36,15.61-4.07.62.03,1.1.56,1.07,1.19-.03.62-.57,1.11-1.19,1.07-5.03-.29-9.83.99-14.32,3.74-5.49,3.36-10,10.41-12.07,18.84-.13.51-.59.86-1.09.86Z" style="fill: #fba37d;"/>
    <path d="m48.43,254.96c-.27,0-.54-.1-.76-.3-.08-.07-8.1-7.28-18.63-7.97-.62-.04-1.09-.58-1.05-1.2.04-.62.59-1.08,1.2-1.05,11.34.75,19.65,8.24,20,8.56.46.42.49,1.13.07,1.59-.22.24-.53.37-.83.37Z" style="fill: #ed894b;"/>
    <path d="m135.78,264.27s-7.9,22.1-38.61,18.81c-18.13-3.07-18.62-18.81-18.62-18.81,0,0,6.72,7.36,18.48,8.71,11.76,1.35,38.75-8.71,38.75-8.71Z" style="fill: #dc5a36; opacity: .15;"/>
    <path d="m146.89,195.27c11.94-3.88,16.29,16.23,12.85,31.58-3.16,14.12-13.06,33.25-33.95,43.6-18.99,9.4-55.72,1.71-51.14-23.18,3.32-18.05,30.27-15.65,41.69-21.57,20.78-10.77,18.61-26.55,30.56-30.44Z" style="fill: #ffa55c;"/>
    <path d="m107.44,275.43c-9.53,0-19.2-2.58-25.68-7.47-6.94-5.24-9.78-12.46-8.23-20.89,2.42-13.16,16.28-15.98,28.51-18.48,5.32-1.09,10.34-2.11,13.77-3.89,9.08-4.71,13.56-10.32,16.75-15.18.34-.52,1.04-.66,1.56-.33.52.34.67,1.04.33,1.56-3.34,5.11-8.05,10.99-17.6,15.94-3.71,1.92-8.88,2.98-14.36,4.1-11.53,2.35-24.6,5.02-26.75,16.68-1.75,9.52,3.04,15.42,7.37,18.69,10.47,7.9,29.78,9.4,42.16,3.27,10.83-5.36,19.84-13.83,26.08-24.51.31-.54,1.01-.72,1.54-.41.54.31.72,1,.41,1.54-6.46,11.05-15.8,19.84-27.02,25.39-5.41,2.68-12.09,3.97-18.84,3.97Z" style="fill: #ed894b;"/>
    <path d="m175.7,42.76c-12.16-10.4-23.61-19.6-51.9-25C42.5,2.25,12.48,61.81,5.47,96.48.06,123.28,1.76,166.39,76,185.69c25.24,6.56,104.78,23.59,128.23-45.93,15.16-44.95-11.68-82.6-28.53-97Z" style="fill: #ffa55c;"/>
    <path d="m36.26,163.3c12.16,4.31,28.52,5.78,38.72.76,19.81-9.75,25.86-40.07-13.82-56.53-22.64-9.39-39.94-6.39-48.78-.06-7.45,5.34-8.35,13.63-8.35,13.63,0,0-.01,6.79,4.24,17.5,3.71,9.36,16.13,20.5,27.99,24.7Z" style="fill: #fff; opacity: .56;"/>
    <path d="m171.84,43.68s6.4-15.74,21.74-19.21c13.38-3.02,25.35,3.19,29.81,14.33,4.46,11.14-1.27,25.28-12.16,29.15-7.12,2.53-15.1,1.26-15.1,1.26l-24.29-25.53Z" style="fill: #ffa55c;"/>
    <path d="m185.66,50.39c-.49-4.43,3.59-9.14,9.12-7.9,5.53,1.24,7.67,5.84,5,10.32-4.08,6.86-13.63,2.01-14.12-2.42Z" style="fill: #dc5a36; opacity: .54;"/>
    <path d="m61.12,22.42S65.24,6.18,47.97.91c-13.48-4.11-23.76,6.49-26.53,15.94-2.07,7.07-.02,14.41,5.42,18.09,5.11,3.45,11.52,1.97,11.52,1.97l22.74-14.49Z" style="fill: #ffa55c;"/>
    <path d="m47.19,17.25c-6.25-6.27-14.08,3.17-7.39,9.12,4.82,4.28,11.84-4.66,7.39-9.12Z" style="fill: #dc5a36; opacity: .54;"/>
    <path d="m84.35,91.33c2-6.63,8.37-10.72,14.22-9.15,5.85,1.57,8.98,8.23,6.98,14.85-2,6.63-8.37,10.72-14.22,9.15-5.85-1.57-8.98-8.23-6.98-14.85Z" style="fill: #8c3831; opacity: .72;"/>
    <path d="m39.68,75.07c2.39-5.52,7.76-8.51,11.99-6.68,4.23,1.83,5.73,7.79,3.34,13.31-2.39,5.52-7.76,8.51-11.99,6.68-4.23-1.83-5.73-7.79-3.34-13.31Z" style="fill: #8c3831; opacity: .72;"/>
    <path d="m24.35,101.07c3.56-7.91,14.86-8.34,27.54-3.78,12.68,4.56,21.95,12.39,18.39,20.3-3.56,7.91-16.73,10.62-29.42,6.06-12.68-4.56-20.08-14.67-16.52-22.58Z" style="fill: #865555;"/>
    <path d="m61.77,153.57c-.77,0-1.46-.06-2.05-.15-1.54-.24-2.59-1.68-2.35-3.22.24-1.54,1.68-2.59,3.22-2.35.24.03,6.3.85,8.34-3.99.6-1.43,2.26-2.11,3.69-1.5,1.43.61,2.11,2.26,1.5,3.69-2.53,5.98-8.37,7.51-12.35,7.51Z" style="fill: #e5634d;"/>
    <path d="m109.46,125.37c0-3.77,4.44-6.83,9.92-6.83s9.92,3.06,9.92,6.83-4.44,6.83-9.92,6.83-9.92-3.06-9.92-6.83Z" style="fill: #dc343d; opacity: .58;"/>
    <path d="m8.87,83.23s9.22,3.9,7.12,10.09c-1.86,5.48-10.87,4.39-10.87,4.39,0,0,.77-3.38,1.7-6.96s2.06-7.51,2.06-7.51Z" style="fill: #dc343d; opacity: .58;"/>
    <path d="m64.9,52.79c.08-2.71-3.25-3.82-6.82-4.5-4.71-.89-9.98-.48-9.81,3.29.14,3.2,4.5,4.8,8.6,5.22,4.08.42,7.91-.32,8.02-4.01Z" style="fill: #fff; opacity: .56;"/>
    <path d="m109.21,67.07c1.35-5.01-17.4-13.94-18.36-5.71-.41,3.59,4.65,6.12,9.01,7.54,4.97,1.62,8.42,1.58,9.35-1.83Z" style="fill: #fff; opacity: .56;"/>
    <path d="m124.69,193.42c-30.68,0-58.32-9.22-58.68-9.34-.59-.2-.9-.84-.71-1.43.2-.59.84-.91,1.43-.71.45.15,45.67,15.22,84.24,6.52.6-.13,1.21.24,1.35.85.14.61-.24,1.21-.85,1.35-8.79,1.98-17.91,2.75-26.78,2.75Z" style="fill: #ed894b;"/>
  </g>
</svg>