<?xml version="1.0" encoding="UTF-8"?>
<svg id="a" data-name="objects" xmlns="http://www.w3.org/2000/svg" viewBox="0 0 349.93 348.97">
  <path d="m15.66,134.32c4.1-8.69,16.47-12.15,24.48-6.84,4.63-6.05,12.74-9.23,20.25-7.91,7.5,1.31,14.06,7.06,16.35,14.32,4.05-.67,8.67,1.3,10.16,5.13,1.48,3.83-1.38,8.93-5.49,8.9-1.35-.01-2.71-.52-4.01-.17-1.04.28-1.86,1.06-2.69,1.76-10.29,8.82-27.84,7.08-36.21-3.57-5.92,5.16-15.73,5.03-21.51-.29.78.71-8.07,2.56-9.08,2.4-3.23-.51-7.29-2.46-7.83-6.06-1.13-7.53,10.33-11.26,15.58-7.67Z" style="fill: #fff;"/>
  <ellipse cx="195.59" cy="338.69" rx="81.25" ry="10.28" style="opacity: .1;"/>
  <path d="m200.51,60.37c-.7-.97-1.61-1.73-2.66-2.29-1.39-.75-3-1.14-4.61-1.22-.4-.02-.8-.02-1.2,0-1.19.06-2.37.27-3.52.57-.77.2-1.53.44-2.29.71s-1.5.56-2.25.85c-.37.15-.74.3-1.11.45.1-.32.17-.64.22-.96.05-.32.09-.64.1-.96.03-.7-.05-1.4-.2-2.09-.1-.48-.25-.95-.43-1.41-.09-.23-.19-.45-.29-.67-.64-1.33-1.56-2.57-2.68-3.61-.25-.23-.51-.45-.77-.66-.43-.34-.89-.65-1.36-.93-.21-.13-.42-.25-.63-.36-.5-.26-1-.5-1.52-.68-1.57-.56-3.18-.86-4.83-.98-.99-.07-1.98-.07-2.98-.02-2.66.13-5.35.62-7.96,1.15,1.56-5.39,1.11-13.1-2.69-17.7-1.27-1.53-2.91-2.72-4.97-3.36,0,0,0,0,0,0-.4-.12-.81-.22-1.22-.31-.11-.02-.22-.04-.33-.06-.32-.06-.63-.11-.95-.14-.1-.01-.21-.02-.31-.03-.35-.03-.69-.05-1.04-.06-.07,0-.14,0-.2,0-.42,0-.83,0-1.25.02h0c-1.24.06-2.49.23-3.7.47.41-7.26-.55-13.87-6.08-18.86-4.7-4.25-10.93-6.67-17.23-7.12-5.71-.41-11.65.5-16.52,3.51-4.87,3-8.5,8.3-8.63,14.02-4.1-3.31-10.39-3.03-14.77-.09-4.38,2.94-6.95,8.06-7.76,13.27-1.26-.74-2.51-1.24-3.74-1.56h0c-5.05-1.31-9.76.68-13.05,4.3-.04.04-.08.08-.11.12-.16.18-.31.36-.46.55-.06.07-.12.14-.17.21-.14.17-.27.35-.4.53-.07.09-.13.18-.2.27-.12.17-.24.34-.35.52-.07.1-.14.21-.2.32-.11.17-.21.34-.31.52-.07.12-.13.24-.2.36-.09.17-.19.34-.28.51-.07.13-.13.27-.2.41-.08.16-.16.33-.23.49-.1.23-.19.46-.29.69-.08.19-.15.38-.22.58-.07.2-.14.39-.21.59-.04.14-.08.28-.12.42-.06.19-.11.38-.16.57-.04.14-.07.29-.1.43-.04.19-.09.38-.13.57-.03.15-.06.29-.08.44-.03.19-.07.39-.09.58-.02.15-.04.29-.06.44-.02.2-.04.4-.06.6-.01.14-.02.28-.03.43-.01.21-.02.42-.02.63,0,.13,0,.27,0,.4,0,.23.01.46.02.69,0,.11,0,.23.01.34.02.34.05.69.1,1.03-1.88-.61-3.93-.65-5.85-.18-.44.11-.87.24-1.3.4-1.27.48-2.45,1.2-3.44,2.13-.35.32-.67.67-.96,1.04-1.18,1.47-1.96,3.27-2.26,5.14-.22,1.4-.17,2.85.18,4.23-2.98-1.55-7.03-.55-8.95,2.21-.48.69-.81,1.46-1,2.28-.09.41-.15.82-.17,1.24-.02.42-.01.84.04,1.25.14,1.25.59,2.46,1.33,3.46.25.33.53.65.84.93.4.37.84.68,1.3.94s.94.47,1.44.63c.5.16,1.02.28,1.55.35,1.59.22,3.29.07,4.94-.3.28-.06.55-.13.82-.2.55-.15,1.08-.32,1.61-.5.26-.09.52-.19.78-.29.61.59,1.25,1.14,1.92,1.65,3.99,3.1,8.86,4.97,13.89,5.57,7.55.91,15.48-1.02,21.36-5.87,10.81,9.5,28.51,9.9,39.74.89,3.23,4.44,7.84,8.01,13.18,9.32.62.15,1.23.26,1.85.33.61.07,1.22.1,1.83.1.3,0,.61-.01.91-.03.6-.03,1.21-.1,1.81-.19.6-.09,1.2-.2,1.79-.33.6-.13,1.19-.28,1.78-.44,1.48-.41,2.95-.9,4.41-1.38,1.11-.37,12.76-6.98,11.38-8.23,2.77,2.5,5.99,4.46,9.46,5.82,2.82,1.11,5.8,1.81,8.82,2.09.69.06,1.38.11,2.07.13,2.48.07,4.97-.16,7.39-.69,2.11-.46,4.19-1.17,6.13-2.11,1.3-.63,2.54-1.37,3.7-2.21,1.74-1.27,3.28-2.78,4.53-4.54,2.5-3.5,3.63-8.54,1.13-12.04Z" style="fill: #fff;"/>
  <g>
    <path d="m231.26,241.85c1.17,1.17,3,2.17,4.67.33s10.33-7.67,15-7.5c3.67-.33.17-4-1.83-7.17-2-3.17-13.34-12.17-23-9.67-9.67,2.67,4.5,23.67,5.17,24Z" style="fill: #fbb03b;"/>
    <path d="m154.51,300.94c-3.5-2.5-9.5-10.25-12.5-12.25s-6.75,1.25-9.5-.25,3-8,10.25-12.75,10-8.25,21.25,6.5c3.75,5.5-9.5,18.75-9.5,18.75Z" style="fill: #f7cb9c;"/>
    <path d="m190.59,313.85c-.75,4.75-.58,23.33.42,25.83s6.25,1.75,12.25,1.25,13.25-2.5,13-4.25-4.75-3.25-5.75-3.5-1.5-3-.75-5.25,3.08-16.33,1.83-22.58-19,2.5-21,8.5Z" style="fill: #f7cb9c;"/>
    <path d="m169.01,255.44c-4,5.75-6.5,19-1.25,30.25-3-1.75-3.75-3.5-3.75-3.5-4.5,3.5-9.5,10-9.5,18.75,9.5,8.75,22.25,6.75,25.5,2.25,6.75,5.5,10.25,4,10,13.75,7-5.25,19-6,22.5-6.25.75-7-1.5-12.25-9-21,11.5-11.5,13.75-20.25,13.75-20.25l-48.25-14Z" style="fill: #56575c;"/>
    <path d="m167.76,204.19c-6,4.75,5,13,24,12s39.25-6.5,49.5-15.5-34.75-20.5-34.75-20.5l-38.75,24Z" style="fill: #824c3f;"/>
    <path d="m165.26,252.69c-1.17-2.83-.17-3.17,3.33-7.33s22.14-31.68,26.79-33.53c10.5-4.17,18.17,0,23.83.67,5.67.67,14.83,2.33,14.21,15.19-.65,13.32-6.33,35.83-7.83,40.33s-6.33,5.67-10.5,5.83-26.67-1.83-35.17-7c-8.5-5.17-12-10-14.67-14.17Z" style="fill: #fb8135;"/>
    <path d="m207.92,208.35c-1.67,3.33-2,7-.33,10.67s11.79,10.75,17.33,4c3.83-4.67,9.33-15.17,9.33-15.17l-26.33.5Z" style="fill: #f2b87b;"/>
    <path d="m192.26,202.02c7.67,9.33,31.9,18.52,56.17,9.67,22.83-8.33,15.83-28,13.83-29.33,0-26,2-47.33-34.67-46.33s-55.67,35.33-35.33,66Z" style="fill: #f7cb9c;"/>
    <path d="m241.44,190.27c-2.67.74-7.42,1.1-9.42,1.45-2.01.35-1.96,2.29.81,6.79,2.77,4.5,10.11,4.81,13.23.42,3.12-4.39,2.33-9.37,1.45-9.57-.89-.2-1.88-.24-6.06.91Z" style="fill: #b34b3d;"/>
    <path d="m244.64,200.4c-4.25-6.8-9.97-6.03-12.98-3.93.32.61.7,1.29,1.16,2.04,2.41,3.91,8.27,4.65,11.82,1.89Z" style="fill: #fc8271;"/>
    <path d="m245.42,185.35c-.09.03-.22-.05-.37-.21-.08-.08-.16-.18-.25-.29-.11-.1-.22-.22-.34-.36-.49-.49-1.23-1.16-2.09-1.04-.33,0-.64.17-.96.27l-.12.05c-.59.15-1.06.67-1.43,1.05-.37.38-.65.6-.77.52-.12-.08-.09-.41.11-.94.2-.49.6-1.36,1.69-1.82l-.12.05c.44-.22.91-.47,1.5-.5.37-.07.75.06,1.1.12.31.16.65.27.87.49.49.38.79.83.99,1.22.09.2.16.38.22.54.04.17.06.31.07.43.02.24-.01.38-.1.41Z" style="fill: #e8955d;"/>
    <g>
      <path d="m221.13,179.8c2.75-1.01,4.46,4.71,2.16,5.93-1.92,1.02-3.5-.86-3.74-2.57-.17-1.22.46-2.95,1.58-3.36Z" style="fill: #42210b;"/>
      <path d="m221.26,180.28c2.11-.66,2.88,2.72,2.45,4.17-.17.59-.63.87-1.19,1.03-.89.27-1.65-.52-2.06-1.18-.8-1.26-.53-3.41.92-4.08.58-.27.08-1.13-.5-.86-4.24,1.96-.31,9.72,3.2,6.38,2.08-1.98.03-7.41-3.09-6.43-.61.19-.35,1.16.27.96Z" style="fill: #42210b;"/>
    </g>
    <g>
      <path d="m253.38,175.72c2.75-1.01,4.46,4.71,2.16,5.93-1.92,1.02-3.5-.86-3.74-2.57-.17-1.22.46-2.95,1.58-3.36Z" style="fill: #42210b;"/>
      <path d="m253.51,176.2c2.11-.66,2.88,2.72,2.45,4.17-.17.59-.63.86-1.19,1.03-.89.27-1.65-.52-2.06-1.18-.8-1.26-.53-3.41.92-4.08.58-.27.08-1.13-.5-.86-4.24,1.96-.31,9.72,3.2,6.38,2.08-1.98.03-7.41-3.09-6.43-.61.19-.35,1.16.27.96Z" style="fill: #42210b;"/>
    </g>
    <path d="m196.01,187.69c-7.25,4.5-7,10.75,5,3s30.75-28,32.5-50.5c9.5-3.5,25.25,2.75,28,23.25,1.25,12.25,3.5,9.5,4.25,4s-1-14.5-1-14.5c6.25,6.75,10,7.25,8-2.25s-8-20.5-22.25-20.25c-12-9.5-32.25-6.25-50.75-2.25s-28,2-35,.5-12.25-1.25-3.75,8.25c-9.5-4.75-11-1-15.5,5.75s-20.25,37.75,13,50.75c-12.5,4.5-11.5,10,.25,7.75-2,3.75,4.25,6,12,5.25s16.25-6.5,16.25-6.5c-12.75-7.5-1.75-20.75,9-12.25Z" style="fill: #824c3f;"/>
    <path d="m195.13,200.44c-5.5,3.62-11.38,1.88-16-4.38s5.38-17.25,15.62-8.38c-8.38,5.38-2.38,9.25,1,8-.88.5-.62,4.75-.62,4.75Z" style="fill: #f7cb9c;"/>
    <path d="m220.17,155.88c.13.38-1.81,1.25-4.05,2.4-2.2,1.21-3.81,2.5-4.11,2.22-.24-.2,1.08-2.05,3.49-3.38,2.42-1.23,4.58-1.55,4.68-1.24Z" style="fill: #613328;"/>
    <path d="m257.42,155.69c-.09.16-.54.08-1.2-.17-.65-.24-1.49-.71-2.37-1.06-.21-.1-.44-.2-.69-.3-.22-.09-.44-.2-.62-.26-.2-.09-.32-.11-.46-.16-.18,0-.35-.01-.51-.02-.69-.05-1.18-.17-1.16-.36.02-.19.38-.38,1.06-.57.18-.05.39-.1.61-.14.26,0,.58.02.81.09.27.06.49.14.73.22.22.07.46.16.73.28,1.06.44,1.82,1.04,2.36,1.49.52.45.8.81.71.97Z" style="fill: #613328;"/>
    <path d="m191.09,196.35c.03.08-.19.27-.71.48-.51.17-1.35.29-2.32,0-.94-.3-2.1-.91-2.73-2.24-.31-.64-.43-1.52-.11-2.32.33-.78.96-1.35,1.6-1.76.35-.24.68-.37.94-.52.08-.04.03,0,.06-.03.01,0,.01-.02,0-.03,0,0,0,0-.03-.01-.14,0-.28-.02-.43-.02-.59,0-1.15,0-1.68,0-.5,0-.95.06-1.36.15-1.64.38-2.41,1.29-2.57,1.12-.06-.05.05-.33.4-.75.34-.41.98-.92,1.91-1.27.46-.17.99-.29,1.56-.34.27-.02.55-.04.83-.06.28-.02.58-.04.89-.06.15,0,.32,0,.48,0,.27,0,.57.07.86.11.22.11.46.21.6.4.15.19.22.47.19.71-.03.25-.15.47-.35.69-.19.21-.53.42-.74.54-.32.19-.63.31-.86.47-.53.33-.92.72-1.12,1.14-.18.43-.15.9.03,1.34.35.91,1.21,1.52,1.93,1.85.75.33,1.43.38,1.91.37.47-.04.77-.06.8.03Z" style="fill: #e8955d;"/>
    <path d="m262.26,134.52c-.07.08-.48-.12-1.17-.45-.38-.12-.8-.3-1.36-.46-.54-.16-1.16-.39-1.86-.66l.05.02c-.62-.15-1.29-.32-2-.49-.73-.13-1.51-.21-2.33-.34-1.63-.1-3.44,0-5.31.36-3.9.67-7.16,2.39-9.65,3.34-2.44,1.03-3.94,1.69-4.04,1.52-.09-.14,1.28-1.1,3.65-2.36,1.19-.6,2.6-1.32,4.23-2.05,1.62-.75,3.54-1.36,5.58-1.74,1.97-.37,3.9-.45,5.67-.27.86.16,1.69.29,2.45.47.75.24,1.45.47,2.1.68h.02s.03.02.03.02c1.21.61,2.34,1.06,3.03,1.51.68.51.98.85.92.92Z" style="fill: #613328;"/>
    <path d="m209.59,172.19c.15.11-.58,1.29-1.87,3.12-.67.89-1.51,1.92-2.45,3.07-.99,1.09-2.06,2.32-3.27,3.52-2.41,2.41-4.68,4.47-6.28,5.99-1.59,1.52-2.66,2.42-2.8,2.3-.14-.12.68-1.23,2.13-2.95,1.45-1.71,3.63-3.89,6.01-6.27,1.2-1.19,2.28-2.37,3.31-3.41.98-1.08,1.88-2.04,2.64-2.85,1.46-1.66,2.44-2.64,2.59-2.53Z" style="fill: #613328;"/>
    <path d="m185.42,212.02c-5.5-1.5-16.67-5.67-27.17,3-10.5,8.67-14.17,23.67-15.17,25.67s-2.5-.5-5,2,2,5.83,2,5.83c1.67,2.17,4.17,1.83,4.17,1.83,2.5,2,7.67,1,10.67-2.67s10.33-14.5,12.17-15.5,7.67,3.17,11.67,2.67,6.67-22.83,6.67-22.83Z" style="fill: #f7cb9c;"/>
    <path d="m235.59,242.35c.83,2.17,1.67,3.67-2.17,4.83s-6.83,2.83-8.33,2.17-3.67-4.5-6.33-4.17-5,3.17-4.67,4.67c-2.67,4.17-1.17,9,2.5,11.5s5.83,1.83,7.17,0c4.17,1.67,15.5-1.33,21.17-2.83s12.5-7.67,10.17-14.33-4.88-8.83-5.21-9.5c-7.5,1-14.29,7.67-14.29,7.67Z" style="fill: #f7cb9c;"/>
    <path d="m179.59,208.85c-2.92,1.12-10.04,9.81-9.04,23.47,0,3.17,3.46,4.68,11.83,4.33,24-1,27.33-18.83,18.88-24.31-4.57-2.96-19.5-4.33-21.67-3.5Z" style="fill: #fbb03b;"/>
    <path d="m182.46,305.02c-.12.13-1.39-.72-3.34-2.28-.49-.38-1.01-.83-1.55-1.33-.27-.25-.56-.51-.85-.77-.28-.28-.55-.58-.84-.89-1.17-1.23-2.27-2.61-3.42-4.18-.27-.4-.56-.79-.8-1.2-.23-.41-.46-.82-.68-1.22-.44-.77-.86-1.52-1.26-2.23-.41-.7-.75-1.42-1.06-2.1-.31-.68-.61-1.31-.84-1.88-.39-1.15-.77-2.1-.94-2.79-.15-.7-.17-1.09-.09-1.12.09-.02.28.32.57.94.31.61.8,1.47,1.33,2.62.29.53.61,1.12.96,1.75.33.63.69,1.3,1.14,2,.42.7.87,1.44,1.33,2.2.22.38.44.76.66,1.15.23.38.51.75.76,1.13,1.08,1.48,2.2,2.94,3.25,4.13.26.3.5.61.76.89.27.27.53.54.78.8.5.52.96,1,1.42,1.42,1.76,1.72,2.85,2.83,2.72,2.98Z" style="fill: #6b6c73;"/>
    <path d="m208.06,295.53c-.18.11-.91-.86-2.18-2.31-.64-.72-1.41-1.57-2.33-2.41-.91-.89-2.04-1.8-3.06-2.92-4.1-4.41-7.12-8.11-6.87-8.37.25-.27,3.8,3.14,7.83,7.46.98,1.09,2.05,2,2.95,2.96.94.95,1.66,1.9,2.23,2.71,1.12,1.65,1.58,2.8,1.44,2.88Z" style="fill: #6b6c73;"/>
    <path d="m158.09,275.32c-6.63-6.4-9.56-3.42-15.33.37-7.25,4.75-13,11.25-10.25,12.75s6.5-1.75,9.5.25c.7.47,1.57,1.25,2.52,2.21l.06-.04c3.17-.33,3-6.16,1.83-7.67-1.09-1.4,6.7-7.61,11.67-7.87Z" style="fill: #b34b3d;"/>
    <path d="m196.59,336.19c-1.5.81-4.27-.78-6.39-1.5.24,2.42.53,4.29.81,5,1,2.5,6.25,1.75,12.25,1.25s13.25-2.5,13-4.25-4.75-3.25-5.75-3.5-1.5-3-.75-5.25c-6.67-.92-11,7.08-13.17,8.25Z" style="fill: #b34b3d;"/>
    <path d="m146.88,245.4c.1.15-.22.58-.83,1.16-.62.56-1.54,1.35-2.84,1.85-.32.12-.64.23-.97.29-.16.03-.3.08-.52.09-.15,0-.3,0-.45.01-.29.01-.57-.01-.83-.04-.26-.02-.51-.06-.73-.14-.22-.07-.42-.13-.58-.21-.16-.09-.29-.18-.39-.26-.2-.16-.29-.28-.25-.37.04-.08.2-.12.43-.11.12,0,.25.01.4.03.15,0,.33,0,.52,0,.19.01.4,0,.62-.03.22-.02.46-.03.72-.08.13-.02.26-.03.39-.05.07,0,.21-.06.34-.09.26-.06.53-.16.8-.26,1.08-.41,2.03-1.02,2.77-1.38.74-.38,1.27-.55,1.37-.39Z" style="fill: #e8955d;"/>
    <path d="m148.88,246.56c.13.13-.07.57-.52,1.17-.45.6-1.15,1.38-2.16,2.05-1.02.66-2.19.92-3,.84-.81-.13-1.24-.39-1.2-.55.04-.19.51-.27,1.16-.38.65-.16,1.47-.46,2.33-1.01,1.69-1.18,3.11-2.4,3.39-2.11Z" style="fill: #e8955d;"/>
    <path d="m151.88,246.81c.31.15-.21,1.79-1.74,3.2-.78.68-1.65,1.15-2.36,1.26-.71.11-1.15-.05-1.15-.21,0-.2.35-.38.84-.67.49-.29,1.11-.78,1.79-1.36,1.33-1.22,2.29-2.4,2.62-2.22Z" style="fill: #e8955d;"/>
    <path d="m219.51,249.19c-.1.17-.51.08-1.06.05-.56-.03-1.24.08-2,.45-.41.21-.79.42-1.15.6-.18.09-.34.18-.5.26-.14.09-.28.17-.41.24-.5.29-.85.51-1.01.4-.14-.09-.05-.54.39-1.1.11-.13.24-.28.39-.42.16-.13.32-.26.49-.4.36-.27.72-.5,1.22-.76.98-.51,2.15-.5,2.81-.17.67.32.91.72.82.85Z" style="fill: #e8955d;"/>
    <path d="m217.88,251.19c.04.2-.34.43-.83.9-.49.47-1.12,1.2-1.69,2.1-.28.43-.53.89-.75,1.31-.21.41-.36.76-.46,1.07-.19.59-.1,1.04-.27,1.13-.13.1-.62-.31-.65-1.23,0-.44.09-.95.27-1.45.18-.49.41-1.01.75-1.54.66-1.03,1.52-1.8,2.27-2.16.77-.36,1.33-.28,1.35-.12Z" style="fill: #e8955d;"/>
    <path d="m220.13,255.06c0,.2-.29.38-.67.78-.39.4-.9,1.02-1.49,1.74-.63.76-1.18,1.27-1.38,1.72-.23.44-.27.85-.46.89-.15.05-.49-.33-.44-1.12.05-.82.69-1.64,1.27-2.34.62-.75,1.33-1.38,1.99-1.67.67-.31,1.19-.17,1.18,0Z" style="fill: #e8955d;"/>
    <path d="m222.76,257.44c.27.26-.13,1.01-.64,1.66-.23.33-.45.58-.57.76-.14.17-.24.37-.42.45-.14.08-.42-.1-.51-.55-.09-.46.12-1,.43-1.44.67-.86,1.45-1.13,1.7-.88Z" style="fill: #e8955d;"/>
    <path d="m225.01,261.44c0,.17-.22.35-.65.38-.42.03-.99-.15-1.47-.51-.94-.75-1.16-1.68-.88-1.88.3-.22,1,.29,1.68.83.34.25.65.48.88.65.24.17.43.34.44.52Z" style="fill: #e8955d;"/>
    <path d="m229.51,226.06c.08.05-.05.36-.37.91-.35.52-.99,1.18-1.86,1.84-.85.64-1.91,1.44-3.25,2.09-1.36.64-3.1.92-4.75.85-1.69,0-3.32-.39-4.7-.91-1.39-.54-2.5-1.33-3.33-2.05-1.65-1.47-2.35-2.62-2.24-2.73.15-.15,1.11.79,2.82,1.99,1.67,1.23,4.32,2.36,7.48,2.38,1.61.05,2.99-.15,4.24-.65,1.23-.53,2.28-1.19,3.2-1.74.9-.55,1.57-1.04,2-1.41.4-.4.68-.62.76-.57Z" style="fill: #ba681c;"/>
    <path d="m183.38,212c.05.08-.19.35-.6.77-.38.47-.93,1.13-1.48,2.06-1.13,1.82-2.34,4.59-3.2,7.77-.83,3.2-1.11,6.19-1.04,8.35.07,2.16.36,3.49.15,3.55-.14.05-.76-1.23-1.08-3.48-.31-2.24-.17-5.42.69-8.76.89-3.33,2.3-6.17,3.71-7.97.68-.91,1.39-1.54,1.91-1.91.56-.34.9-.46.94-.38Z" style="fill: #ba681c;"/>
    <path d="m248.13,230.81c.04.18-.77.56-2.11,1.04-.66.27-1.45.56-2.32.89-.83.4-1.82.71-2.73,1.23-.47.25-.93.46-1.37.7-.44.26-.86.52-1.26.76-.81.47-1.5.92-2.07,1.31-1.13.79-1.73,1.43-1.89,1.31-.14-.08.22-.98,1.3-2.03.53-.52,1.22-1.07,2.01-1.61.4-.27.81-.55,1.24-.83.45-.27.95-.52,1.45-.78.99-.57,2.02-.85,2.92-1.2.92-.28,1.76-.48,2.47-.64,1.43-.25,2.32-.32,2.37-.14Z" style="fill: #ba681c;"/>
    <path d="m168.88,196.94c.07.17-.55.61-1.59,1.2-1.04.6-2.49,1.4-4.19,2.17-1.7.76-3.35,1.25-4.57,1.44-1.23.16-2,.11-2.02-.06-.03-.19.68-.46,1.79-.84,1.11-.41,2.61-1,4.27-1.74,1.65-.75,3.18-1.42,4.34-1.81,1.16-.39,1.91-.52,1.98-.36Z" style="fill: #613328;"/>
    <path d="m172.04,138.56c.02.17-.97.43-2.6.56-1.63.11-3.88.03-6.35-.34-2.48-.51-4.59-1.34-6.06-1.96-1.52-.64-2.32-1.36-2.22-1.49.11-.16.99.22,2.53.61,1.57.41,3.65,1.06,5.97,1.54,2.37.36,4.56.58,6.14.71,1.58.11,2.58.18,2.59.38Z" style="fill: #613328;"/>
    <path d="m173.76,253.02c-.29-.22,1.44-3.44,3.95-7.32.23-.36.46-.71.68-1.05l-.03.04c2.25-3.44,4.51-5.51,4.73-5.34.3.23-1.56,2.7-3.6,5.99h0s-.02.04-.02.04c-.22.34-.44.69-.66,1.04-2.46,3.8-4.75,6.81-5.04,6.59Z" style="fill: #ba681c;"/>
    <path d="m217.42,268.7c0,.09-.75.17-2.12.23-1.36.08-3.34.08-5.78.03-4.87-.15-11.69-.77-18.86-3.11-1.75-.7-3.5-1.26-5.08-2.1-.4-.19-.8-.39-1.19-.58-.38-.22-.75-.43-1.12-.65-.74-.43-1.47-.83-2.14-1.3-2.75-1.76-4.98-3.65-6.84-5.23-3.67-3.23-5.81-5.34-5.7-5.47.12-.15,2.49,1.73,6.29,4.75,1.92,1.48,4.19,3.27,6.9,4.93.66.45,1.38.82,2.1,1.23.36.2.73.41,1.1.61.38.18.77.36,1.16.54,1.53.79,3.24,1.33,4.94,2.01,6.98,2.28,13.67,3.04,18.49,3.43,4.84.36,7.85.46,7.85.67Z" style="fill: #ba681c;"/>
  </g>
  <g>
    <path d="m317.79,295.13c2.7-3.8,3.06-10.18-2.16-12.06-2.5-.88-5.92-.05-8.09,1.22-2.31,1.48-2.35,4.45-2.74,6.77-1.92-.83-3.88-1.84-6.08-1.49-2.02.3-4.28,1.22-5.38,2.97-1.14,1.57-1.44,3.5-1.24,5.11.11,2.01.72,2.97,2.46,3.85-1.5,1.66-2.74,3.62-2.73,6.03.19,2.36,2.24,3.71,4.51,4.46,2.54,1.05,4.92.66,7.66.18,2.34-.57,3.54.44,5.08,2.1,2.17,1.88,4.81,2.54,7.48.96,2.45-1.7,3.11-4.45,3.02-7.21,0-.74-.07-1.09.78-1.49.86-.39,2.02-.3,2.88-.7,2.8-1.05,4.49-3.49,4.58-6.29-.02-4.81-5.77-7.3-9.84-5.2" style="fill: #ffd271;"/>
    <path d="m286.37,297.31c.4-1.71.41-3.34-.78-4.87-2.04-2.55-4.9-1.85-7.63-.58-.42-1.72-.93-3.01-2.69-3.6-1.57-.63-3.58-.55-5.34-.33-3.92.54-3.9,4.79-2.06,7.38-3.77-.51-5.84,1.82-5.58,5.4.35,3.96,2.92,6.18,6.74,5.25.75,1.44.84,2.63,2.37,3.07,1.33.49,2.91.31,4.25-.02,2.72-.46,4.7-3.17,4.43-5.94.57-.14,1.29.29,1.91.35.62.05,1.24.1,1.81-.04,1.34-.32,2.25-.75,2.97-1.94.77-1,1.5-3,.08-3.87" style="fill: #fff;"/>
    <path d="m344.48,311.91c-.09-2.9-1.33-5.82-4.22-6.88-1.17-.46-3.2-.42-4.29.44-1.16,1.13-1.03,3.33-.68,4.71-.88.06-1.52-.26-2.39-.2-.61.13-1.12.42-1.73.55-1.19.69-2.36,1.82-2.44,3.24-.02,1.15.24,2.37.83,3.39.86,1.09,2.11,1.28,3.14,2.27-.2-.2-1.22,2.25-1.25,2.53-.09.84.13,1.64.56,2.36.92,1.53,2.75,2.5,4.45,2.87,1.63.35,3.58.22,4.75-1.11.2-.23.45-1.01.66-1.13.58-.34,1.25.12,1.91.3,1.48.42,2.75.45,4.12-.34,3.83-2.2,1.56-5.42-1.21-7.24,1.12-.42,2.27-.41,2.72-1.58.55-1,.3-2.22-.19-3.07-1.36-1.94-2.65-1.42-4.57-1.21" style="fill: #fc8271;"/>
    <path d="m337.36,314.68c-1.67,2.37,2.08,4.94,4.22,3.83,3.4-1.76-1.91-7.13-4.22-3.83Z" style="fill: #ffd271;"/>
    <path d="m311.68,302.16c1.41-1.27,1.61-2.8.15-4.11-1.54-1.66-4.5-2.05-6.14-.18-3.79,4.8,5.58,8.08,6.27,3.84" style="fill: #fff;"/>
    <path d="m277.23,299.73c.63-.76.92-1.24.68-2.19-.23-.96-.8-1.63-1.75-2.21-1.75-1.4-4.86-.85-5.45,1.73-.73,2,1.26,4.35,3.26,4.27,1.24.11,2.15-.32,2.92-1.32.48-.52.54-1.14,1.02-1.66" style="fill: #ffd271;"/>
  </g>
</svg>