<?xml version="1.0" encoding="UTF-8"?>
<svg id="a" data-name="objects" xmlns="http://www.w3.org/2000/svg" viewBox="0 0 395.24 407.83">
  <defs>
    <style>
      .b-ch {
        fill: #b04d40;
      }

      .c-ch {
        fill: #f7cb9c;
      }

      .d-ch {
        fill: #a66128;
      }

      .e-ch {
        fill: #fff;
      }

      .f {
        fill: #b34b3d;
      }

      .g {
        fill: #fbd97b;
      }

      .h {
        fill: #61828f;
      }

      .i {
        fill: #7cc6e3;
      }

      .j {
        fill: #42626e;
      }

      .k {
        fill: #dcde57;
      }

      .l {
        fill: #e8955d;
      }

      .m {
        fill: #993e31;
      }

      .n {
        fill: #fc8271;
      }

      .o {
        fill: #42210b;
      }

      .p {
        fill: #f2b87b;
      }

      .q {
        fill: #979930;
      }

      .r {
        fill: #d48637;
      }

      .s {
        fill: #e0695a;
      }

      .t {
        fill: #fca54c;
      }

      .u {
        opacity: .1;
      }

      .v {
        fill: #c5c748;
      }

      .w {
        fill: #6e4620;
      }

      .x {
        fill: #526f7a;
      }

      .y {
        fill: #c96526;
      }

      .z {
        fill: #b283db;
      }

      .aa {
        fill: #823227;
      }

      .ab {
        fill: none;
        stroke: #7f9e96;
        stroke-linecap: round;
        stroke-miterlimit: 10;
      }

      .ac {
        fill: #9769bf;
      }

      .ad-ch {
        fill: #874b1b;
      }

      .ae-ch {
        fill: #6b6c73;
      }

      .af-ch {
        fill: #56575c;
      }
    </style>
  </defs>
  <path class="e-ch" d="m287.01,127.28c4.1-8.69,16.47-12.15,24.48-6.84,4.63-6.05,12.74-9.23,20.25-7.91,7.5,1.31,14.06,7.06,16.35,14.32,4.05-.67,8.67,1.3,10.16,5.13,1.48,3.83-1.38,8.93-5.49,8.9-1.35-.01-2.71-.52-4.01-.17-1.04.28-1.86,1.06-2.69,1.76-10.29,8.82-27.84,7.08-36.21-3.57-5.92,5.16-15.73,5.03-21.51-.29.78.71-8.07,2.56-9.08,2.4-3.23-.51-7.29-2.46-7.83-6.06-1.13-7.53,10.33-11.26,15.58-7.67Z"/>
  <ellipse class="u" cx="116.94" cy="396.69" rx="81.25" ry="10.28"/>
  <ellipse class="u" cx="314" cy="397.55" rx="81.25" ry="10.28"/>
  <path class="e-ch" d="m173.74,60.37c-.7-.97-1.61-1.73-2.66-2.29-1.39-.75-3-1.14-4.61-1.22-.4-.02-.8-.02-1.2,0-1.19.06-2.37.27-3.52.57-.77.2-1.53.44-2.29.71s-1.5.56-2.25.85c-.37.15-.74.3-1.11.45.1-.32.17-.64.22-.96.05-.32.09-.64.1-.96.03-.7-.05-1.4-.2-2.09-.1-.48-.25-.95-.43-1.41-.09-.23-.19-.45-.29-.67-.64-1.33-1.56-2.57-2.68-3.61-.25-.23-.51-.45-.77-.66-.43-.34-.89-.65-1.36-.93-.21-.13-.42-.25-.63-.36-.5-.26-1-.5-1.52-.68-1.57-.56-3.18-.86-4.83-.98-.99-.07-1.98-.07-2.98-.02-2.66.13-5.35.62-7.96,1.15,1.56-5.39,1.11-13.1-2.69-17.7-1.27-1.53-2.91-2.72-4.97-3.36,0,0,0,0,0,0-.4-.12-.81-.22-1.22-.31-.11-.02-.22-.04-.33-.06-.32-.06-.63-.11-.95-.14-.1-.01-.21-.02-.31-.03-.35-.03-.69-.05-1.04-.06-.07,0-.14,0-.2,0-.42,0-.83,0-1.25.02h0c-1.24.06-2.49.23-3.7.47.41-7.26-.55-13.87-6.08-18.86C105.31,2.97,99.08.55,92.79.09c-5.71-.41-11.65.5-16.52,3.51-4.87,3-8.5,8.3-8.63,14.02-4.1-3.31-10.39-3.03-14.77-.09-4.38,2.94-6.95,8.06-7.76,13.27-1.26-.74-2.51-1.24-3.74-1.56h0c-5.05-1.31-9.76.68-13.05,4.3-.04.04-.08.08-.11.12-.16.18-.31.36-.46.55-.06.07-.12.14-.17.21-.14.17-.27.35-.4.53-.07.09-.13.18-.2.27-.12.17-.24.34-.35.52-.07.1-.14.21-.2.32-.11.17-.21.34-.31.52-.07.12-.13.24-.2.36-.09.17-.19.34-.28.51-.07.13-.13.27-.2.41-.08.16-.16.33-.23.49-.1.23-.19.46-.29.69-.08.19-.15.38-.22.58-.07.2-.14.39-.21.59-.04.14-.08.28-.12.42-.06.19-.11.38-.16.57-.04.14-.07.29-.1.43-.04.19-.09.38-.13.57-.03.15-.06.29-.08.44-.03.19-.07.39-.09.58-.02.15-.04.29-.06.44-.02.2-.04.4-.06.6-.01.14-.02.28-.03.43-.01.21-.02.42-.02.63,0,.13,0,.27,0,.4,0,.23.01.46.02.69,0,.11,0,.23.01.34.02.34.05.69.1,1.03-1.88-.61-3.93-.65-5.85-.18-.44.11-.87.24-1.3.4-1.27.48-2.45,1.2-3.44,2.13-.35.32-.67.67-.96,1.04-1.18,1.47-1.96,3.27-2.26,5.14-.22,1.4-.17,2.85.18,4.23-2.98-1.55-7.03-.55-8.95,2.21-.48.69-.81,1.46-1,2.28-.09.41-.15.82-.17,1.24-.02.42-.01.84.04,1.25.14,1.25.59,2.46,1.33,3.46.25.33.53.65.84.93.4.37.84.68,1.3.94s.94.47,1.44.63c.5.16,1.02.28,1.55.35,1.59.22,3.29.07,4.94-.3.28-.06.55-.13.82-.2.55-.15,1.08-.32,1.61-.5.26-.09.52-.19.78-.29.61.59,1.25,1.14,1.92,1.65,3.99,3.1,8.86,4.97,13.89,5.57,7.55.91,15.48-1.02,21.36-5.87,10.81,9.5,28.51,9.9,39.74.89,3.23,4.44,7.84,8.01,13.18,9.32.62.15,1.23.26,1.85.33.61.07,1.22.1,1.83.1.3,0,.61-.01.91-.03.6-.03,1.21-.1,1.81-.19.6-.09,1.2-.2,1.79-.33.6-.13,1.19-.28,1.78-.44,1.48-.41,2.95-.9,4.41-1.38,1.11-.37,12.76-6.98,11.38-8.23,2.77,2.5,5.99,4.46,9.46,5.82,2.82,1.11,5.8,1.81,8.82,2.09.69.06,1.38.11,2.07.13,2.48.07,4.97-.16,7.39-.69,2.11-.46,4.19-1.17,6.13-2.11,1.3-.63,2.54-1.37,3.7-2.21,1.74-1.27,3.28-2.78,4.53-4.54,2.5-3.5,3.63-8.54,1.13-12.04Z"/>
  <g>
    <path class="af-ch" d="m299.55,377.11c4.45,3.17,9.95,2.82,9.45,9-.51,6.18-6.01,15.72-10.72,14.54-4.71-1.18-1.57-8.21-1.7-9.79-.13-1.58-4.79-2.57-7.2-4.55-2.42-1.97,10.17-9.2,10.17-9.2Z"/>
    <path class="c-ch" d="m274,331.36c-2.25,7-3.17,11.08-14.25,9.25-7.6-1.26-21.25-10.17-21.58-16.17-.33-6,3.67-9.83,6.67-9.5-.33-2.83,3.33-1.66,5.17.33s2.33,4,1.33,6.33c5.5,2.67,9.33,2.5,10.33.17s2.17-10.83,2.17-10.83c0,0,15,1.83,10.17,20.42Z"/>
    <path class="v" d="m276.5,323.44c-6.33-.19-16.5-1.68-17.83-3.36-1.33-1.68,1.96-16.62,9.96-19.56,8.96-3.29,8.87,18.25,7.87,22.92Z"/>
    <path class="v" d="m317.25,325.23c-2.62-8-6.07-16.16-7.25-19.62-8.12-23.75-17.17-12.83-19.33-13.17s-20,3.67-22,6.5-2.5,16,5,27.33c7.5,11.33,40.08,14.29,43.58-1.04Z"/>
    <path class="af-ch" d="m338.12,375.11c4.12,3.25,8.87,5.13,11.12,6.75s1,7.13-2.38,13.87-8.88,8.75-10.88,5.25,3.75-5.37.25-9.5-7.25-7.63-7.25-7.63l9.13-8.75Z"/>
    <path class="ae-ch" d="m339.42,397.52c.04.11.92-.05,1.77-1.21l-.02.02c.3-.41.49-.94.6-1.48.03-.13.05-.26.08-.39.04-.12.08-.24.12-.36.09-.27.18-.54.27-.83.18-.57.37-1.18.56-1.81.13-.42.17-.7.24-1.1.05-.38.1-.77.06-1.2-.03-.73-.36-1.52-.76-2.02-.37-.53-.79-.97-1.2-1.38-.83-.8-1.67-1.37-2.37-1.83-1.42-.89-2.35-1.32-2.46-1.18-.11.15.65.87,1.9,1.93.61.54,1.36,1.16,2.06,1.93.34.39.7.8,1,1.25.32.45.47.85.51,1.38.05.56-.09,1.29-.21,1.83-.17.66-.33,1.29-.48,1.88-.07.3-.14.59-.21.86-.03.15-.07.3-.1.44-.01.14-.02.27-.04.4-.05.49-.14.88-.27,1.18l-.02.02c-.49,1.04-1.16,1.47-1.06,1.62Z"/>
    <path class="ae-ch" d="m337.42,394.27c.13.14.36.18.65.2.32.01.74.02,1.33-.14-.08.02.04,0,.09-.01l.18-.03c.11-.02.22-.05.32-.07.21-.06.37-.09.53-.15.29-.09.52-.2.58-.38.05-.17-.13-.39-.51-.55-.19-.06-.43-.13-.67-.13-.12,0-.26-.01-.39,0l-.2.02c-.08.01-.08,0-.29.05-.41.12-.93.28-1.26.52-.35.26-.47.56-.34.68Z"/>
    <path class="ae-ch" d="m336.42,390.77c.29.27,1.38-.45,2.78-1.19,1.42-.7,2.64-1.27,2.56-1.65-.07-.33-1.54-.32-3.16.47-1.6.85-2.43,2.15-2.17,2.36Z"/>
    <path class="ae-ch" d="m334.5,388.19c.25.26,1.29-.36,2.28-1.35.49-.47.88-.87,1.18-1.13.29-.26.53-.41.54-.6.02-.17-.34-.37-.92-.25-.56.11-1.19.52-1.72,1.04-1.02,1.01-1.62,2.03-1.36,2.29Z"/>
    <path class="ae-ch" d="m299.58,396.69c.15.04.44-.58.8-1.66.18-.53.38-1.22.61-1.85.26-.69.61-1.48.81-2.47v.05c.04-.32.12-.65.15-.99,0-.34.05-.69,0-1.03-.03-.3-.05-.61-.12-.9-.06-.29-.1-.57-.24-.89-.25-.62-.67-1.09-1.08-1.44-.86-.67-1.61-1.06-2.29-1.4-1.34-.66-2.21-.98-2.3-.82-.09.16.61.77,1.8,1.61.59.41,1.34.93,1.98,1.51.31.3.55.63.69,1,.07.16.11.42.16.67.06.24.06.5.09.75.04.29,0,.57,0,.84-.02.27-.07.54-.1.8v.05c-.14.79-.4,1.58-.61,2.33-.2.82-.28,1.45-.35,2.01-.14,1.11-.15,1.8,0,1.84Z"/>
    <path class="ae-ch" d="m297.08,394.36c-.03.36.74.63,1.48.53.34,0,.65-.11.86-.16.23-.08.43-.21.49-.38.06-.17-.04-.36-.32-.54-.29-.21-.69-.25-1.14-.24-.82.1-1.34.41-1.36.78Z"/>
    <path class="ae-ch" d="m296.58,390.61c.06.06.17.09.29.11.11,0,.24,0,.42,0,.16-.02.38-.04.62-.09.28-.06.54-.16.81-.29.27-.13.47-.23.68-.36.19-.09.35-.19.5-.29.27-.13.5-.31.52-.49.02-.18-.21-.34-.69-.42-.22,0-.47.02-.76.07-.25.07-.55.18-.79.29-.24.12-.46.24-.67.34-.22.12-.43.23-.6.39-.17.13-.29.3-.34.44-.05.14-.04.23.03.3Z"/>
    <path class="ae-ch" d="m294.5,388.36c.27.26,1.29-.4,2.39-1.26.6-.49,1.03-.87,1.36-1.2.33-.28.55-.53.51-.71-.04-.17-.39-.24-.94-.12-.52.14-1.18.53-1.73.97-1.22.96-1.84,2.06-1.58,2.31Z"/>
    <path class="x" d="m311.75,323.36c4.16.86,6.75-.25,7.25,1.5s5.25,14.5,9,21.5,7,16.25,13.5,19.75c3,2.25.75,6.75-.75,10.25s-6.75,9.75-12.25,10.75-5.25-1.25-11-6.25-15-16-15.75-19c-5.75,5.5-8.75,9.25-7,10.25s7.25,4,5.5,6.75-7.5,9-10.75,9.75-3.75-1.5-9.25-4.25-15.75-7.5-13.5-18c2.25-10.5,10.75-18.75,11-21.25s-9.5-21.5-9-31c.5-2.5,1.75-.5,8.75-2.25s13.5-4,19.75,2.25c6.25,6.25,6,7.5,14.5,9.25Z"/>
    <path class="p" d="m290.62,287.36c3.87,5.13-6.79,14.75-12.29,14.92-5.5.17-8.46-6.96-10.96-11.29s23.25-3.62,23.25-3.62Z"/>
    <path class="c-ch" d="m312.5,268.36c5,4.25.75,19.75-13.25,14.75-11.5,12.75-39,18.25-57.5,9.75-18.5-8.5-12-15.25-10.75-21.5,1.25-6.25-2.75-9.25-3.5-19.75s5.5-27.25,22-35c16.5-7.75,62.25,27.75,63,51.75Z"/>
    <path class="f" d="m251.5,273.48c2.55.08,6.88-.62,8.75-.75s2.25,1.63.75,6.25-8,6.5-11.75,3.25-4.12-7.88-3.37-8.25,1.63-.62,5.63-.5Z"/>
    <path class="d-ch" d="m313.83,269.61c-3.33-3.67-11.17-5.33-14.17-1.33s-3.67,4.67-7,2.33c-3.33-2.33-3-6.17.67-12.17-5.83-1.17-6.83-5.5-5.67-8.67-3.42,1.58-13.92-4.92-9.83-17.83-12.17,7.83-23.83,7.33-21.67-6-14,9.5-21.67,14.17-28.5,12.67s-9.83-5.83-6.67-9.67c-10.5-3.33-7.17-12.17-1.83-15,5.33-2.83,9.83-2.67,12.17.83-4.33-6.33,1.83-9,6.83-3.17-6.5-12.33,3.5-20.83,11.67-23.66,8.17-2.83,13.83-2,20.17,6.83-4.67-8.17,2.17-11,8.17-9.17s9.17,6.17,9.67,12.67c4.5-7.67,9.17-6,10.83-4.33s2.17,3.5-.17,8.67-.83,11,5.67,15.5,8.5,8.33,9.67,6.5,7.33-4.5,12-2.83,2.67,4.83-2.67,5.67c11.5,2.67,11.5,6.83,10.5,9.17s-3.33,2.17-8,0c8.17,6.83,7,16.67,2,23.5-5,6.83-9.5,12.17-13.83,9.5Z"/>
    <path class="l" d="m249.75,270.11c.2,0,.33-.52.65-1.22.31-.69.89-1.64,1.79-1.96.83-.32,1.88.21,2.64.53.78.34,1.35.45,1.42.28.07-.17-.28-.54-.95-1.08-.33-.27-.78-.58-1.35-.84-.57-.25-1.4-.41-2.21-.12-.8.27-1.32.85-1.67,1.39-.35.55-.5,1.1-.58,1.56-.13.93.09,1.48.25,1.48Z"/>
    <path class="w" d="m269.33,244.61c-.04.18.42.49,1.19.86.78.32,1.81.87,2.99,1.37,2.31,1.14,4.33,1.93,4.5,1.6.16-.32-1.54-1.61-3.93-2.79-1.23-.53-2.37-.97-3.27-1.07-.88-.15-1.43-.15-1.47.03Z"/>
    <path class="w" d="m231.83,250.77c.18.06.48-.31.88-.86.44-.53,1.04-1.21,1.85-1.87,1.62-1.29,3.23-2.07,3.1-2.44-.09-.32-2.04-.08-3.94,1.42-.93.76-1.55,1.7-1.83,2.44-.25.76-.23,1.26-.06,1.3Z"/>
    <path class="j" d="m298.66,289.77c-2.5-1.5-7.67-1.83-11.17,5.5s-4.17,17.17.33,24.17c1.5,1.83,8.17.17,8.17-1s-5.17-9-3.67-16c1.5-7,1.83-11,6.33-12.67Z"/>
    <path class="j" d="m271.37,297.61c-2,3.17-1.54,15.5,2.79,22.17,1,2.5-5.33,3.83-7.33,1.17-2-2.67-5.75-14.08.92-21.58,2.5-2.12,3.63-1.75,3.63-1.75Z"/>
    <path class="c-ch" d="m312,288.94c3.35,0,15,.17,21.33,5.33s9.67,28,7.67,31.33-3.83,4.67-3.83,5.17,2.33-1.17,2.33.17c0,1.33-1.5,6-7.17,3-2.17,1.33-3.17-.5-3.17-.5-2.83.33-3.83-2.17-3.83-2.17-2.17-.83-1.5-3.83,1.17-6.83s-1.33-6.83-2.5-11.67-2.5-3.83-6.67-3.33-16.83,2.17-17.83-6.5,8.67-14,12.5-14Z"/>
    <path class="v" d="m313.62,286.48c5.98,0,8.46.11,5.12,4.63-3.34,4.52-3.47,13.5-.38,19.75,3.1,6.25-17.84,5.09-22.12-2.38-4.29-7.47-7.25-22,17.38-22Z"/>
    <path class="h" d="m290.83,315.44s-.05.09-.04.17c0,.07.02.22-.03.21.06.02,0,0,.03,0,0,0-.04-.03-.05-.05,0,0,0,0,0,0-.05,0-.1-.02-.15-.03-.14-.03-.33-.11-.48-.22-.35-.26-.2-.49-.13-.43-.04-.01.25.09.31.21.06.03.07.32,0,.41-.03.06-.03.05-.07.07-.02,0-.18.02-.24,0-.12-.02-.17-.09-.2-.3-.02-.2.08-.4.14-.46.04-.06.15-.08.34-.02l.1.04c.14-.07.35.33.47.57.13.25.26.38.34.35.08-.03.11-.18.13-.46,0-.14,0-.31-.05-.54-.04-.21-.2-.59-.61-.75.03.01.06.03.1.04-.26-.21-.82-.43-1.36-.14-.49.29-.75.8-.79,1.34-.01.28.02.58.19.88.16.29.46.56.78.66.33.12.6.14,1,.06.18-.03.37-.15.54-.26.14-.14.3-.29.37-.46.29-.63.27-1.29-.18-1.85-.44-.47-.94-.7-1.67-.55-.16.06-.32.1-.43.23-.12.11-.24.21-.28.37-.17.28-.09.59-.1.86.14.56.56.84.87.97.33.13.63.17.92.13.14-.02.29-.06.43-.15.15-.09.26-.28.25-.44-.03-.31-.18-.37-.26-.42-.09-.05-.15-.05-.18-.03Z"/>
    <path class="h" d="m269.83,317.94c-.09.03-.15.14-.19.31-.03.18-.1.34-.18.38-.08.06-.2,0-.2-.06,0,0-.05-.07-.09-.17-.04-.09-.05-.15-.04-.25.04-.19-.02-.12.05-.17.11-.03.31.03.39.08l.06.08c.37.16.47.84.7.8.1,0,.2-.12.29-.35.02-.13.08-.28.04-.5-.02-.23-.13-.45-.29-.68l.06.08c-.25-.42-.67-.72-1.26-.75-.31,0-.69.1-.94.38-.14.14-.23.29-.28.44-.07.16-.11.32-.12.46-.05.35.05.75.23,1.03.08.15.2.26.32.38.14.12.3.22.48.29.34.14.69.15.96.02.27-.13.43-.37.5-.61.1-.5-.05-.86-.17-1-.12-.16-.23-.23-.31-.2Z"/>
    <path class="h" d="m296.16,353.94c-.11.14.41.66,1.24,1.32.18.17.39.36.6.56.1.1.17.22.26.34.07.11.21.25.22.3.28.66.6,1.38.95,2.13.67,1.48,1.58,2.84,2.15,3.7.61.88,1.08,1.4,1.24,1.33.17-.07,0-.74-.42-1.77-.42-1.08-1.08-2.29-1.78-3.83-.36-.75-.71-1.46-1.05-2.1-.15-.27-.3-.35-.43-.51-.14-.14-.27-.29-.41-.39-.29-.19-.56-.38-.81-.52-1.02-.49-1.64-.68-1.75-.54Z"/>
    <path class="h" d="m315.83,329.94c.3-.21.2-1.05-.24-1.86-.49-.94-1.14-1.52-1.43-1.31-.3.21-.2,1.05.23,1.86.49.94,1.14,1.52,1.43,1.31Z"/>
    <path class="h" d="m319.17,337.77c.34-.13.03-1.26-.54-2.23-.44-1.02-1.14-1.96-1.46-1.77-.31.19-.26,1.11.28,2.36.68,1.16,1.37,1.77,1.72,1.64Z"/>
    <path class="h" d="m323.33,346.27c.32-.16.25-1-.16-1.88-.41-.87-1.01-1.45-1.34-1.29-.33.16-.25,1,.16,1.88.41.87,1.01,1.45,1.34,1.29Z"/>
    <path class="h" d="m327.33,353.44c.25-.25.02-1.05-.53-2.05-.29-.5-.67-.93-1.03-1.16-.37-.23-.66-.26-.77-.12-.12.15-.06.41.07.73.13.33.32.75.6,1.22.28.48.61.91.93,1.16.32.26.61.34.74.22Z"/>
    <path class="h" d="m332,362.77c.34-.12.33-.95-.15-1.75-.49-.8-1.28-1.18-1.51-.92-.25.28-.04.92.39,1.6.42.7.93,1.19,1.28,1.06Z"/>
    <path class="h" d="m337.5,368.94c.22-.29-.14-.99-.81-1.57-.67-.58-1.43-.85-1.69-.59-.26.25.1.96.81,1.57.71.61,1.47.88,1.69.59Z"/>
    <path class="h" d="m295,361.44c.17.1.41.03.74-.11.17-.07.37-.18.61-.34.11-.06.24-.2.37-.33.06-.06.18-.19.04-.04l.2-.17c.55-.47.78-1.02.91-1.39.12-.37.12-.66-.02-.77-.15-.11-.42-.01-.75.25-.32.24-.65.64-1.01.92l-.13.12c-.24.25-.21.23-.25.27-.06.08-.09.16-.18.25-.14.17-.29.36-.41.55-.24.38-.27.72-.11.8Z"/>
    <path class="h" d="m292,366.61c.29.22.97-.14,1.58-.87.62-.76.74-1.66.42-1.8-.35-.15-.9.3-1.44.97-.57.68-.85,1.48-.56,1.7Z"/>
    <path class="h" d="m290.5,371.61c.37-.09.56-.54.61-1.01.08-.51-.08-1.1-.45-1.16-.36-.06-.75.31-.86.99-.08.75.36,1.26.69,1.17Z"/>
    <path class="h" d="m295.5,376.94c.11-.37-.54-.92-1.42-1.55-.9-.67-1.93-.94-2.08-.62-.17.33.4,1.01,1.33,1.7.98.71,2.08.8,2.17.47Z"/>
    <path class="h" d="m297.5,378.11c.08-.36-.18-.77-.57-.92-.48-.2-.99-.1-1.09.25-.1.35.12.77.56.96.53.2,1.03.07,1.11-.29Z"/>
    <path class="h" d="m284.83,317.27c-.14.05.12.89.24,2.3.04.69.06,1.58-.3,2.38-.18.39-.43.76-.82,1.02-.38.26-.86.43-1.4.54h-.02s-.04.01-.04.01c-1.51.4-3.61.11-4.85-1.22-.59-.62-.96-1.41-1.18-2.24-.11-.42-.19-.84-.25-1.27-.02-.15-.01-.07-.02-.1v-.02s.01-.01.02-.02h.01s.17-.02.17-.02l.33-.03c.21-.04.42-.08.63-.11.42-.07.81-.16,1.18-.25.74-.19,1.42-.36,2.05-.52.62-.17,1.18-.27,1.67-.36.49-.08.92-.1,1.27-.15.69.01,1.11-.02,1.13-.11.02-.09-.36-.23-1.1-.4-.37-.03-.83-.08-1.37-.07-.53.03-1.14.07-1.78.18-.65.09-1.35.24-2.09.37-.37.07-.75.14-1.14.18-.19.03-.39.05-.59.08-.25.01-.5.02-.75.04l-.62.03-.32.02h-.08s0,.08,0,.08l.02.16c.04.4.08.8.12,1.2.05.46.13.94.25,1.43.24.97.7,2,1.47,2.81.83.9,1.96,1.42,3.03,1.62,1.08.21,2.16.15,3.12-.15h-.06c.67-.14,1.32-.4,1.85-.82.54-.42.88-1,1.07-1.54.38-1.12.22-2.1.08-2.84-.35-1.5-.85-2.24-.95-2.2Z"/>
    <path class="l" d="m241.12,322.73c-.05.07.1.3.45.63.35.32.91.77,1.76,1.1.42.18.93.28,1.48.31.27-.02.56-.04.85-.07.29-.03.56-.13.85-.2.29-.06.57-.18.86-.3.28-.12.58-.23.86-.41l.42-.26.23-.14c.1-.07.16-.16.23-.22.28-.26.48-.58.67-.91.35-.68.46-1.4.47-2.07.02-.33-.02-.66-.06-.97-.03-.15-.05-.31-.08-.46-.04-.16-.1-.32-.16-.48-.46-1.27-1.44-1.94-2.18-2.36-1.55-.82-2.58-.95-2.65-.82-.09.19.87.67,2.14,1.6.62.47,1.3,1.11,1.54,1.96.24.86.24,2.1-.2,2.99-.13.22-.25.43-.43.59-.09.14-.4.27-.6.43-.21.16-.47.26-.71.37-.24.12-.47.23-.72.3-.96.38-1.79.42-2.54.22-1.48-.39-2.37-1.03-2.48-.84Z"/>
    <path class="l" d="m242.62,319.61c-.2.37.93,1.02,1.62,1.98.19.21.39.54.57.78.18.25.34.46.46.63.25.34.4.6.6.61.09,0,.17-.08.22-.24.05-.15.11-.42.05-.69-.03-.29-.13-.6-.28-.92-.15-.32-.28-.62-.57-.98-.51-.74-1.26-1.07-1.75-1.23-.5-.12-.85-.12-.93.05Z"/>
    <path class="l" d="m244.87,317.73c-.26.27.69,1.37,1.87,2.46l.23.2s.06.05.05.04l.11.13c.15.16.28.29.4.41.25.24.45.44.6.61.3.3.32.54.49.66.08.04.19,0,.31-.2.11-.19.13-.53.03-.86-.1-.33-.28-.67-.5-.98-.11-.15-.22-.3-.34-.46l-.08-.1c-.07-.09-.13-.15-.16-.18l-.24-.22c-1.31-1.2-2.53-1.75-2.78-1.5Z"/>
    <path class="l" d="m333.62,334.23c.05-.19.04-.37-.19-.93-.03-.06-.11-.18-.11-.2,0,0,.01-.04,0-.09-.02-.11-.04-.23-.04-.38-.02-.13,0-.31,0-.47v-.28c0-.07,0-.04,0-.05l.03-.07c.34-1.31,1.23-2.36.94-2.64-.13-.13-.48,0-.95.34-.44.36-1.04,1.03-1.27,1.97l-.07.22v.25c0,.11,0,.2.02.31.02.22.04.42.1.63.04.21.12.41.23.59.05.09.09.21.21.31.09.09.1.08.16.13.19.17.4.33.57.4.22.08.33.05.37-.03Z"/>
    <path class="l" d="m330,333.98c.14-.11.13-.46.01-.88-.03-.45-.14-.95.02-1.52.33-1.14,1.04-2.24.72-2.48-.14-.12-.46.01-.87.35-.39.35-.9.93-1.14,1.82-.04.23-.06.45-.08.67,0,.22.05.43.08.63.07.39.29.69.42.93.39.42.69.59.83.48Z"/>
    <path class="l" d="m325.75,332.23c.16-.11.1-.44.16-.8.05-.36.23-.8.6-1.31.75-1.03,1.67-1.8,1.49-2.13-.14-.31-1.52-.02-2.56,1.36-.25.35-.44.75-.52,1.15-.07.41-.05.8.07,1.1.25.6.63.74.76.64Z"/>
    <path class="n" d="m250.83,283.24c2.33-7.01,7.61-7.56,10.76-6.34-.15.62-.34,1.3-.59,2.08-1.3,4.02-6.39,5.96-10.16,4.26Z"/>
    <path class="q" d="m293.62,301.73c-.15.03-.08,1.28.62,3.16.33.95.89,2,1.59,3.13.74,1.1,1.67,2.25,2.8,3.29,1.14,1.05,2.4,1.84,3.61,2.42.61.28,1.2.52,1.78.67.56.2,1.12.27,1.62.36,2.02.26,3.24-.08,3.22-.22,0-.22-1.22-.23-3.04-.7-.45-.14-.95-.25-1.45-.48-.52-.18-1.04-.44-1.59-.72-1.08-.59-2.21-1.34-3.27-2.31-1.05-.97-1.94-2.01-2.69-3-.71-1.02-1.32-1.97-1.74-2.83-.88-1.68-1.27-2.82-1.47-2.77Z"/>
    <path class="q" d="m272.37,302.98c-.12.1.27.75,1.21,1.53.95.76,2.59,1.44,4.47,1.48,1.9.07,3.48-.66,4.52-1.19,1-.66,1.52-1.17,1.42-1.31-.1-.16-.8.06-1.81.47-1.06.28-2.49.79-4.12.72-1.61-.04-3.02-.47-3.99-.95-.95-.5-1.56-.88-1.7-.74Z"/>
    <path class="l" d="m301.66,279.27c-.01.11.76.39,2.06.02.64-.18,1.41-.6,2.02-1.33.14-.2.29-.39.43-.61.09-.28.27-.57.24-.9.07-.68-.27-1.23-.58-1.73l.04.05c-.32-.55-.88-.86-1.33-1.04-.44-.17-.92-.33-1.08-.45-.02,0,.01,0-.02-.03-.02-.03-.06-.06-.05-.08-.03-.04-.01-.08-.02-.12.01-.1.14-.29.31-.46.36-.35.85-.64,1.32-.88.46-.24.99-.45,1.36-.55.4-.05.83-.08,1.18.02.71.15,1.21.6,1.52.93.33.33.51.55.6.5.07-.04.05-.33-.18-.79-.21-.45-.7-1.16-1.67-1.53-.48-.19-1.02-.24-1.63-.21-.63.11-1.13.29-1.7.53-.56.25-1.14.55-1.7,1.05-.27.27-.57.58-.7,1.13-.04.28-.04.57.07.83.04.15.11.25.18.35.08.09.16.29.3.35.61.4,1.04.47,1.42.63.38.14.61.29.73.48l.04.05c.22.33.43.66.4.93.05.15-.07.27-.06.41-.09.16-.18.32-.27.47-.41.6-.95,1-1.45,1.25-1.01.51-1.78.54-1.77.72Z"/>
    <path class="ad-ch" d="m313.33,234.44c-.07-.02-.27.36-.29,1.12,0,.74.23,1.85.95,2.99.7,1.12,1.92,2.4,3.84,2.78.98.18,2.06-.06,2.95-.72.89-.67,1.4-1.78,1.51-2.87.04-.3.04-.59.02-.89,0-.15-.03-.29-.05-.43-.02-.12-.05-.35-.05-.33-.04-.15-.03-.07-.05-.12-.05-.05-.02-.04.02-.03.02,0,0,0,.07.03.16.08.32.18.49.25.33.14.65.28.96.42,1.26.45,2.42.83,3.38.99,1.92.35,3.02.63,3.09.48.07-.13-1.01-.71-2.88-1.28-.93-.27-1.97-.72-3.15-1.22-.28-.14-.58-.29-.87-.44-.15-.07-.29-.16-.44-.25-.3-.19-.6-.38-.9-.57-.64-.39-1.27-.84-1.93-1.29-.59-.4-1.18-.81-1.79-1.23.33.47.65.95.98,1.43l.47.69.35.54.35.54c.1.16.29.41.29.49l.23.67c.1.28.07.29.1.43.01.11.04.22.04.33.01.22.01.44-.01.66-.08.81-.44,1.55-.99,1.99-.55.43-1.31.64-1.97.54-1.41-.21-2.57-1.19-3.26-2.11-.72-.93-1.06-1.86-1.2-2.51-.13-.65-.11-1.05-.22-1.07Z"/>
    <path class="ad-ch" d="m264.83,224.94c-.03-.07-.41.04-1.1.18-.17.03-.36.06-.58.1-.21.01-.45.03-.7.05-.25.02-.53,0-.82,0h-.22c-.07,0-.09-.01-.18-.03-.15-.03-.31-.06-.47-.09-1.25-.28-2.88-.61-4.11-1.69-.59-.56-1.1-1.27-1.2-2.18-.11-.44-.1-.87.03-1.26.07-.19.15-.37.27-.52l.04-.06c.07-.07.07-.05.08-.06h.04s.08-.04.08-.04l.16-.06.63-.24.32-.12c.11-.04.39-.1.57-.15l1.26-.31-.5-.14-.12-.04-.17-.06-.88-.24c-.67-.18-1.35-.36-2.04-.54-.81-.21-1.44-.39-2.16-.63-1.39-.46-2.75-1.11-3.74-2.17-1.08-1.1-1.72-2.52-1.86-3.92-.18-1.42.32-2.76.96-3.98,1.3-2.42,3.32-4.11,5.22-4.89,1.92-.76,3.69-.5,4.84-.21,1.16.29,1.8.55,1.84.45.03-.06-.52-.48-1.69-.94-1.13-.45-3.07-.92-5.31-.18-2.18.76-4.45,2.53-5.96,5.18-.18.33-.34.69-.52,1.03-.16.36-.28.75-.42,1.12-.11.39-.17.82-.24,1.24,0,.42-.06.85,0,1.28.15,1.73.93,3.44,2.19,4.72,1.22,1.29,2.82,2.01,4.29,2.49.72.23,1.54.45,2.14.6.01,0,.14,0,.07.02-.03.03,0-.03-.08.09-.22.29-.35.6-.45.91-.18.62-.16,1.28-.01,1.82.08.28.12.55.22.81.13.25.25.5.38.74.13.24.33.42.49.63l.25.3.29.24c.2.16.39.31.58.46.22.1.43.21.64.31.42.22.83.35,1.23.46.4.13.78.21,1.16.27.37.07.72.13,1.06.16.17.02.33.04.49.05.06,0,.2.03.28.01l.23-.02c.31-.03.59-.03.85-.08.26-.05.51-.1.74-.14.22-.07.42-.14.59-.2.69-.27,1.01-.51.99-.56Z"/>
    <path class="h" d="m325.5,383.27c0,.09.29.17.85.18.55-.01,1.37-.16,2.27-.57,1.8-.8,3.93-2.54,5.82-4.78.84-1.05,1.71-2.02,2.36-3.06.35-.49.6-1.03.87-1.5.24-.5.42-.99.61-1.43l-.02.04c.43-.96.76-1.79.9-2.4.12-.62.09-.97,0-.99-.1-.02-.26.29-.51.8-.28.51-.71,1.22-1.26,2.15l-.02.04c-.21.39-.44.81-.68,1.25-.29.42-.55.9-.9,1.35-.65.93-1.51,1.85-2.35,2.9-1.82,2.16-3.7,3.87-5.25,4.81-1.53.96-2.7,1-2.7,1.21Z"/>
    <path class="h" d="m287.33,385.44c-.08,0-.15.12-.22.33l-.03.1.21.12c.47.26,1.43-.01,2.16-.67.2-.16.38-.34.57-.55.05-.06.1-.12.07-.08-.02.02.08-.06.12-.09.1-.08.21-.17.31-.25.43-.34.87-.72,1.33-1.12.58-.5,1.13-1.01,1.63-1.53.46-.53.85-1.01,1.11-1.47.56-.89.71-1.56.57-1.63-.34-.16-1.75,1.75-4.15,3.61-.45.4-.88.79-1.28,1.16-.1.09-.2.19-.29.28l-.18.17c-.12.13-.14.18-.17.22-.13.19-.26.36-.4.52-.54.65-1.03.94-1.33,1,.06.08.13.15.18.22-.07-.22-.14-.33-.22-.33Z"/>
    <g>
      <path class="o" d="m272.47,259.35c-2.75-1.01-4.46,4.71-2.16,5.93,1.92,1.02,3.5-.86,3.74-2.57.17-1.22-.46-2.95-1.58-3.36Z"/>
      <path class="o" d="m272.34,259.83c-2.11-.66-2.88,2.72-2.45,4.17.17.59.63.87,1.19,1.03.89.27,1.65-.52,2.06-1.18.8-1.26.53-3.41-.92-4.08-.58-.27-.08-1.13.5-.86,4.24,1.96.31,9.72-3.2,6.38-2.08-1.98-.03-7.41,3.09-6.43.61.19.35,1.16-.27.96Z"/>
    </g>
    <g>
      <path class="o" d="m240.22,255.26c-2.75-1.01-4.46,4.71-2.16,5.93,1.92,1.02,3.5-.86,3.74-2.57.17-1.22-.46-2.95-1.58-3.36Z"/>
      <path class="o" d="m240.09,255.75c-2.11-.66-2.88,2.72-2.45,4.17.17.59.63.86,1.19,1.03.89.27,1.65-.52,2.06-1.18.8-1.26.53-3.41-.92-4.08-.58-.27-.08-1.13.5-.86,4.24,1.96.31,9.72-3.2,6.38-2.08-1.98-.03-7.41,3.09-6.43.61.19.35,1.16-.27.96Z"/>
    </g>
  </g>
  <g>
    <path class="t" d="m278.41,12.43c9.04,12.05,49.67,74,59.33,83.33,5.67,5,3.67,5.33-4,4.67s-116.33-18.67-125-22.67-7-5-11.33-17.33c-4.33-12.33-19.43-42.64-20.67-47.33-1.67-6.33,0-8.67,9-7,7.71,1.43,67,1,78.33,1.33s11.33,1,14.33,5Z"/>
    <path class="k" d="m176.75,13.1c-1.67-6.33,0-8.67,9-7,.6.11,1.5.21,2.66.3,20.43,13.07,52.42,34.03,52.42,34.03l-1.67,12.92c-4.82,4.36-27.57,17.35-35.36,21.65-3.25-2.52-3.18-5.44-6.39-14.57-4.33-12.33-19.43-42.64-20.67-47.33Z"/>
    <path class="i" d="m176.93,6.95c1.2-1.47,3.91-1.75,8.81-.85,7.71,1.43,67,1,78.33,1.33,6.18.18,8.99.46,10.75,1.33-3.4,10.08-17.43,35.1-36.5,45.42-16.75-10.47-47.36-31.12-61.4-47.24Z"/>
    <path class="g" d="m274.66,8.68c1.59.72,2.34,1.86,3.75,3.75,9.04,12.05,49.67,74,59.33,83.33,2.28,2.01,3.3,3.26,3.23,4-23.73-6.21-64.81-24.5-102.9-45.45,18.75-13.1,32.38-35.83,36.58-45.63Z"/>
    <path class="p" d="m80.31,265.51c-4.94-6.41-22.66-33.59-20.77-50.44,1.89-16.85,1.61-19.91-.69-20.94-2.3-1.03-3.89,3.39-3.89,3.39-4.52-4.01-9-3.18-12.09,8.07-3.09,11.25-4.61,55.03,21.56,75.74,11.87,2.26,15.89-15.81,15.89-15.81Z"/>
    <path class="z" d="m89.25,281.93c-2.33-4.67-10.83-14.33-13.67-14.5s-13.5,4.5-17,10.5c-1,2.17,5.83,15.17,21.5,19,7.5-7.83,9.17-15,9.17-15Z"/>
    <path class="m" d="m129.58,353.6c2,2,7.67,5.33,8.5,6.17s-6.83,18.83-9.17,18.33-13.83-9-15.33-11.17,13.33-12.17,16-13.33Z"/>
    <path class="c-ch" d="m139.7,361.31c1.79,1.5,8.04,6.59,10.29,6.84s6.5-1.12,8,5.5c1.5,6.63-3.81,11.14-4.55,14.96-.74,3.81-4.71,8.3-6.95,2.54-2.24-5.76-1.09-6.8-6.5-9.5-6.33-3.17-7.29-2.34-8.79-3.84s8.5-16.5,8.5-16.5Z"/>
    <path class="c-ch" d="m109.2,377.56c-2.12,2.12-4.87,11-7.12,16.25s-3,7.62-8.25,5.12c-5.25-2.5-11.5-4-14.12-5.5s-4.37-4,0-4.75,7.12-1.87,8.5-6.87,3.5-12.12,5-14.75,16,10.5,16,10.5Z"/>
    <path class="m" d="m134.33,318.43c3.25,6.75,10,19.5,2,31.25-6,8.81-18.5,20-24,25.5-7.75-3.5-19.75-8.25-19.75-8.25.75-3.25,6.75-16,6.75-16-5.75-4.75-11-15-12.5-25.75-.5-6,47.5-6.75,47.5-6.75Z"/>
    <path class="z" d="m128.08,278.68c-4.5-1.67-13.67-3.42-27.67-1.25-14,2.17-19,4.83-21.67,13.17s1.41,34.21,3.41,39.38c2.53,6.53,4,6.67,8.75,4.95,8.43-3.04,30.67-9.5,41-9.33,3.16.05,7.71,1.13,7.04-4.04s-7.88-24.46-7.88-24.46l-3-18.42Z"/>
    <path class="p" d="m108.47,275.11c3.01,5.68-9.34,13.17-14.65,11.71-7.25-2-7.11-7.17-8.88-11.85-1.78-4.68,23.53.14,23.53.14Z"/>
    <path class="c-ch" d="m133.1,259.85c4.26,5-2.42,19.62-15.44,12.44-13.39,10.75-41.42,11.78-58.32.43-16.9-11.35-9.41-16.97-7.17-22.94,2.23-5.97-1.24-9.57-.3-20.06.94-10.48,9.79-26.02,27.31-31.03,17.53-5.01,57.01,37.34,53.92,61.16Z"/>
    <path class="f" d="m72.07,255.15c2.5.49,6.89.48,8.76.66,1.87.18,1.96,1.96-.26,6.29-2.22,4.33-8.94,5.14-12.12,1.33-3.18-3.81-2.81-8.43-2.01-8.68.8-.25,1.7-.36,5.63.41Z"/>
    <path class="o" d="m100.99,251.69c-1.01-3.22-5.17-5.61-7.59-3.97-2.42,1.63-3.55,4.74-2.61,5.15.95.41,2.14-2.78,4.71-2.23s6.24,3.46,5.49,1.06Z"/>
    <path class="o" d="m64.26,248.91c-1.36.84-3.35-3.11-5.31-2.09-1.96,1.02-2.84,1.24-3.42.63-.58-.61,2.85-4.95,4.5-4.36,1.65.59,5.04,5.05,4.23,5.82Z"/>
    <path class="l" d="m70.88,251.54c.19.03.41-.46.83-1.1.42-.63,1.14-1.48,2.08-1.65.87-.18,1.82.5,2.52.94.71.46,1.26.66,1.36.51.1-.15-.19-.58-.76-1.22-.28-.32-.67-.69-1.2-1.05-.53-.34-1.32-.63-2.16-.47-.83.14-1.44.63-1.87,1.1-.44.49-.67,1.01-.82,1.45-.28.9-.15,1.48.01,1.5Z"/>
    <path class="y" d="m94.29,229.5c-.07.17.34.56,1.03,1.04.72.44,1.65,1.14,2.73,1.83,2.1,1.5,3.96,2.6,4.18,2.3.21-.29-1.26-1.83-3.43-3.38-1.13-.72-2.19-1.33-3.05-1.58-.84-.29-1.38-.37-1.46-.21Z"/>
    <path class="y" d="m56.29,229.59c.17.08.53-.23,1.01-.7.52-.45,1.22-1.03,2.12-1.55,1.81-1.01,3.52-1.53,3.45-1.91-.03-.33-2-.4-4.11.77-1.04.6-1.81,1.43-2.2,2.12-.37.71-.43,1.21-.27,1.28Z"/>
    <path class="n" d="m69.85,264.68c3.42-6.55,8.72-6.25,11.63-4.54-.25.59-.55,1.23-.92,1.96-1.93,3.76-7.26,4.86-10.71,2.58Z"/>
    <path class="l" d="m120.66,268.89c-.03.11.69.51,2.03.35.66-.08,1.49-.36,2.21-.99.17-.17.35-.34.52-.54.13-.27.36-.52.38-.85.18-.66-.07-1.26-.29-1.8l.03.06c-.23-.6-.73-1-1.15-1.24-.41-.24-.85-.48-1-.62-.02-.01,0,0-.01-.03-.02-.04-.04-.07-.03-.09-.02-.05,0-.08,0-.12.03-.09.19-.26.38-.4.41-.28.94-.5,1.45-.66.5-.16,1.05-.29,1.43-.33.41.01.83.06,1.16.21.68.26,1.09.79,1.36,1.16.27.38.42.62.51.59.08-.02.1-.31-.05-.81-.14-.48-.5-1.26-1.4-1.77-.44-.27-.97-.4-1.58-.47-.63,0-1.16.1-1.77.25-.59.16-1.21.36-1.85.77-.31.23-.66.48-.87,1-.09.27-.13.56-.06.84.02.15.07.26.12.37.07.1.11.31.24.39.54.5.95.63,1.3.85.35.2.55.39.65.59l.03.06c.16.36.32.72.24.98.03.15-.11.25-.13.4-.12.14-.23.29-.34.42-.5.53-1.1.84-1.64,1-1.08.34-1.84.25-1.86.43Z"/>
    <path class="c-ch" d="m140.52,286.56c5.43,1.74,17.06,4.33,21.15,17.32,4.08,12.99-1.01,27.56-1.27,29.79-.25,2.22,2.37.94,3.1,4.4.73,3.46-4.86,3.8-4.86,3.8-2.58.91-4.49-.73-4.49-.73-3.19.32-6.97-3.34-7.49-8.05-.52-4.71-.76-17.79-1.76-19.63-.99-1.84-8.15-1.52-11.24-4.12-3.08-2.6,6.85-22.78,6.85-22.78Z"/>
    <path class="z" d="m147.14,287.09c1.84,2.53,2.43,10.42-4.56,21.18-1.72,2.66-4.83,8-16.33-1-17.35-13.58-10.87-28.5.82-29.05,5.44-.26,18.71,6.99,20.08,8.87Z"/>
    <path class="l" d="m154.66,335.55c-.17.07-.13.6.07,1.42.21.81.55,1.97,1.37,3.09.2.28.41.54.65.77.12.11.21.24.38.36.12.09.25.17.37.25.23.17.49.3.72.42.23.13.46.22.69.28.22.06.42.12.6.14.19,0,.35,0,.47,0,.26-.02.39-.08.4-.17,0-.09-.1-.21-.3-.33-.1-.06-.22-.13-.35-.19-.13-.09-.27-.18-.43-.29-.16-.09-.33-.22-.51-.36-.18-.14-.37-.28-.57-.46-.1-.09-.2-.17-.3-.26-.06-.04-.15-.17-.24-.26-.19-.19-.35-.42-.53-.65-.68-.93-1.15-1.96-1.57-2.67-.41-.72-.76-1.15-.93-1.08Z"/>
    <path class="l" d="m152.35,335.44c-.18.04-.25.51-.2,1.26.05.75.22,1.79.69,2.89.5,1.11,1.34,1.96,2.06,2.34.75.33,1.25.35,1.31.19.07-.18-.28-.51-.76-.95-.46-.49-.98-1.19-1.4-2.12-.77-1.91-1.3-3.71-1.69-3.61Z"/>
    <path class="l" d="m149.69,334.01c-.34-.04-.8,1.61-.29,3.63.28.99.76,1.86,1.29,2.34.53.48.99.59,1.08.45.12-.16-.09-.51-.34-1.02-.26-.51-.51-1.26-.76-2.11-.45-1.74-.61-3.26-.99-3.29Z"/>
    <path class="ac" d="m134.25,309.1c.15.09,1.03-.97,2.31-2.81,1.26-1.84,2.97-4.45,4.29-7.68.64-1.62,1.08-3.23,1.31-4.73.24-1.5.24-2.87.16-4.01-.2-2.28-.74-3.6-.88-3.56-.21.04,0,1.41-.05,3.59-.04,1.09-.13,2.37-.42,3.77-.29,1.4-.73,2.91-1.34,4.45-1.25,3.08-2.8,5.72-3.85,7.68-1.07,1.95-1.68,3.2-1.52,3.3Z"/>
    <path class="r" d="m105.58,195.18c12.5-1.5,24.75-5.5,26-22,1.25-16.5,2.4-18.88-7-17-13.75,2.75-42.5,11-30,37.5,4.75,8.75,11,1.5,11,1.5Z"/>
    <path class="r" d="m145.08,213.68c-.5-7.75,2.25-17.75,14.25-22,12-4.25,27.75,3.25,33.75,5.75s3.5,3.5-3,13.75c-6.5,10.25-25.75,26.75-43.5,8-1-2.75-1.5-5.5-1.5-5.5Z"/>
    <path class="f" d="m145.33,223.18c4.25-1,5.5-4.5,2.25-9s-6.75-.25-6.75-.25l4.5,9.25Z"/>
    <path class="r" d="m133.83,261.18c-1-3-6.67-7.75-13.08-.83-1.92,2.07-4.17,1.33-4.42-2.67s-2.75-16.25,1-23.5c-15.75-7.25-32.5-22.5-36.25-30-13.5,4.25-24.58,13.42-28.33,21.42-2,2.75-.75-9.08,6.5-18.33,7.25-9.25,27.08-17.33,46.33-14.08s40.25,18,42,34.75-4.5,27.75-13.75,33.25Z"/>
    <path class="ac" d="m134.91,311.27c.08-.24-2.21-.79-5.19-2.93-1.49-1.05-3.12-2.51-4.82-4.26-1.69-1.75-3.43-3.78-4.85-6.16-.74-1.2-1.28-2.35-1.55-3.6-.29-1.24-.37-2.49-.33-3.68.05-2.38.63-4.5,1.3-6.17,1.36-3.41,3.42-4.68,3.26-4.87-.03-.04-.16.01-.41.15-.25.14-.62.34-1.01.71-.82.68-1.86,1.89-2.7,3.63-.82,1.73-1.54,3.95-1.66,6.5-.08,1.27-.02,2.63.28,4.01.06.35.16.69.27,1.04.1.35.22.69.38,1.03.27.71.67,1.28,1.03,1.93,1.5,2.51,3.34,4.6,5.12,6.34,1.78,1.74,3.54,3.18,5.16,4.18,1.61,1.03,3.07,1.55,4.08,1.88,1.03.26,1.6.36,1.63.27Z"/>
    <path class="ac" d="m87.58,289.6c-.09.11.93,1.19,3.07,2.24.54.24,1.13.54,1.81.72.34.1.68.22,1.05.31.37.07.75.13,1.15.2,1.57.19,3.4.23,5.18-.46,3.52-1.3,5.86-3.76,7.35-5.51,1.49-1.8,2.2-3.06,2.07-3.16-.16-.12-1.12.93-2.75,2.53-1.62,1.56-3.97,3.76-7.11,4.91-1.53.6-3.16.6-4.59.5-.36-.04-.71-.09-1.06-.13-.34-.07-.66-.16-.98-.23-.64-.12-1.21-.35-1.74-.52-2.1-.78-3.3-1.56-3.43-1.38Z"/>
    <path class="ac" d="m78.16,305.65c.17.01.42-1.34.55-3.53.16-2.19.17-5.21.48-8.47.19-1.62.41-3.16.79-4.51.35-1.35.84-2.54,1.2-3.57.79-2.04,1.04-3.43.89-3.46-.2-.06-.75,1.15-1.75,3.1-.47.99-1.06,2.17-1.51,3.6-.47,1.42-.74,3.03-.94,4.71-.32,3.38-.18,6.41-.1,8.59.11,2.18.18,3.53.38,3.54Z"/>
    <path class="s" d="m114.08,376.27c1.63-1.84,0-3.17-4-5.67-4-2.5-17.33-7.17-18.67-7.33s-1.83,3.33-2,5.5,1.67,1.79,8.17,4.83c4.44,2.08,8.67,3.67,10.67,5.33s3.17.33,5.83-2.67Z"/>
    <path class="s" d="m142.25,359.77c.17,4-.5,16.33-9.5,21.33-1.33.5-2.83,0-4.33-.5s-4.5-2.5-2.83-3.17,5.58-3.79,7.75-8.62,2.58-11.04,3.58-11.54,5.17,1,5.33,2.5Z"/>
    <path class="b-ch" d="m110.08,371.06c.07.05.61-.46,1.51-1.42.47-.46.95-1.11,1.66-1.72.68-.64,1.45-1.37,2.3-2.17.89-.79,1.87-1.65,2.92-2.58.52-.47,1.06-.95,1.62-1.45.56-.5,1.07-1.07,1.63-1.62,2.19-2.25,4.55-4.81,6.72-7.76,2.16-2.95,3.92-6.03,4.99-9.04,1.19-2.99,1.5-5.98,1.26-8.38-.16-2.4-.58-4.31-.99-5.59-.45-1.27-.79-1.93-.87-1.9-.09.04.08.75.37,2.03.24,1.29.52,3.16.56,5.5.11,2.32-.26,5.07-1.46,7.89-1.09,2.88-2.81,5.83-4.92,8.7-2.11,2.88-4.41,5.42-6.54,7.7-.54.56-1.04,1.14-1.58,1.64-.54.51-1.05,1-1.56,1.48-1,.96-1.93,1.85-2.78,2.67-.82.87-1.56,1.67-2.21,2.36-.67.67-1.1,1.38-1.52,1.9-.79,1.08-1.19,1.69-1.12,1.75Z"/>
    <path class="b-ch" d="m121.58,329.18c-.16.03-.2,1.05.12,2.68.18.81.43,1.78.92,2.79.44,1.03,1.17,2.09,2.19,2.98,2.13,1.7,4.73,2.05,6.46,1.44.81-.36,1.36-.75,1.71-1.06.35-.31.52-.51.47-.59-.1-.19-1.03.34-2.46.75-.36.04-.72.14-1.17.07-.21-.02-.44-.02-.66-.05-.22-.05-.46-.11-.69-.17-.24-.04-.47-.14-.71-.24-.24-.1-.49-.17-.73-.31-.24-.12-.49-.25-.74-.37-.21-.16-.42-.33-.63-.5-.82-.73-1.5-1.61-1.96-2.52-.5-.88-.83-1.76-1.11-2.5-.54-1.49-.83-2.46-1.02-2.42Z"/>
    <path class="aa" d="m98.15,353.67c.09.03.27-.19.53-.6.24-.42.62-1,1.09-1.72.5-.72,1.09-1.58,1.75-2.53.64-.96,1.29-2.01,2.04-3.12,1.47-2.18,3.03-3.94,4.14-5.33,1.09-1.38,1.69-2.3,1.55-2.42-.14-.12-.98.58-2.24,1.79-1.26,1.19-3.03,2.96-4.55,5.22-.75,1.1-1.41,2.23-2,3.24-.58.97-1.11,1.88-1.51,2.68-.39.81-.66,1.48-.76,1.99-.12.49-.15.77-.06.8Z"/>
    <path class="aa" d="m115.95,371.44c.13.13,1.16-.71,2.73-2.17.77-.74,1.69-1.62,2.72-2.6,1.04-.95,2.17-2.01,3.35-3.14,4.79-4.53,8.19-8.59,7.96-8.84-.27-.28-4.13,3.39-8.85,7.86-1.18,1.14-2.31,2.24-3.31,3.25-.99,1.02-1.82,2-2.52,2.81-1.4,1.63-2.2,2.71-2.07,2.84Z"/>
    <path class="b-ch" d="m94.79,341.85c.09.13.62-.1.97-.85.33-.73.41-1.78.35-2.83-.06-.99-.07-2-.36-2.74-.07-.18-.13-.34-.21-.47-.1-.13-.19-.24-.27-.32-.16-.16-.28-.21-.36-.16s-.1.19-.1.39c0,.1,0,.2.03.32,0,.13,0,.27,0,.43.02.61-.1,1.52-.04,2.62.06,1.04.11,1.91.07,2.52-.05.59-.21.94-.07,1.1Z"/>
    <path class="x" d="m79.7,388.68c1.19-.2,2.25-.44,3.21-.77.66.68,1.42,1.47,2.04,2.14,1.37,1.5,3.25,2,3.75.63.35-.97-1.84-3.06-3.17-4.2.82-.7,1.5-1.63,2.05-2.88,3.46.2,5.11,5.37,6.25,8.09,1.06,2.54,5.86,1.77,8.08,2.53-2.12,4.96-2.97,7.15-8.08,4.72-5.25-2.5-11.5-4-14.12-5.5s-4.37-4,0-4.75Z"/>
    <path class="x" d="m142.49,383.06c.33-.92.36-1.49,1.82-2.88,3.1-2.94,6.12.83,7.38-1.04,1.18-1.74,2.89-7.51,1.08-10.95,2.13.05,5.4,1.31,6.42,4.49.87,2.71-3.13,14-5.43,18.25-1.85,3.41-5.37,6.97-7.61,1.21-.39-.99-.43-2.57-.83-3.46,4.42.54,5.26-2.86,4.67-4.04-.59-1.19-2.01-2.21-4.05-.8-1.16.79-1.32.97-1.7,1.72-.57-.98-1.03-1.69-1.75-2.5Z"/>
    <path class="ab" d="m238.25,54.27c-5.9,21.62-24.26,36.78-45.29,43.36-14.96,4.68-30.89,6.37-46.39,8.23-21.08,2.53-38.95,8.85-54.2,23.86-12.32,12.13-22.19,26.62-29.62,42.2-5.71,11.97-10.01,25.26-12.86,38.18-2.82,12.78-8.43,24.09-12.44,36.48-2.79,8.63-3.85,16.25-3.88,25.36-.04,14.74,2.28,40.06,16,49"/>
    <path class="p" d="m51.97,195.7c3.2,1.44,5.96,6.65,4.34,11.56-1.61,4.91-6.12,7.15-9.74,4.39-3.62-2.76-.4-18.61,5.4-15.95Z"/>
    <path class="l" d="m45.59,211.08c-.04.08.22.31.75.63.53.32,1.33.73,2.42,1.04,1.08.29,2.55.5,4.07-.13,1.49-.62,2.75-1.96,3.5-3.55.75-1.6,1.09-3.28.93-4.83-.13-1.52-.53-2.77-.86-3.81-.15-.52-.37-.99-.58-1.4-.1-.2-.2-.39-.29-.56-.12-.15-.23-.29-.33-.41-.41-.48-.67-.71-.74-.65-.18.15.63,1.2,1.04,3.26.21,1.05.5,2.3.55,3.64.08,1.3-.25,2.8-.91,4.18-.66,1.38-1.67,2.48-2.81,3.01-1.13.55-2.38.49-3.38.34-2.03-.38-3.29-.97-3.37-.76Z"/>
    <path class="l" d="m48.91,206.47c-.02.19.44.39,1.15.65.71.27,1.71.57,2.6,1.1.15.1.3.2.44.3.11.11.23.22.35.32l.03.04c.48.47.62,1.02.59,1.48-.03.45-.15.77-.02.87.1.08.46-.06.78-.64.14-.29.25-.7.2-1.17-.06-.47-.27-.97-.63-1.39l.03.04c-.16-.18-.33-.36-.5-.54-.19-.15-.39-.29-.6-.43-1.16-.67-2.3-.83-3.1-.88-.81-.03-1.31.09-1.33.27Z"/>
    <path class="l" d="m47.86,201.67c.02.2.56.31,1.35.64.8.33,1.88.89,3.06,1.57,1.19.69,2.2,1.32,2.75,1.92.57.57.71,1.1.91,1.1.16.03.38-.7-.15-1.64-.5-.94-1.61-1.81-2.84-2.52-1.24-.72-2.51-1.21-3.49-1.34-.99-.13-1.61.1-1.59.26Z"/>
    <path class="l" d="m50.65,198.9c-.15.37,1.51,1.15,3.25,2.22.86.55,1.52,1.14,1.92,1.64.41.5.64.89.83.85.16-.03.27-.54-.02-1.31-.27-.77-1.02-1.67-2.02-2.29-1-.63-1.98-.96-2.7-1.13-.72-.16-1.2-.16-1.26.01Z"/>
    <path class="y" d="m88.29,193.19c.03.41,5.24.06,11.57.08,3.17.04,6.01.34,8.08.59,2.05.32,3.34.51,3.39.32.05-.16-1.16-.68-3.22-1.24-2.06-.5-4.99-.95-8.23-1-3.24-.03-6.15.23-8.24.5-2.09.28-3.37.56-3.35.74Z"/>
    <path class="y" d="m81.08,204.1c.04.08.36-.04.91-.33.52-.32,1.2-.89,1.99-1.54.41-.3.84-.63,1.37-.95.52-.32,1.04-.71,1.64-1.03.6-.32,1.22-.68,1.88-1.01.68-.3,1.37-.64,2.09-.95,2.91-1.22,5.7-1.98,7.71-2.55,2.02-.58,3.28-.94,3.24-1.13-.03-.17-1.35-.12-3.44.22-2.09.34-4.99.98-8.02,2.24-.75.32-1.47.68-2.17,1.01-.68.36-1.32.77-1.93,1.13-.61.37-1.12.81-1.64,1.18-.51.36-.96.77-1.36,1.15-.76.78-1.29,1.41-1.69,1.83-.41.39-.63.65-.58.73Z"/>
    <path class="y" d="m124.75,230.1c.02-.1-.62-.35-1.75-.83-.57-.25-1.26-.56-2.06-.92-.4-.18-.84-.37-1.31-.55-.23-.09-.46-.19-.7-.28-.23-.11-.48-.23-.72-.35-1.99-.98-4.41-2.07-7.01-3.38-2.59-1.33-5.43-2.87-8.28-4.62-2.84-1.74-5.28-3.85-7.49-5.73-2.11-1.98-3.91-3.89-5.18-5.66-1.29-1.77-2.21-3.32-2.92-4.34-.72-1.02-1.15-1.56-1.23-1.51-.08.05.21.68.79,1.78.58,1.1,1.37,2.71,2.6,4.61,1.22,1.91,3,3.93,5.12,6.02,2.22,1.98,4.66,4.14,7.61,5.95,2.92,1.79,5.79,3.31,8.46,4.6,2.67,1.26,5.12,2.25,7.17,3.13.26.11.51.21.76.32.26.09.5.17.75.25.47.15.91.3,1.33.45.83.3,1.56.53,2.16.71,1.21.34,1.91.42,1.93.34Z"/>
    <path class="y" d="m107.25,214.44c.19-.34-3.38-2.75-7.77-5.78-4.39-3.05-8.21-5.19-8.39-4.89-.2.32,3.25,2.92,7.65,5.97,4.42,3.05,8.36,4.99,8.52,4.69Z"/>
    <path class="y" d="m67.58,204.1c.08.17,1.03-.04,2.5-.5.74-.2,1.63-.44,2.61-.7.98-.26,2.08-.49,3.21-.78,1.14-.21,2.25-.53,3.22-.66.97-.17,1.9-.23,2.68-.37.39-.07.74-.13,1.05-.19.31-.09.57-.18.79-.26.42-.16.64-.29.61-.38-.02-.09-.28-.13-.71-.13-.22,0-.47.02-.77.03-.31,0-.65,0-1.04,0-.77.02-1.69-.02-2.77.09-1.07.07-2.16.36-3.35.57-1.16.3-2.27.57-3.26.9-.98.36-1.87.66-2.58.99-1.42.7-2.25,1.21-2.18,1.37Z"/>
  </g>
</svg>