<?xml version="1.0" encoding="UTF-8"?>
<svg id="a" data-name="Layer 1" xmlns="http://www.w3.org/2000/svg" viewBox="0 0 833.18 772.24">
  <defs>
    <style>
      .b {
        fill: #ffa55c;
      }

      .c {
        fill: #f7cb9c;
      }

      .d {
        fill: #dc343d;
        opacity: .58;
      }

      .e {
        fill: #a66128;
      }

      .f, .g, .h {
        fill: #fff;
      }

      .i {
        fill: #61828f;
      }

      .j {
        opacity: .31;
      }

      .j, .k, .l {
        fill: #dc5a36;
      }

      .m {
        fill: #7878ab;
        opacity: .2;
      }

      .k {
        opacity: .54;
      }

      .n {
        fill: #e56c50;
      }

      .g {
        opacity: .56;
      }

      .o {
        fill: #ee4a51;
      }

      .h {
        opacity: .48;
      }

      .p {
        fill: #c0dae0;
      }

      .q {
        fill: #fba37d;
      }

      .r {
        fill: #e8955d;
      }

      .s {
        fill: #42210b;
      }

      .t {
        fill: #e5634d;
      }

      .u {
        fill: #fc5158;
      }

      .v {
        fill: #ff6268;
      }

      .w {
        fill: #a3487e;
      }

      .x {
        opacity: .1;
      }

      .y {
        fill: #ffc9ac;
      }

      .z {
        fill: #fa7f72;
      }

      .aa {
        fill: #c5c748;
      }

      .ab {
        fill: #ff888c;
      }

      .ac {
        fill: #a1b633;
      }

      .ad {
        fill: #6e4620;
      }

      .ae {
        fill: #865555;
      }

      .af {
        fill: #ed894b;
      }

      .ag {
        fill: #0b8e36;
      }

      .ah {
        fill: #526f7a;
      }

      .ai {
        fill: #8c3831;
        opacity: .72;
      }

      .aj {
        fill: #ee934c;
      }

      .l {
        opacity: .15;
      }

      .ak {
        fill: #fcb180;
      }

      .al {
        fill: #fbebd9;
      }

      .am {
        fill: #874b1b;
      }

      .an {
        fill: #af6191;
      }
    </style>
  </defs>
  <path class="x" d="m195.54,715.39s34.42,11.67,13.52,24.25c-32.24,19.41-89.29,8.93-89.29,8.93l75.77-33.18Z"/>
  <path class="al" d="m9.33,636.14s16.85-22.57,40.15-28.8c15.11-4.04,41.43-4.48,67.59-4.5,31.26-.03,62.47,1.63,76.62,13.22,13.4,10.98,15.99,28.52,17.32,45.25,1.79,22.49-2.63,45.45-6.03,50.57-10.99,16.57-28.88,24.12-28.88,24.12l-2.32-93.23-164.44-6.63Z"/>
  <path class="f" d="m12.06,633.27c10.75-9.36,44.6-12.49,79.05-12.12,33.99.37,68.26,3.78,82.63,14.6,11.36,8.55,10.47,29.98,10.44,52.83-.03,23.41-.44,39.37-7.63,47.98-7.48,8.96-40.98,11.76-76.09,12.09-36.12.34-73.93-2.05-84.91-10.94-8.1-6.56-10.7-18.24-12.34-46.24-1.81-30.71-4.46-46.61,8.86-58.2Z"/>
  <path class="ag" d="m90.76,711.8c-4.33,0-7.86-3.5-7.89-7.84l-.23-35.62c-.03-4.36,3.48-7.91,7.84-7.94,4.33-.02,7.91,3.48,7.94,7.84l.23,35.62c.03,4.36-3.48,7.91-7.84,7.94h-.05Z"/>
  <g>
    <path class="x" d="m518.74,725.33c-3.52,11.88-20.26,11.88-20.26,11.88,0,0-31.34,58.74-125.72,24.08-53.03-19.48-67.78-63.58-67.78-63.58,0,0,217.28,15.74,213.76,27.62Z"/>
    <path class="c" d="m536,425.96l5.06-14.01s-4.89-4.4-6.43-9.34c-1.54-4.94-1.97-10.92,1.22-18.01,2.11-4.67,6.32-9.06,9.79-10.99,4.06-2.25,7.25-1.62,7.25-1.62,0,0,2.92-8.55,6.98-14.49,4.39-6.41,7.82-10.04,10.22-8.57,2.4,1.47-.22,6.44-2.44,13.14-2.22,6.7-1.67,9.97-1.67,9.97,0,0,4.11-1.01,6.33.83,2.21,1.85,2.22,4.82,2.22,4.82,0,0,3.43-1.08,5.42.06,1.99,1.14,2.45,5.91,2.45,5.91,0,0,4.23-1.05,4.87,1.99.95,4.55-3.68,10.38-3.68,10.38,0,0-2.65,12.08-7.86,17.7-5.21,5.62-12.99,4.77-12.99,4.77l-7.05,15.2-19.68-7.75Z"/>
    <ellipse class="w" cx="582.87" cy="557.22" rx="17.19" ry="17.99"/>
    <path class="ac" d="m305.54,666.38c-15.74,13.09-41.23,46.29-31.31,56.62,8.53,8.89,25.16-8.88,37.44-18.38,11-8.51,15.75-6.69,17.06-11.49,1.31-4.8,4.83-14.53,4.83-14.53,0,0-12.28-25.31-28.02-12.22Z"/>
    <path class="f" d="m412.87,414.13s4.4-2.35,6.86.09c2.46,2.45,3.01,11.75,3.01,11.75,0,0,8.21,6.94,17.97,14.68,19.37,15.37,42.2,41.53,55.39,37.7,9.11-2.65,36.26-57.43,36.26-57.43l28.4,14.19s-13.57,63.59-40.84,95.71c-21.57,25.41-42.81,8.14-42.81,8.14,0,0,9.59,16.95,19.83,37.45,10.12,20.24,17.97,37.73,17.97,37.73,0,0-15.82,9.62-34.04,13.63-18.23,4-26.7,4.99-26.7,4.99,0,0-24.88-127.66-35.76-182.2-5.78-28.95-5.54-36.42-5.54-36.42Z"/>
    <path class="ah" d="m477.11,605.1s29.71,16.4,47.13,42c22.93,33.68,14.44,59.98,3.8,70.9-15.11,15.51-37.87,15.81-37.87,15.81,0,0-15.94,26.75-58.34,25.61-66.65-1.8-108.24-57.89-108.24-57.89,0,0-4.23-4.04-3.16-11.8.91-6.64,7.08-10.87,7.08-10.87,0,0-15.21-9.03-21.64-27.08-10.01-28.11,7.85-43.88,7.85-43.88l163.39-2.79Z"/>
    <path class="i" d="m490.73,734.54c-.3,0-.61-.08-.89-.25-.8-.49-1.04-1.53-.55-2.33,12.9-20.95,14.49-66.94-36.13-101.16-.77-.52-.98-1.57-.45-2.35.52-.78,1.58-.98,2.35-.45,29.82,20.16,40.09,43.11,43.45,58.81,4.29,20.05-.46,37.38-6.33,46.92-.32.52-.87.8-1.44.8Z"/>
    <path class="m" d="m471.05,612.36s-16.88,20.4-46.62,24.95c-27.78,4.26-29.22-9.98-29.22-9.98l75.84-14.97Z"/>
    <path class="m" d="m348.07,661.78s-8.63,3.47-22.14,2.15c-12.22-1.19-16.22-4.15-16.22-4.15,0,0-.4-.25-1.39-2.25-.99-2-1.91-4.42-1.91-4.42l41.66,8.67Z"/>
    <path class="aa" d="m366.27,427.71s20.18,6.37,32.72,5.54c13.29-.87,17.55-5.66,17.55-5.66,0,0,2.62.84,13.07,20.54,10.45,19.69,25.41,57.55,25.41,57.55,0,0,33.37,71.75,24.85,95.28-5.18,14.3-33.82,30.79-109.81,28.23-27.29-.92-53.5-8.76-61.9-29.62-19.65-48.78,58.11-171.86,58.11-171.86Z"/>
    <path class="c" d="m364.38,397.87s2.32,5.62,2.57,12.6c.24,6.98-2.12,17.2-2.12,17.2,0,0,13.66,7.79,33.73,6.35,14.43-1.03,17.96-6.3,17.96-6.3,0,0-2.2-8.96-2.74-16.15-.55-7.19.92-14.19.92-14.19l-50.31.48Z"/>
    <path class="c" d="m501.76,221.89s11.68,1.63,17.41,14.12c11.9,25.92-4.02,39.2-4.02,39.2,0,0-7.7-13.47-11.05-26.8-3.35-13.33-2.35-26.53-2.35-26.53Z"/>
    <path class="c" d="m477.17,171.18s5.85-1.24,12.98,15.56c7.13,16.8,12.52,34.99,15.54,51.65,2.72,14.96,14.81,36.67,9.77,76.61-6.08,48.2-63.46,98.15-159.72,84.25-45.47-6.57-70.08-32.82-70.08-32.82,0,0-10.78,12.97-34.12,5.88-25.74-7.82-29.53-41.64-14.55-55.06,15.96-14.3,35.27-8.69,35.27-8.69,0,0-35.74-82.95,36.39-137.04,71.36-53.52,168.52-.33,168.52-.33Z"/>
    <path class="e" d="m496.01,144.21c-1.31,10.51-17.42,8.71-17.42,8.71,0,0,11.76,13.32,3.68,22.47-7.97,9.03-39.67,12.01-39.67,12.01,0,0,5.47,3.94-5.6,13.49-6.58,5.69-29.92,15.05-61.75,9.73-36.2-6.06-53.68-20.49-53.68-20.49,0,0,1.73,19.94-8.21,39.71-14.18,28.21-36.89,35.54-36.89,35.54,0,0,4.52,6.57,4.01,17.57-.51,11.01-7.73,25.64-7.73,25.64,0,0-10.56-3.39-23.67,1.39-9.91,3.62-16.52,11.89-16.52,11.89,0,0-8.73-4.94-16.96-14.09-12.54-13.93-11.67-25.96-11.67-25.96,0,0-11.43,2.2-18.95-17.62-11.13-29.3,3.63-65.78,3.63-65.78,0,0-10.02-7.09-4.64-22.29,19.85-56.13,82.48-64.46,82.48-64.46,0,0,37.12-45.12,104.39-41.66,85.32,4.39,127.26,57.42,125.17,74.18Z"/>
    <g>
      <path class="am" d="m479.78,157.48c-.69,0-1.38-.29-1.87-.85-6.38-7.36-20.88-13.51-31.91-15.78-1.34-.27-2.2-1.58-1.92-2.92.27-1.33,1.57-2.2,2.92-1.92,11.47,2.36,27.21,8.8,34.64,17.38.89,1.03.78,2.59-.25,3.48-.47.41-1.04.6-1.62.6Z"/>
      <path class="am" d="m442.89,190.39c-.57,0-1.15-.2-1.61-.6-1.33-1.15-3.51-1.45-6.51-1.85-2.42-.33-5.42-.74-8.9-1.74-8.04-2.33-15.3-6.07-15.6-6.23-1.21-.63-1.68-2.12-1.06-3.33.63-1.21,2.11-1.68,3.33-1.06.07.04,7.15,3.67,14.71,5.87,3.13.91,5.82,1.27,8.19,1.59,3.56.48,6.63.9,9.07,3.01,1.03.89,1.15,2.45.26,3.48-.49.57-1.18.86-1.87.86Z"/>
      <path class="am" d="m187.51,204.12c-.31,0-.62-.06-.92-.18-1.27-.51-1.88-1.95-1.37-3.21.13-.31,3.15-7.77,7.68-12.97.9-1.03,2.46-1.13,3.48-.24,1.03.9,1.14,2.46.24,3.48-3.99,4.57-6.79,11.49-6.82,11.56-.39.96-1.31,1.55-2.29,1.55Z"/>
      <path class="am" d="m204.31,286.96c-1.23,0-2.29-.91-2.45-2.16-.04-.32-.98-7.94.62-14.5.32-1.33,1.66-2.14,2.98-1.82,1.33.32,2.14,1.66,1.82,2.98-1.38,5.68-.53,12.64-.52,12.71.17,1.35-.79,2.59-2.14,2.76-.11.01-.21.02-.31.02Z"/>
      <path class="am" d="m274.15,168.85c-1.34,0-2.44-1.07-2.47-2.42-.02-.73.11-7.31,9.3-13.81,1.11-.79,2.65-.53,3.44.59.79,1.11.52,2.65-.59,3.44-6.99,4.95-7.21,9.62-7.21,9.67.03,1.36-1.05,2.49-2.41,2.52-.02,0-.04,0-.05,0Z"/>
      <path class="am" d="m230.46,193.09s-.09,0-.14,0c-1.36-.07-2.41-1.24-2.33-2.6.02-.4.62-9.85,8.82-15.28,1.14-.75,2.67-.44,3.42.69.75,1.14.44,2.67-.69,3.42-6.15,4.07-6.61,11.36-6.61,11.43-.07,1.32-1.16,2.34-2.46,2.34Z"/>
      <path class="am" d="m253.4,229.7c-1.18,0-2.23-.84-2.43-2.05-.04-.22-.87-5.56,3.08-11.65.74-1.14,2.27-1.47,3.42-.73,1.14.74,1.47,2.27.73,3.42-2.85,4.4-2.37,8.02-2.35,8.17.19,1.34-.72,2.6-2.06,2.81-.13.02-.26.03-.39.03Z"/>
    </g>
    <path class="n" d="m413.12,341.85c-6.07,12.61,11.39,21.37,26.69,16.69,14.65-4.49,20.22-21.25,12.3-25.28-7.93-4.03-12.53,3.21-17.19,3.88-6.27.9-18.14-2.87-21.8,4.72Z"/>
    <path class="r" d="m326.2,340.58c.44-5.09,6.82-8.7,14.25-8.06,7.43.64,13.09,5.29,12.65,10.38-.44,5.09-6.82,8.7-14.25,8.06-7.43-.64-13.09-5.29-12.65-10.38Z"/>
    <path class="r" d="m515.81,279.33s-9.58,3.5-8.47,11c1.19,8.01,9.26,7.52,9.26,7.52,0,0,.31-3.63.12-8.26-.2-4.63-.91-10.26-.91-10.26Z"/>
    <path class="r" d="m292.54,373.98c-.31,0-.63-.09-.91-.26-.31-.2-7.73-5.01-12.71-15.96-.39-.85-.01-1.85.84-2.24.85-.39,1.85-.01,2.24.84,4.57,10.05,11.38,14.47,11.45,14.51.79.5,1.02,1.55.52,2.34-.32.51-.87.78-1.43.78Z"/>
    <path class="f" d="m442.8,333.26s1.86,9.05-8.55,10.09c-9.6.96-9.7-6.27-9.7-6.27,0,0,1.93-.07,4.73.05,1.7.07,4.03.39,5.92,0,1.74-.36,3.12-1.44,4.3-2.13,1.99-1.17,3.3-1.74,3.3-1.74Z"/>
    <path class="z" d="m444.93,356.03s-3.85-7.11-9.14-7.34c-3.52-.15-4.77,1.66-4.77,1.66,0,0-1.74-2.93-6.7-3-5.17-.08-9.83,5.8-9.83,5.8,0,0,4.21,5.12,11.77,6.19,12.51,1.77,18.68-3.31,18.68-3.31Z"/>
    <path class="w" d="m259.22,331.93c-11.64-.65-12.55,19.71.39,19.42,10.53-.24,11.26-18.77-.39-19.42Z"/>
    <path class="am" d="m349.23,108.2s-58.38,22.49-82.43,14.04c-11.18-3.93,1.82-15.21,1.82-15.21l80.62,1.17Z"/>
    <path class="c" d="m537.43,558.53l5.26-2.11s1.67-3.76,5.55-7.58c3.88-3.82,11.69-5.84,11.69-5.84,0,0,5.82-6.14,13.23-6.88,7.79-.78,16.96,4.75,16.78,7.63-.2,3.24-5.59,1.2-11.49,2.88-5.33,1.52-10.94,5.71-9.06,11.94,2.26,7.49,10.69,8.38,16.09,7.26,7.16-1.49,11.65-5.89,13.32-3.52,1.67,2.36-5.93,12.04-5.93,12.04,0,0-1.44,3.52-4.9,6.44-3.46,2.92-9.86,4.23-9.86,4.23,0,0-4.3,3.84-12.48,3.33-9.64-.59-19.86-8.77-19.86-8.77l-8.07-.34-.27-20.72Z"/>
    <g>
      <path class="r" d="m550.6,407.02c-.32,0-.63-.13-.86-.39-.41-.47-.35-1.18.12-1.59.04-.03,4.18-3.7,3.62-9.24-.6-5.86-4.61-11.42-4.65-11.48-.35-.48-.27-1.14.18-1.52.45-.38,1.11-.36,1.53.06,1.29,1.29,5.37,4.63,7.17,3.05.57-.5.86-1.23.86-2.18.02-2.56-1.96-6.22-4.71-8.7-.46-.42-.5-1.13-.08-1.59.42-.46,1.13-.5,1.59-.08,3.24,2.92,5.48,7.2,5.46,10.39-.01,1.6-.58,2.94-1.63,3.86-1.71,1.5-3.89,1.08-5.81.13,1.04,2.2,2.04,4.96,2.34,7.84.69,6.74-4.18,11.01-4.39,11.18-.21.18-.47.27-.73.27Z"/>
      <path class="r" d="m578.52,398.71c-.31,0-.62-.03-.91-.11-1.46-.37-2.3-1.81-2.75-3.04-1.42.94-3.44,1.51-5.53.17-1.84-1.18-1.94-3.4-1.55-5.4-1.23.79-2.63,1.39-3.89,1.2-.73-.11-1.73-.51-2.39-1.84-1.7-3.43,2.99-13.81,3.95-15.86.26-.56.94-.81,1.5-.54.56.26.81.94.54,1.5-2.19,4.68-4.87,12.09-3.97,13.9.24.48.49.58.69.61,1.3.18,3.81-1.8,5.18-3.28.38-.41,1.01-.47,1.47-.15.46.32.61.94.35,1.44-.88,1.71-2.19,5.54-.68,6.52,2.05,1.31,3.86-.79,4.06-1.04.28-.35.75-.49,1.17-.37.43.12.75.48.82.92.18,1.17.82,2.89,1.56,3.08.99.25,2.71-.63,3.56-1.24.51-.36,1.21-.25,1.57.26.36.5.25,1.21-.25,1.57-.27.2-2.43,1.71-4.52,1.71Z"/>
      <path class="r" d="m570.19,388.02c-.23,0-.45-.07-.65-.21-.51-.36-.63-1.06-.27-1.57.03-.04,3.02-4.28,3.86-7.34.17-.6.78-.95,1.39-.79.6.17.95.79.79,1.39-.95,3.44-4.07,7.86-4.2,8.05-.22.31-.57.47-.92.47Z"/>
      <path class="r" d="m576.15,394.43c-.32,0-.64-.13-.86-.4-.4-.47-.35-1.19.13-1.59,3.38-2.88,5.59-8.46,5.61-8.52.23-.58.88-.87,1.46-.64.58.23.87.88.64,1.46-.1.25-2.44,6.17-6.25,9.41-.21.18-.47.27-.73.27Z"/>
      <path class="r" d="m582.5,579.34c-.09,0-.15,0-.17,0-.62-.03-1.1-.55-1.08-1.17.03-.62.56-1.09,1.17-1.08.04,0,4.21.1,9.71-3.32.53-.33,1.22-.17,1.55.36.33.53.17,1.22-.36,1.55-5.58,3.47-9.93,3.67-10.83,3.67Z"/>
    </g>
    <path class="i" d="m403.72,723.41s-.09,0-.14,0c-25.45-2.04-76.77-43.27-78.94-45.02-.73-.59-.84-1.65-.25-2.38.59-.73,1.65-.84,2.38-.25.52.42,52.67,42.33,77.09,44.28.93.07,1.62.89,1.55,1.82-.07.88-.81,1.56-1.68,1.56Z"/>
    <path class="f" d="m538.2,553.65l-.6,37.24s-28.79,6.17-73.92,2.68c-29.28-2.27-45.32-6.13-45.32-6.13,0,0-.56,15.14-2.58,34.33-2.01,19.19-5.47,42.42-5.47,42.42,0,0-28.99,4.98-88.57-6.41-38.93-7.45-56.31-26.48-56.31-26.48,0,0,11.33-23.2,22.45-56,11.12-32.8,19.66-58.78,19.66-58.78,0,0,.55-26.47,12.12-50.59,15.76-32.84,39.37-40.72,39.37-40.72,0,0,1.67-11.3,6.44-11.61,3.22-.21,5,.87,15.9,2.64,8.76,1.42,12.02-.1,15.26,2.3,2.46,1.82,3.92,9.89,4.45,15.15.03.3,5.02,20.33,9.1,42.42,3.27,17.69,5.11,43.19,5.11,43.19,0,0,14.18,9.81,44.48,20.3,36.59,12.67,78.41,14.05,78.41,14.05Z"/>
    <path class="m" d="m336.93,552.69s12.48,28.13,42.73,39.53c27.04,10.19,38.37.76,38.37.76l.35-5.51s-12.1-1.41-32.89-9.16c-30.83-11.48-48.56-25.62-48.56-25.62Z"/>
    <path class="p" d="m395.41,436.03c-5.87,0-22.53-.75-34.87-8.69-.78-.51-1.01-1.55-.51-2.34.5-.78,1.55-1.01,2.34-.51,13.98,8.98,34.79,8.12,35.01,8.11.88-.02,1.72.68,1.77,1.61.04.93-.68,1.72-1.61,1.77-.15,0-.91.04-2.12.04Z"/>
    <g>
      <path class="p" d="m477.84,541.54c-.31,0-.62-.08-.9-.26-.3-.19-7.43-4.69-10.14-7.48-.65-.67-.63-1.74.04-2.39.67-.65,1.74-.63,2.39.04,2.43,2.5,9.44,6.93,9.51,6.97.79.5,1.03,1.54.53,2.33-.32.51-.87.79-1.43.79Z"/>
      <path class="p" d="m417.22,588.9c-.09,0-.18,0-.27-.02-.2-.03-20.82-3.46-43.88-13.26-21.39-9.1-49.35-25.71-61.06-53.19-.37-.86.03-1.85.89-2.22.86-.37,1.85.03,2.22.89,21.61,50.73,101.56,64.31,102.37,64.44.92.15,1.55,1.02,1.4,1.94-.14.83-.85,1.42-1.67,1.42Z"/>
      <path class="p" d="m417.87,522.43c-.26,0-.52-.06-.76-.18-1.01-.51-24.85-12.65-41.4-32.54-.6-.72-.5-1.78.22-2.38.72-.6,1.78-.5,2.38.22,16.11,19.36,40.08,31.57,40.32,31.69.83.42,1.17,1.44.75,2.27-.3.59-.89.93-1.51.93Z"/>
    </g>
    <path class="r" d="m388.7,403.57c-10.75,0-21.87-.88-33.23-2.65-48.6-7.58-69.72-32.52-70.59-33.58-.6-.72-.49-1.78.22-2.38.72-.6,1.79-.5,2.38.22.21.25,21.27,25.03,68.51,32.39,47.58,7.42,90.53-1.11,120.95-24.01,20.66-15.55,34.08-36.98,36.84-58.78,3.76-29.81-2.12-49.31-6.42-63.55-1.42-4.72-2.65-8.8-3.34-12.55-.97-5.36-2.2-10.89-3.64-16.45-.23-.9.31-1.83,1.21-2.06.91-.23,1.83.31,2.06,1.21,1.46,5.64,2.7,11.25,3.69,16.69.65,3.57,1.85,7.56,3.25,12.18,4.38,14.53,10.38,34.43,6.53,64.95-2.87,22.71-16.77,44.96-38.16,61.06-23.85,17.95-55.15,27.29-90.27,27.29Z"/>
    <path class="f" d="m398.73,85.4s-8.14-67.1-23.13-82.12c-6.37-6.38-45,7.82-45,7.82,0,0-68.34,5.7-77.9,21.65-5.91,9.87-1.37,25.71,1.9,45.7,3.27,20,11.2,34.29,11.2,34.29,0,0,22.42,8.15,71.04-1.52,46.35-9.22,61.9-25.83,61.9-25.83Z"/>
    <g>
      <path class="ag" d="m341.95,81.08c-3.14,0-5.96-2.2-6.62-5.39l-7.29-35.14c-.76-3.66,1.59-7.24,5.25-8,3.65-.76,7.24,1.59,8,5.25l7.29,35.14c.76,3.66-1.59,7.24-5.25,8-.46.1-.92.14-1.38.14Z"/>
      <path class="ag" d="m321.7,66.82c-3.07,0-5.85-2.1-6.58-5.22-.85-3.64,1.4-7.28,5.04-8.13l29.74-6.97c3.64-.85,7.28,1.4,8.13,5.04.85,3.64-1.4,7.28-5.04,8.13l-29.74,6.97c-.52.12-1.04.18-1.55.18Z"/>
    </g>
    <path class="p" d="m396.46,71.53c-.81,0-1.53-.59-1.67-1.42-3.28-20.18-10.3-55.53-20.39-65.64-3.86-3.87-27.6,2.47-43.22,8.22-.14.05-.29.08-.44.1-18.77,1.57-69.12,8.36-76.59,20.84-2.76,4.6-2.93,14.56-.52,29.6.15.92-.48,1.79-1.4,1.94-.92.14-1.79-.48-1.94-1.4-2.61-16.3-2.3-26.43.96-31.88,9.71-16.2,73.89-22.01,78.99-22.45,7.1-2.6,39.85-14.07,46.56-7.35,10.22,10.24,17.25,42.35,21.34,67.48.15.92-.48,1.79-1.4,1.94-.09.02-.18.02-.27.02Z"/>
    <path class="an" d="m386,447.82c-31.48,0-57.98-7.86-79.07-23.51-38.58-28.62-44.76-72.54-45-74.39-.16-1.23.71-2.36,1.94-2.53,1.24-.17,2.36.71,2.53,1.94.06.44,6.23,43.95,43.27,71.4,27.8,20.6,65.56,27.15,112.22,19.47,47.61-7.84,79.76-26.93,95.54-56.74,26.7-50.43-2.75-115.29-3.05-115.94-.52-1.13-.03-2.47,1.1-2.99,1.13-.52,2.47-.03,2.99,1.1.31.67,30.7,67.5,2.96,119.92-16.47,31.13-49.72,51.02-98.8,59.1-12.86,2.12-25.08,3.18-36.63,3.18Z"/>
    <path class="an" d="m564.84,557.7c-7.26,0-25.76-1.2-48.43-11.73-26.38-12.25-63.52-40.07-90.62-103.02-.49-1.14.04-2.47,1.18-2.96,1.14-.5,2.47.03,2.96,1.18,26.47,61.49,62.53,88.64,88.12,100.59,27.71,12.94,49.47,11.36,49.69,11.34,1.24-.12,2.33.82,2.43,2.06.1,1.24-.82,2.33-2.06,2.43-.19.02-1.33.1-3.28.1Z"/>
    <path class="r" d="m437.11,304.24c-.62.05-1.18-1.53-2.39-3.66-1.19-2.07-3.26-4.9-6.2-5.65-2.69-.75-5.84,1.19-8.14,2.42-2.35,1.29-4.12,1.81-4.39,1.31-.28-.51.73-1.77,2.66-3.69.96-.96,2.27-2.04,3.99-3.05,1.73-.94,4.3-1.69,6.9-1.03,2.59.61,4.39,2.3,5.66,3.88,1.27,1.63,1.91,3.32,2.26,4.75.67,2.88.16,4.69-.36,4.72Z"/>
    <path class="ad" d="m362.12,223.76c.19.54-1.18,1.68-3.48,3.05-2.36,1.23-5.44,3.25-8.99,5.18-6.93,4.27-13.04,7.33-13.67,6.34-.6-.95,4.36-5.49,11.55-9.92,3.72-2.04,7.18-3.72,9.96-4.31,2.71-.72,4.44-.88,4.63-.34Z"/>
    <path class="ad" d="m481.82,232.24c-.56.23-1.6-.85-3.02-2.43-1.54-1.53-3.64-3.51-6.36-5.34-5.47-3.59-10.76-5.58-10.47-6.78.18-1.04,6.39-.83,12.79,3.32,3.15,2.1,5.38,4.9,6.47,7.14,1,2.32,1.09,3.89.58,4.08Z"/>
    <g>
      <path class="s" d="m356.54,271.02c8.35-3.98,15.38,13.52,8.51,18.02-5.75,3.77-11.27-1.69-12.51-6.99-.89-3.79.58-9.4,4-11.03Z"/>
      <path class="s" d="m357.09,272.5c6.46-2.69,9.84,7.71,8.92,12.4-.37,1.9-1.72,2.9-3.43,3.59-2.73,1.1-5.33-1.16-6.83-3.11-2.87-3.73-2.65-10.55,1.7-13.08,1.76-1.02-.09-3.58-1.84-2.57-12.75,7.41,1.84,30.66,11.93,19.13,5.97-6.82-2.05-23.29-11.57-19.33-1.87.78-.77,3.74,1.12,2.96Z"/>
    </g>
    <g>
      <path class="s" d="m456.74,248.81c8.35-3.98,15.38,13.52,8.51,18.02-5.75,3.77-11.27-1.7-12.51-6.99-.89-3.79.58-9.4,4-11.03Z"/>
      <path class="s" d="m457.3,250.29c6.46-2.69,9.84,7.71,8.92,12.41-.37,1.9-1.72,2.9-3.43,3.59-2.73,1.1-5.33-1.16-6.83-3.11-2.87-3.73-2.65-10.55,1.7-13.08,1.76-1.02-.09-3.58-1.84-2.57-12.75,7.41,1.84,30.66,11.93,19.13,5.97-6.82-2.05-23.29-11.57-19.33-1.87.78-.77,3.74,1.12,2.96Z"/>
    </g>
  </g>
  <path class="ag" d="m72.83,694.11c-4.33,0-7.86-3.5-7.89-7.84-.03-4.36,3.48-7.91,7.84-7.94l35.62-.23c4.34.03,7.91,3.48,7.94,7.84.03,4.36-3.48,7.91-7.84,7.94l-35.62.23h-.05Z"/>
  <path class="y" d="m93.73,750.37c-31.22,0-67.84-2.12-79.24-11.35-9.09-7.36-11.42-21.16-12.97-47.45-.19-3.17-.38-6.19-.57-9.06-1.66-25.52-2.57-39.58,10-50.52,13.24-11.52,55.91-12.8,80.17-12.54,42.94.46,71.08,5.49,83.63,14.94,11.28,8.49,11.21,28.49,11.13,49.65,0,1.5-.01,3.02-.01,4.53-.03,24.58-.58,40.15-8.02,49.06-6.78,8.12-32.09,12.27-77.37,12.69-2.21.02-4.46.03-6.75.03Zm-8.25-127.56c-37.48,0-63.68,4.23-72.31,11.74-11.31,9.84-10.43,23.3-8.85,47.75.19,2.87.38,5.9.57,9.08,1.68,28.59,4.42,39.11,11.72,45.02,8.81,7.13,39.35,10.99,83.83,10.56,54.33-.51,70.67-6.52,74.81-11.48,6.71-8.04,7.21-23.08,7.24-46.9,0-1.52,0-3.04.01-4.54.07-20.3.15-39.47-9.78-46.94-11.79-8.88-40.02-13.81-81.63-14.26-1.89-.02-3.77-.03-5.61-.03Z"/>
  <path class="y" d="m176.1,737.69c-.66,0-1.28-.39-1.56-1.03-.36-.86.04-1.85.9-2.22.17-.07,17.56-7.57,28.13-23.5,3.05-4.6,7.55-26.88,5.75-49.5-1.25-15.72-3.68-33.39-16.7-44.07-13.86-11.36-46.01-12.89-75.54-12.84-24.51.02-51.94.38-67.16,4.45-22.44,6-39.06,27.96-39.23,28.18-.56.75-1.62.9-2.37.34-.75-.56-.9-1.62-.34-2.37.7-.94,17.47-23.12,41.07-29.42,15.61-4.17,43.3-4.54,68.03-4.56,31.73,0,63.05,1.6,77.69,13.6,14.05,11.52,16.62,30,17.93,46.42,1.8,22.62-2.6,46.06-6.31,51.64-11.14,16.8-28.88,24.43-29.63,24.75-.21.09-.44.13-.66.13Z"/>
  <path class="ak" d="m57.46,617.19c-2.82,0-5.25-2.11-5.59-4.98-.2-1.69-1.74-16.76,5.13-25.7,6.5-8.45,25.99-10.6,37.04-11.13,13.44-.65,31.07.36,40.21,5.14,15.01,7.85,11.66,30.84,11.51,31.81-.47,3.08-3.35,5.19-6.43,4.71-3.08-.47-5.19-3.35-4.71-6.43.02-.15,2.16-16.06-5.59-20.11-5.7-2.98-19.86-4.56-34.44-3.87-17.87.86-26.92,4.51-28.64,6.75-3.49,4.54-3.23,14.41-2.87,17.51.36,3.09-1.85,5.89-4.94,6.26-.22.03-.45.04-.67.04Z"/>
  <path class="ak" d="m47.98,646.32c-2.21,0-4.14-1.63-4.46-3.88-.22-1.55-2.04-15.36,1.59-22.69,4.32-8.74,10.58-10.87,11.28-11.08l2.64,8.62.11-.04c-.14.05-3.37,1.29-5.95,6.49-1.88,3.81-1.31,13.39-.74,17.43.35,2.47-1.37,4.75-3.83,5.1-.21.03-.43.05-.64.05Z"/>
  <path class="ak" d="m131.8,645.45c-2.19,0-4.11-1.6-4.45-3.83-.07-.47-1.73-11.61.73-19.51,2.67-8.56,9.87-12.85,10.18-13.03,2.15-1.25,4.91-.53,6.17,1.62,1.25,2.14.54,4.89-1.59,6.15-.14.09-4.56,2.85-6.15,7.94-1.54,4.92-.83,12.82-.43,15.46.38,2.46-1.31,4.76-3.78,5.14-.23.04-.46.05-.69.05Z"/>
  <g>
    <ellipse class="x" cx="692.83" cy="729.5" rx="72.91" ry="24.47"/>
    <path class="o" d="m721.42,719.94c-2.21,0-4.14-1.62-4.46-3.87l-3.3-22.97c-.35-2.46,1.36-4.75,3.82-5.1,2.46-.35,4.75,1.36,5.1,3.82l3.3,22.97c.35,2.46-1.36,4.75-3.82,5.1-.22.03-.43.05-.65.05Z"/>
    <path class="o" d="m660.78,720.05c-.05,0-.11,0-.16,0-2.49-.09-4.43-2.18-4.35-4.66l.83-23.19c.09-2.49,2.21-4.41,4.67-4.34,2.49.09,4.43,2.18,4.35,4.66l-.83,23.19c-.09,2.43-2.09,4.34-4.5,4.34Z"/>
    <path class="o" d="m636.71,741.59c-.21,0-.43-.02-.64-.05-2.47-.35-4.18-2.63-3.83-5.1l6.2-43.33c.35-2.46,2.64-4.18,5.1-3.82,2.47.35,4.18,2.63,3.83,5.1l-6.2,43.33c-.32,2.25-2.25,3.87-4.46,3.87Z"/>
    <path class="o" d="m747.26,741.32c-2.13,0-4.03-1.52-4.43-3.69l-8.87-48.21c-.45-2.45,1.17-4.79,3.62-5.24,2.44-.46,4.8,1.17,5.25,3.62l8.87,48.21c.45,2.45-1.17,4.79-3.62,5.24-.28.05-.55.07-.82.07Z"/>
    <path class="u" d="m765.82,647.79s11.2,17.79-.86,34.25c-6.28,8.58-24.73,23.08-78.01,23-38.32-.06-62.99-12.74-71.98-22.89-11.86-13.39-.96-37.39-.96-37.39l151.8,3.03Z"/>
    <path class="v" d="m612.31,649.92c0-18.85,34.35-34.12,76.71-34.12s76.71,15.28,76.71,34.12-34.35,34.12-76.71,34.12-76.71-15.28-76.71-34.12Z"/>
    <path class="ab" d="m689.03,685.17c-42.92,0-77.84-15.81-77.84-35.25,0-.62.5-1.13,1.13-1.13s1.13.5,1.13,1.13c0,18.19,33.91,33,75.59,33,38.52,0,71.58-13.13,75.25-29.89.13-.61.74-.99,1.34-.86.61.13.99.73.86,1.34-3.95,18.05-37.25,31.66-77.45,31.66Z"/>
  </g>
  <g>
    <path class="b" d="m675.66,528.42s-9.46,12.65-23.6,23.32c-11.7,8.83-30.81,9.77-33.01,19.27-5.19,22.45,28.45,27.87,46.01,17.48,31.03-18.36,27.05-53.9,27.05-53.9l-16.46-6.16Z"/>
    <path class="aj" d="m661.95,590.26s-6.93-15.13-26.91-12.31c-31.8,4.48-26,43.25-26,43.25l47.31-7.3,5.59-23.64Z"/>
    <path class="h" d="m636.54,592.81s-.32-3.61-1.45-7.23c-1.61-5.18-3.77-7-3.77-7,0,0-13.62,1.95-20.02,18.49-4.32,11.17-2.19,23.9-2.19,23.9l30.22-4.67-2.78-23.49Z"/>
    <path class="b" d="m759.65,536.28s6.66,24.16,5.6,57.29c-1.85,57.74-24.31,73.23-60.78,75.98-26.85,2.03-58.87-5.29-79.44-14.97-24.91-11.73-18.78-48.37-2.97-58.06,17.86-10.95,34.62,4.38,34.62,4.38,0,0,2.29-9.83,8.59-27.58,8.39-23.63,19.76-42.22,19.76-42.22l74.62,5.17Z"/>
    <path class="af" d="m636.41,592.89c-.57,0-1.05-.42-1.12-1,0-.07-.81-6.85-3.97-11.66-.34-.52-.2-1.22.32-1.56.52-.34,1.22-.2,1.56.32,3.46,5.27,4.29,12.35,4.32,12.65.07.62-.38,1.18-.99,1.25-.04,0-.09,0-.13,0Z"/>
    <path class="g" d="m620.64,652.01s12.16-.06,17.49-28.43c3.91-20.83-.7-30.95-.7-30.95,0,0-.36-.04-.99-.05-4.61-.09-23.81,1.12-27.53,27.23-3.34,23.47,11.73,32.2,11.73,32.2Z"/>
    <path class="g" d="m671.82,556.93s5.73-5.45,12.62-2.04c8.05,3.99,13.13,13.88,10.5,26.62-3.13,15.16-11.41,24.95-11.41,24.95,0,0-6.79.41-13.5-1.07-7.76-1.71-13.37-4.67-13.37-4.67,0,0,2.87-11.03,6.8-21.93,4.48-12.43,8.37-21.86,8.37-21.86Z"/>
    <path class="b" d="m762.46,611.34s30.73,2.84,19.33,28.75c-8.46,19.21-30.56,7.25-30.56,7.25l11.23-36Z"/>
    <path class="af" d="m751.73,648.5c-.23,0-.46-.07-.66-.21-.51-.36-.62-1.07-.26-1.57.11-.15,10.84-15.37,11.64-33.83.03-.62.55-1.13,1.17-1.08.62.03,1.1.55,1.08,1.17-.82,19.15-11.6,34.4-12.05,35.04-.22.31-.57.47-.92.47Z"/>
    <path class="af" d="m660.62,586.82c-.1,0-.19-.01-.29-.04-.6-.16-.96-.78-.8-1.38.06-.22,6-22.39,15.36-37.34.33-.53,1.03-.69,1.55-.36.53.33.69,1.03.36,1.55-9.18,14.66-15.04,36.51-15.1,36.72-.13.5-.59.84-1.09.84Z"/>
    <path class="j" d="m747.65,537.83s-35.53,11.49-59.21,3.75c-17.52-5.72-11.72-14.54-11.72-14.54l70.94,10.79Z"/>
    <path class="af" d="m679.5,607.82s-.04,0-.07,0c-12.9-.75-22.96-5.56-23.38-5.76-.56-.27-.79-.95-.52-1.51.27-.56.95-.79,1.51-.52.1.05,10.09,4.82,22.53,5.54.62.04,1.1.57,1.06,1.19-.03.6-.53,1.06-1.12,1.06Z"/>
    <path class="af" d="m622.38,652.69c-.49,0-.95-.33-1.09-.83-.17-.6.18-1.22.78-1.39,7.12-1.98,13.13-14.37,15.71-32.34,2.27-15.86-.8-23.39-.83-23.46-.24-.57.02-1.23.6-1.48.57-.25,1.23.02,1.48.59.14.32,3.36,8.09.99,24.67-2.74,19.16-9.22,31.94-17.34,34.2-.1.03-.2.04-.3.04Z"/>
    <path class="q" d="m609.49,617.19c-.09,0-.18-.01-.27-.03-.6-.15-.97-.76-.83-1.36,2.21-9,7.1-16.56,13.08-20.23,4.88-2.99,10.13-4.36,15.61-4.07.62.03,1.1.56,1.07,1.19-.03.62-.57,1.11-1.19,1.07-5.03-.29-9.83.99-14.32,3.74-5.49,3.36-10,10.41-12.07,18.84-.13.51-.59.86-1.09.86Z"/>
    <path class="af" d="m656.69,602.04c-.27,0-.54-.1-.76-.3-.08-.07-8.1-7.28-18.63-7.97-.62-.04-1.09-.58-1.05-1.2.04-.62.59-1.08,1.2-1.05,11.34.75,19.65,8.24,20,8.56.46.42.49,1.13.07,1.59-.22.24-.53.37-.83.37Z"/>
    <path class="l" d="m744.04,611.34s-7.9,22.1-38.61,18.81c-18.13-3.07-18.62-18.81-18.62-18.81,0,0,6.72,7.36,18.48,8.71,11.76,1.35,38.75-8.71,38.75-8.71Z"/>
    <path class="b" d="m755.14,542.34c11.94-3.88,16.29,16.23,12.85,31.58-3.16,14.12-13.06,33.25-33.95,43.6-18.99,9.4-55.72,1.71-51.14-23.18,3.32-18.05,30.27-15.65,41.69-21.57,20.78-10.77,18.61-26.55,30.56-30.44Z"/>
    <path class="af" d="m715.7,622.51c-9.53,0-19.2-2.58-25.68-7.47-6.94-5.24-9.78-12.46-8.23-20.89,2.42-13.16,16.28-15.98,28.51-18.48,5.32-1.09,10.34-2.11,13.77-3.89,9.08-4.71,13.56-10.32,16.75-15.18.34-.52,1.04-.66,1.56-.33.52.34.67,1.04.33,1.56-3.34,5.11-8.05,10.99-17.6,15.94-3.71,1.92-8.88,2.98-14.36,4.1-11.53,2.35-24.6,5.02-26.75,16.68-1.75,9.52,3.04,15.42,7.37,18.69,10.47,7.9,29.78,9.4,42.16,3.27,10.83-5.36,19.84-13.83,26.08-24.51.31-.54,1.01-.72,1.54-.41.54.31.72,1,.41,1.54-6.46,11.05-15.8,19.84-27.02,25.39-5.41,2.68-12.09,3.97-18.84,3.97Z"/>
    <path class="b" d="m783.96,389.84c-12.16-10.4-23.61-19.6-51.9-25-81.31-15.51-111.33,44.05-118.33,78.72-5.42,26.8-3.71,69.91,70.53,89.21,25.24,6.56,104.78,23.59,128.23-45.93,15.16-44.95-11.68-82.6-28.53-97Z"/>
    <path class="g" d="m644.51,510.37c12.16,4.31,28.52,5.78,38.72.76,19.81-9.75,25.86-40.07-13.82-56.53-22.64-9.39-39.94-6.39-48.78-.06-7.45,5.34-8.35,13.63-8.35,13.63,0,0-.01,6.79,4.24,17.5,3.71,9.36,16.13,20.5,27.99,24.7Z"/>
    <path class="b" d="m780.1,390.76s6.4-15.74,21.74-19.21c13.38-3.02,25.35,3.19,29.81,14.33,4.46,11.14-1.27,25.28-12.16,29.15-7.12,2.53-15.1,1.26-15.1,1.26l-24.29-25.53Z"/>
    <path class="k" d="m793.92,397.46c-.49-4.43,3.59-9.14,9.12-7.9,5.53,1.24,7.67,5.84,5,10.32-4.08,6.86-13.63,2.01-14.12-2.42Z"/>
    <path class="b" d="m669.38,369.5s4.12-16.24-13.15-21.51c-13.48-4.11-23.76,6.49-26.53,15.94-2.07,7.07-.02,14.41,5.42,18.09,5.11,3.45,11.52,1.97,11.52,1.97l22.74-14.49Z"/>
    <path class="k" d="m655.45,364.33c-6.25-6.27-14.08,3.17-7.39,9.12,4.82,4.28,11.84-4.66,7.39-9.12Z"/>
    <path class="ai" d="m692.61,438.4c2-6.63,8.37-10.72,14.22-9.15,5.85,1.57,8.98,8.23,6.98,14.85-2,6.63-8.37,10.72-14.22,9.15-5.85-1.57-8.98-8.23-6.98-14.85Z"/>
    <path class="ai" d="m647.93,422.15c2.39-5.52,7.76-8.51,11.99-6.68,4.23,1.83,5.73,7.79,3.34,13.31-2.39,5.52-7.76,8.51-11.99,6.68-4.23-1.83-5.73-7.79-3.34-13.31Z"/>
    <path class="ae" d="m632.61,448.15c3.56-7.91,14.86-8.34,27.54-3.78,12.68,4.56,21.95,12.39,18.39,20.3-3.56,7.91-16.73,10.62-29.42,6.06-12.68-4.56-20.08-14.67-16.52-22.58Z"/>
    <path class="t" d="m670.03,500.64c-.77,0-1.46-.06-2.05-.15-1.54-.24-2.59-1.68-2.35-3.22.24-1.54,1.68-2.59,3.22-2.35.24.03,6.3.85,8.34-3.99.6-1.43,2.26-2.11,3.69-1.5,1.43.61,2.11,2.26,1.5,3.69-2.53,5.98-8.37,7.51-12.35,7.51Z"/>
    <path class="d" d="m717.72,472.44c0-3.77,4.44-6.83,9.92-6.83s9.92,3.06,9.92,6.83-4.44,6.83-9.92,6.83-9.92-3.06-9.92-6.83Z"/>
    <path class="d" d="m617.12,430.31s9.22,3.9,7.12,10.09c-1.86,5.48-10.87,4.39-10.87,4.39,0,0,.77-3.38,1.7-6.96s2.06-7.51,2.06-7.51Z"/>
    <path class="g" d="m673.16,399.86c.08-2.71-3.25-3.82-6.82-4.5-4.71-.89-9.98-.48-9.81,3.29.14,3.2,4.5,4.8,8.6,5.22,4.08.42,7.91-.32,8.02-4.01Z"/>
    <path class="g" d="m717.47,414.15c1.35-5.01-17.4-13.94-18.36-5.71-.41,3.59,4.65,6.12,9.01,7.54,4.97,1.62,8.42,1.58,9.35-1.83Z"/>
    <path class="af" d="m732.95,540.49c-30.68,0-58.32-9.22-58.68-9.34-.59-.2-.9-.84-.71-1.43.2-.59.84-.91,1.43-.71.45.15,45.67,15.22,84.24,6.52.6-.13,1.21.24,1.35.85.14.61-.24,1.21-.85,1.35-8.79,1.98-17.91,2.75-26.78,2.75Z"/>
  </g>
</svg>