<?xml version="1.0" encoding="UTF-8"?>
<svg id="a" data-name="Objects" xmlns="http://www.w3.org/2000/svg" viewBox="0 0 349.66 231.75">
  <defs>
    <style>
      .b {
        fill: #c2f0ec;
      }

      .c {
        fill: #c76427;
      }

      .d {
        fill: #41200b;
      }

      .e {
        fill: #f4f4f4;
      }

      .f {
        fill: #fff;
      }

      .g {
        fill: #bac4d1;
      }

      .h {
        fill: #f5c99b;
      }

      .i {
        fill: #b14a3d;
      }

      .j {
        fill: #e6935d;
      }

      .k {
        fill: #b182d8;
      }

      .l {
        fill: #7c9fcc;
      }

      .m {
        fill: #e8943f;
      }

      .n {
        fill: #ffc466;
      }

      .o {
        fill: #d28438;
      }

      .p {
        fill: #fa8071;
      }
    </style>
  </defs>
  <g>
    <polygon class="g" points="138.32 60.24 112.47 177.59 349.66 231.75 138.32 60.24"/>
    <path class="e" d="m138.32,60.24c.7.43,211.34,171.51,211.34,171.51L219.65,44.71l-81.33,15.53Z"/>
    <path class="m" d="m219.37,107.09s-47.06-14.64-68.64-53.85c-21.58-39.21-50.34-28.29-50.34-28.29L148.71,0s24.41,12.75,33.91,37.19c9.5,24.43,45.83,41.74,45.83,41.74l-9.09,28.16"/>
    <path class="k" d="m250.64,107.76s21.22,14.62,24.22,31.24c3,16.61,1.1,12.84,1.1,12.84l-11.52-.43s3.2-14.57-4.92-20.47c-8.12-5.9-14.33-16.19-14.9-18.85s1.6-4.65,6.02-4.32Z"/>
    <path class="k" d="m255.11,106.16s2.34,28.94.38,48.39c-2.06,20.46-54.93-4.05-57.14-17.39-2.21-13.34,10.93-45.22,26.93-44.61,16,.62,29.83,13.61,29.83,13.61Z"/>
    <path class="f" d="m349.66,231.75L119.81,60.5,0,75.49s317.62,152.57,349.66,156.26Z"/>
    <path class="n" d="m208.85,123.45s-49.19-3.12-79.41-36.13c-30.22-33.01-55.59-15.61-55.59-15.61l41.06-35.65s26.73,6.63,41.73,28.13c15,21.5,54.39,29.74,54.39,29.74l-2.18,29.51"/>
    <path class="k" d="m208.67,101.74s11.11-1.18,10.7,5.36c-.41,6.54-7.53,5.15-16.29,11.28-8.75,6.13,12.6,20.81,12.6,20.81l-8.83,8.07s-21.58-18.03-19.85-26.44c1.72-8.4,9.97-13.72,21.67-19.07Z"/>
    <path class="h" d="m205.26,147.11c1,4.15,5.17,6.71,9.32,5.71,4.15-1,6.71-5.17,5.71-9.32-1-4.15-5.17-6.71-9.32-5.71-4.15,1-6.71,5.17-5.71,9.32Z"/>
    <path class="h" d="m262.94,155.42c1,4.15,5.17,6.71,9.32,5.71,4.15-1,6.71-5.17,5.71-9.32-1-4.15-5.17-6.71-9.32-5.71-4.15,1-6.71,5.17-5.71,9.32Z"/>
    <path class="n" d="m256.99,108.01s2.63,10.04-1.96,11.8c-4.6,1.75-37.43-2.11-42.71-11.8-5.29-9.69.25-12.77.25-12.77,0,0,32.58,15.88,44.43,12.77Z"/>
  </g>
  <path class="h" d="m209.27,89.04c-3.88,3.25-.68,15.21,10.13,11.44,8.79,9.88,29.95,14.27,44.25,7.82,14.3-6.45,9.33-11.69,8.4-16.51-.93-4.82,2.17-7.11,2.8-15.2.63-8.09-4.09-21.02-16.76-27.08-12.67-6.06-48.11,21.05-48.81,39.53Z"/>
  <path class="i" d="m256.24,93.31c-1.96.05-5.29-.52-6.74-.62-1.44-.11-1.74,1.24-.61,4.81,1.13,3.57,6.13,5.05,9.04,2.57,2.91-2.48,3.22-6.05,2.64-6.34-.58-.29-1.25-.49-4.33-.42Z"/>
  <path class="j" d="m257.61,90.72c-.15,0-.25-.4-.49-.95-.24-.53-.67-1.27-1.37-1.52-.63-.25-1.45.15-2.04.39-.6.26-1.04.34-1.1.21-.06-.13.22-.41.74-.83.26-.21.6-.44,1.04-.64.44-.19,1.08-.31,1.7-.08.61.21,1.01.67,1.28,1.08.27.43.38.85.43,1.21.09.72-.07,1.14-.2,1.14Z"/>
  <path class="c" d="m242.66,70.97c.03.14-.33.38-.92.66-.6.24-1.4.66-2.31,1.04-1.78.87-3.34,1.47-3.47,1.21-.12-.24,1.19-1.23,3.04-2.13.95-.4,1.83-.73,2.52-.81.68-.11,1.1-.11,1.13.03Z"/>
  <path class="c" d="m271.52,75.92c-.14.04-.37-.24-.68-.66-.34-.41-.8-.94-1.41-1.45-1.24-1-2.48-1.62-2.38-1.9.07-.25,1.57-.05,3.02,1.12.71.59,1.19,1.32,1.4,1.89.19.59.17.97.04,1.01Z"/>
  <path class="p" d="m256.7,100.84c-1.75-5.41-5.82-5.87-8.25-4.94.11.48.26,1.01.45,1.61.98,3.11,4.89,4.63,7.81,3.34Z"/>
  <path class="j" d="m217.56,97.51c0,.08-.59.3-1.59,0-.49-.14-1.08-.47-1.55-1.04-.11-.15-.22-.3-.33-.47-.07-.22-.2-.44-.18-.69-.05-.52.21-.95.45-1.33l-.03.04c.25-.42.69-.66,1.03-.8.34-.13.71-.25.84-.34.01,0,0,0,.01-.02.02-.02.04-.05.04-.06.02-.03,0-.06.02-.09,0-.07-.11-.22-.23-.35-.28-.27-.65-.5-1.01-.69-.36-.19-.76-.35-1.05-.43-.31-.04-.64-.06-.91,0-.55.11-.93.46-1.18.71-.25.25-.4.42-.46.38-.06-.03-.04-.25.14-.61.17-.35.54-.89,1.29-1.17.37-.15.79-.18,1.26-.15.48.09.87.23,1.31.42.43.2.87.43,1.3.82.2.21.44.45.53.87.03.21.03.44-.06.64-.03.11-.09.19-.14.27-.06.07-.12.22-.23.26-.47.31-.8.35-1.1.48-.29.11-.47.22-.57.37l-.03.04c-.17.25-.34.5-.31.72-.04.11.05.21.05.32.07.12.14.25.21.36.31.47.73.78,1.11.97.78.4,1.37.43,1.36.57Z"/>
  <path class="o" d="m238.49,43.45c-9.3-2.75-18.1-7.36-16.93-20.05,1.17-12.7.61-14.65,7.5-12.02,10.09,3.86,30.87,13.82,17.97,32.34-4.73,6.04-8.55-.27-8.55-.27Z"/>
  <path class="o" d="m206.1,52.43c1.38-5.82.57-13.77-8-18.54-8.57-4.77-21.5-1.1-26.38.03s-3.11,2.21.51,10.83c3.62,8.62,16.13,23.63,32.02,11.67,1.11-1.96,1.85-3.99,1.85-3.99Z"/>
  <path class="i" d="m204.69,59.62c-3.1-1.31-3.6-4.13-.55-7.13,3.05-3,5.16.68,5.16.68l-4.61,6.45Z"/>
  <path class="o" d="m208.55,89.96c1.15-2.15,6.06-5.03,10.05,1.05,1.2,1.82,2.99,1.55,3.7-1.46s4.18-11.99,2.26-17.98c12.9-3.48,27.58-12.92,31.39-18.13,9.71,4.96,16.95,13.35,18.77,19.91,1.17,2.35,1.74-6.8-2.58-14.76-4.32-7.96-18.35-16.65-33.39-16.65-15.04,0-32.89,8.5-36.37,21s-.15,21.66,6.17,27.03Z"/>
  <path class="c" d="m251.88,44.15c-.08.31-3.99-.62-8.8-1.43-2.41-.37-4.61-.52-6.21-.59-1.6-.02-2.6-.04-2.62-.19-.02-.13.97-.36,2.6-.53,1.63-.12,3.91-.08,6.38.3,2.46.4,4.64.96,6.19,1.44,1.55.48,2.49.86,2.45.99Z"/>
  <path class="c" d="m255.95,53.37c-.04.05-.27-.07-.65-.37-.36-.31-.79-.83-1.31-1.42-.27-.28-.56-.59-.92-.9-.35-.31-.7-.68-1.11-1-.42-.32-.84-.67-1.3-1.01-.48-.32-.96-.66-1.47-.99-2.06-1.3-4.07-2.24-5.53-2.93-1.46-.7-2.37-1.14-2.32-1.28.04-.12,1.04.08,2.59.61,1.55.53,3.66,1.38,5.8,2.73.53.34,1.03.71,1.52,1.05.47.36.9.75,1.32,1.1.42.36.75.76,1.09,1.11.34.34.63.71.89,1.05.47.69.8,1.24,1.05,1.61.26.35.39.58.35.63Z"/>
  <path class="c" d="m219.44,67.52c0-.08.51-.19,1.44-.4.46-.12,1.03-.26,1.69-.43.33-.09.69-.17,1.07-.25.18-.04.37-.08.57-.12.19-.06.39-.11.59-.17,1.64-.49,3.61-1,5.76-1.66,2.14-.67,4.49-1.48,6.88-2.44,2.38-.96,4.51-2.25,6.42-3.39,1.86-1.23,3.47-2.45,4.66-3.63,1.2-1.18,2.11-2.24,2.78-2.92.68-.69,1.07-1.04,1.13-.99.05.05-.25.49-.83,1.25-.58.76-1.39,1.89-2.57,3.17-1.18,1.29-2.79,2.6-4.67,3.92-1.94,1.22-4.07,2.55-6.54,3.54-2.45.99-4.82,1.77-7.02,2.41-2.19.62-4.18,1.05-5.85,1.46-.21.05-.42.1-.62.14-.21.03-.41.06-.6.09-.38.06-.73.11-1.07.17-.67.12-1.25.2-1.73.26-.97.1-1.5.07-1.51.01Z"/>
  <path class="c" d="m234.75,57.86c-.1-.28,2.92-1.65,6.65-3.39,3.73-1.75,6.9-2.89,7-2.63.11.27-2.85,1.8-6.58,3.56-3.75,1.75-6.99,2.72-7.07,2.47Z"/>
  <path class="c" d="m266.21,55.11c-.08.12-.78-.16-1.83-.7-.54-.25-1.18-.54-1.89-.87-.71-.32-1.51-.64-2.34-1.01-.84-.31-1.64-.69-2.36-.91-.71-.26-1.41-.42-1.99-.62-.29-.1-.55-.2-.78-.28-.22-.11-.41-.21-.56-.3-.3-.18-.45-.3-.42-.37.03-.06.23-.06.56,0,.16.03.36.07.58.12.23.04.5.08.79.13.58.11,1.29.2,2.09.43.81.19,1.6.55,2.47.87.85.37,1.65.73,2.36,1.1.7.4,1.33.74,1.84,1.09.99.71,1.56,1.21,1.48,1.32Z"/>
  <g>
    <rect class="l" x="243.89" y="54.78" width="23" height="4.76" transform="translate(503.2 141.29) rotate(-173.86)"/>
    <g>
      <path class="l" d="m227.36,65.65c-.84-2.25-1.59-4.52-2.29-6.81,2.19-1.94,4.63-3.66,6.45-3.71,4.22-.13,1.14,4.75,1.14,4.75,0,0-3.53,2.61-5.3,5.77Z"/>
      <g>
        <g>
          <path class="l" d="m259.38,61.23c1.39,5.78,7.2,9.35,12.99,7.96,5.78-1.39,9.35-7.2,7.96-12.99-1.39-5.78-7.2-9.35-12.99-7.96-5.78,1.39-9.35,7.2-7.96,12.99Z"/>
          <path class="b" d="m262.5,60.48c.97,4.06,5.05,6.56,9.11,5.58s6.56-5.05,5.58-9.11c-.97-4.06-5.05-6.56-9.11-5.58-4.06.97-6.56,5.05-5.58,9.11Z"/>
          <path class="f" d="m275.52,53.72c.79.89,1.38,1.99,1.68,3.23.2.85.25,1.69.17,2.52l-8.87,6.68c-2.05-.38-3.87-1.59-5-3.36l12.03-9.06Z"/>
          <path class="f" d="m273.58,52.15l-11.07,8.34s0-.01,0-.02c-.09-.38-.14-.76-.17-1.14l10.21-7.69c.36.14.71.31,1.05.5Z"/>
        </g>
        <g>
          <path class="l" d="m230.92,56.98c1.39,5.78,7.2,9.35,12.99,7.96,5.78-1.39,9.35-7.2,7.96-12.99-1.39-5.78-7.2-9.35-12.99-7.96-5.78,1.39-9.35,7.2-7.96,12.99Z"/>
          <path class="b" d="m234.05,56.23c.97,4.06,5.05,6.56,9.11,5.58s6.56-5.05,5.58-9.11c-.97-4.06-5.05-6.56-9.11-5.58s-6.56,5.05-5.58,9.11Z"/>
          <path class="f" d="m247.07,49.48c.79.89,1.38,1.99,1.68,3.23.2.85.25,1.69.17,2.52l-8.87,6.68c-2.05-.38-3.87-1.59-5-3.36l12.03-9.06Z"/>
          <path class="f" d="m245.13,47.91l-11.07,8.34s0-.01,0-.02c-.09-.38-.14-.76-.17-1.14l10.21-7.69c.36.14.71.31,1.05.5Z"/>
        </g>
      </g>
    </g>
  </g>
  <g>
    <path class="d" d="m237.38,79.38c2.63-.41,3.14,5,.87,5.68-1.9.57-2.98-1.39-2.89-2.96.07-1.12.93-2.55,2.01-2.72Z"/>
    <path class="d" d="m237.41,79.84c2.01-.21,2.09,2.94,1.45,4.16-.26.5-.71.66-1.24.71-.84.08-1.38-.76-1.63-1.42-.49-1.27.13-3.14,1.54-3.48.57-.14.27-1-.3-.86-4.13,1-2.01,8.63,1.73,6.27,2.21-1.39,1.35-6.61-1.61-6.29-.58.06-.52.97.07.91Z"/>
  </g>
  <g>
    <path class="d" d="m266.91,81.47c2.63-.41,3.14,5,.87,5.68-1.9.57-2.98-1.39-2.89-2.96.07-1.12.93-2.55,2.01-2.72Z"/>
    <path class="d" d="m266.94,81.93c2.01-.21,2.09,2.94,1.45,4.16-.26.5-.71.66-1.24.71-.84.08-1.38-.76-1.63-1.42-.49-1.27.13-3.14,1.54-3.48.57-.14.27-1-.3-.86-4.13,1-2.01,8.63,1.73,6.27,2.21-1.39,1.35-6.61-1.61-6.29-.58.06-.52.97.07.91Z"/>
  </g>
</svg>