<?xml version="1.0" encoding="UTF-8"?>
<svg id="a" data-name="objects" xmlns="http://www.w3.org/2000/svg" viewBox="0 0 491.72 273.06">
  <g>
    <ellipse cx="146.71" cy="262.78" rx="66.81" ry="10.28" style="opacity: .1;"/>
    <g>
      <g>
        <path d="m112.9,138.83s-6.68,2.22-16.6.63c-6.88-1.09-15.3-4.02-24.15-10.79.47-2.77.65-5.59.71-8.39.04-1.79.65-5.3-.96-6.65-3.31-2.76-4.51,5.72-4.85,8.33-1.9-2.91-4.52-4.64-6.71-7.31-1.43-1.73-4.24-5.17-6.81-5.02-4.96.29,1.46,6.86,4.22,10.23-2.03-1.3-4.19-2.37-6.45-3.23-1.18-.44-4.69-2.33-5.68-.65-.95,1.6,1.6,3.96,2.65,4.82,1.94,1.59,4.14,2.97,6.33,4.3-1.77-.56-3.56-1.03-5.39-1.3-1.52-.24-4.46-.54-5.31,1.05-1.44,2.71,5.99,4.77,9.1,5.75-1.42-.23-5.39-.1-6.36.57-.99.7-1.07,1.77-.3,2.61,1.57,1.76,6.86,3.06,9.16,3.36,2.62.34,5.68.63,7.59.74,2.08,1.89,13.05,12.03,26.53,17.83,8.35,3.61,17.67,5.53,26.45,2.8l-3.17-19.68Z" style="fill: #f7cb9c;"/>
        <path d="m66.24,123.5c-1.16.1-2.17.92-2.71,1.95s-.66,2.24-.54,3.39" style="fill: none; stroke: #e8955d; stroke-linecap: round; stroke-linejoin: round;"/>
      </g>
      <g>
        <path d="m164.97,152.03c9.16-.72,17.1-5.97,23.52-12.42,10.37-10.39,16.79-23.88,18.02-26.41,1.74-.81,4.47-2.21,6.78-3.5,2.02-1.13,6.45-4.3,7.26-6.52.4-1.07-.07-2.04-1.25-2.32-1.15-.26-4.89,1.09-6.12,1.83,2.52-2.07,8.66-6.74,6.32-8.72-1.38-1.16-4,.22-5.32,1-1.59.93-3.09,2.03-4.52,3.21,1.53-2.04,3.06-4.14,4.28-6.34.66-1.19,2.14-4.33.67-5.46-1.54-1.19-4.1,1.86-5.04,2.71-1.78,1.64-3.39,3.43-4.79,5.4,1.32-4.15,4.84-12.63.13-11.06-2.45.81-3.78,5.05-4.46,7.19-1.05,3.29-2.84,5.87-3.52,9.28-1.29-2.3-5.55-9.73-7.6-5.93-.99,1.85.88,4.88,1.58,6.53,1.09,2.58,2.31,5.13,3.77,7.52-5.7,9.57-12.44,15.42-18.41,18.99-8.62,5.16-15.65,5.58-15.65,5.58l4.36,19.45Z" style="fill: #f7cb9c;"/>
        <path d="m198.25,101.02c1.11-.33,2.36.05,3.24.8.88.75,1.44,1.83,1.76,2.95" style="fill: none; stroke: #e8955d; stroke-linecap: round; stroke-linejoin: round;"/>
      </g>
      <g>
        <path d="m170.53,181.07l2.57,11.24c-17.46,6.42-36.92,8.78-58.22,7.38l-.3-22.58-.19-13.74c-8.76.51-12.51-.51-21.2-1.44l-.83-28.52s52.42,4.64,87.99-14.47l8.87,26.89s-5.13,4-24.64,9.15l5.97,26.1Z" style="fill: #c5c748;"/>
        <path d="m164.44,140.91c-.05-.31-.43-.33-.57-.08-.72,1.33-.76,3.07-.96,4.55-.15,1.16-.26,2.33-.33,3.49-1.62-5.29-3.27-10.81-6.32-15.3-.16-.24-.56,0-.43.25,3.03,6.1,4.64,12.83,6.72,19.29.26.79,1.46.29,1.2-.51-.27-.83-.54-1.67-.8-2.52.36-1.52.66-3.04.94-4.58.26-1.48.78-3.12.54-4.61Z" style="fill: #979930;"/>
        <path d="m116.68,141.43c-1.33,5.22-2.7,11-3.05,16.53-1.7-2.84-2.78-5.8-4.23-8.78-.16-.33-.74-.22-.66.18.64,3.54,2.78,7.01,4.83,9.91-.02.61-.04,1.23-.03,1.83,0,.44.63.37.72,0,1.48-6.36,1.98-13.14,3.09-19.59.08-.44-.57-.5-.67-.09Z" style="fill: #979930;"/>
      </g>
    </g>
    <g>
      <path d="m196.81,260.74c-.22-2.57-4.98-5.81-9.7-8.4-4.71-2.59-9.38-4.52-9.38-4.52l-13.89.3s-4.83,4.71-5.3,8.15c-.17,1.13.17,2.14,1.33,2.79,4.63,2.58,33.06,8.41,36.52,3.25.33-.5.46-1.02.41-1.58Z" style="fill: #56575c;"/>
      <g>
        <path d="m186.61,251.63c-2.95.1-5.89.65-8.03,2.84-.85.87.48,2.21,1.34,1.34,1.79-1.83,4.24-2.2,6.7-2.29,1.22-.04,1.22-1.94,0-1.89Z" style="fill: #6b6c73;"/>
        <path d="m183.37,249.54c-3.31-.03-6.35,1.09-8.89,3.21-.94.78.41,2.12,1.34,1.34,2.15-1.79,4.75-2.68,7.55-2.66,1.22.01,1.22-1.88,0-1.89Z" style="fill: #6b6c73;"/>
      </g>
    </g>
    <g>
      <path d="m96.65,263.5c.23-2.72,5.29-6.17,10.3-8.92,5.01-2.75,9.96-4.8,9.96-4.8l14.76.32s5.13,5.01,5.63,8.66c.18,1.2-.18,2.27-1.41,2.96-4.92,2.74-35.11,8.93-38.79,3.46-.35-.53-.49-1.09-.44-1.68Z" style="fill: #56575c;"/>
      <g>
        <path d="m107.49,253.82c3.14.11,6.26.69,8.53,3.02.91.93-.51,2.35-1.42,1.42-1.9-1.94-4.5-2.34-7.11-2.43-1.29-.05-1.3-2.06,0-2.01Z" style="fill: #6b6c73;"/>
        <path d="m110.93,251.6c3.52-.03,6.74,1.16,9.44,3.41,1,.83-.43,2.25-1.42,1.42-2.28-1.91-5.05-2.85-8.02-2.82-1.3.01-1.3-2,0-2.01Z" style="fill: #6b6c73;"/>
      </g>
    </g>
    <path d="m122.55,123.5c.51,1.09,1.91,11.42,1.91,11.42l6.73,3.8c2.17.9,4.67.28,6.16-1.53l5.37-6.52-3.41-12.01-16.77,4.84Z" style="fill: #f2b87b;"/>
    <path d="m155.6,246.89l-9.65-29.59-7.8,29.36c-.75,2.83-3.4,4.72-6.32,4.52l-18.81-1.28c-2.59-.18-4.49-2.5-4.15-5.08l7-53.12,4.19-28.16c.42-2.83,2.39-5.06,4.92-5.56l27.11-5.37c2.66-.53,5.32.98,6.5,3.72l11.91,28.37s11.43,59.26,12.41,61.67c.45,1.11-12.87,3.78-20.79,4.69-2.89.33-5.62-1.42-6.52-4.19Z" style="fill: #526f7a;"/>
    <g>
      <path d="m144.1,130.42l5.79,27.3,6.31-.91-5.44-27.33c-1.71-.31-4.62.09-6.66.94Z" style="fill: #42626e;"/>
      <path d="m153.93,155.2c0,.89-.72,1.61-1.61,1.61s-1.61-.72-1.61-1.61.72-1.61,1.61-1.61,1.61.72,1.61,1.61Z" style="fill: #61828f;"/>
    </g>
    <g>
      <path d="m128.95,161.76c0-.46-5.78-28.42-5.78-28.42-2.1.14-4.8-.18-6.18.9l5.48,28.73,6.48-1.22Z" style="fill: #42626e;"/>
      <path d="m127.61,160.59c0,.91-.74,1.64-1.64,1.64s-1.64-.74-1.64-1.64.74-1.64,1.64-1.64,1.64.74,1.64,1.64Z" style="fill: #61828f;"/>
    </g>
    <g>
      <g>
        <path d="m77.08,106.9c-.49,4.75,3.28,9.52,8.43,10.65,5.15,1.14,9.72-1.79,10.22-6.54.49-4.75-3.28-9.52-8.43-10.65-5.15-1.14-9.72,1.79-10.22,6.54Z" style="fill: #f7cb9c;"/>
        <path d="m87.76,114.27c-.03.1-.85.07-1.91-.77-.52-.41-1.07-1.09-1.36-2.01-.05-.23-.11-.47-.16-.73.03-.3-.03-.63.13-.92.2-.65.72-1.03,1.2-1.37l-.05.04c.51-.39,1.15-.46,1.63-.45.47,0,.98.05,1.17,0,.02,0-.01,0,.03-.02.04-.02.08-.04.08-.06.04-.03.04-.07.07-.1.03-.09-.02-.32-.11-.54-.2-.46-.54-.92-.88-1.32-.34-.4-.74-.8-1.05-1.03-.35-.21-.74-.39-1.09-.44-.72-.13-1.34.09-1.76.28-.43.18-.68.31-.74.23-.05-.06.08-.32.47-.66.37-.33,1.09-.8,2.13-.77.51,0,1.04.17,1.58.43.54.34.93.7,1.37,1.15.42.45.84.94,1.17,1.62.14.36.3.76.21,1.31-.07.27-.18.54-.39.74-.09.12-.19.18-.3.25-.11.05-.25.21-.41.21-.72.14-1.14.03-1.56.04-.4-.01-.67.04-.86.16l-.05.04c-.33.22-.65.44-.73.71-.1.12-.04.27-.1.4.02.18.05.36.07.54.15.71.49,1.29.86,1.71.74.86,1.44,1.18,1.36,1.35Z" style="fill: #e8955d;"/>
      </g>
      <g>
        <path d="m177.05,93.28c1.01,4.67-2.23,9.82-7.22,11.51-5,1.69-9.86-.72-10.87-5.39-1.01-4.67,2.23-9.82,7.22-11.51,5-1.69,9.86.72,10.87,5.39Z" style="fill: #f7cb9c;"/>
        <path d="m167.46,101.25c.03.1.85.07,1.91-.77.52-.41,1.07-1.09,1.36-2.01.05-.23.11-.47.16-.73-.03-.3.03-.63-.13-.92-.2-.65-.72-1.03-1.2-1.37l.05.04c-.51-.39-1.15-.46-1.63-.45-.47,0-.98.05-1.17,0-.02,0,.01,0-.03-.02-.04-.02-.08-.04-.08-.06-.04-.03-.04-.07-.07-.1-.03-.09.02-.32.11-.54.2-.46.54-.92.88-1.32.34-.4.74-.8,1.05-1.03.35-.21.74-.39,1.09-.44.72-.13,1.34.09,1.76.28.43.18.68.31.74.23.05-.06-.08-.32-.47-.66-.37-.33-1.09-.8-2.13-.77-.51,0-1.04.17-1.58.43-.54.34-.93.7-1.37,1.15-.42.45-.84.94-1.17,1.62-.14.36-.3.76-.21,1.31.07.27.18.54.39.74.09.12.19.18.3.25.11.05.25.21.41.21.72.14,1.14.03,1.56.04.4-.01.67.04.86.16l.05.04c.33.22.65.44.73.71.1.12.04.27.1.4-.02.18-.05.36-.07.54-.15.71-.49,1.29-.86,1.71-.74.86-1.44,1.18-1.36,1.35Z" style="fill: #e8955d;"/>
      </g>
      <path d="m165.14,69.92c-3.72-24.31-27.32-40.65-51.73-35.04-20.54,4.72-37.2,24.55-32.8,45.16,1.27,5.95,2.98,11.75,5.87,16.87,2.19,3.89,2.86,8.6,3.4,13.03,1,8.2,12.22,23.55,41.26,19.43s36.41-22.8,34.18-30.82c-1.28-4.58-1.37-9.41-.46-14.07.91-4.67,1.04-9.58.28-14.56Z" style="fill: #f7cb9c;"/>
      <path d="m99.62,89.47c.12.13.64-.07,1.37-.51.7-.47,1.73-1.02,2.8-1.72,2.23-1.28,4.01-2.53,3.83-2.85-.17-.31-2.19.39-4.5,1.72-1.13.73-2.12,1.44-2.7,2.12-.61.65-.92,1.1-.79,1.24Z" style="fill: #6e4620;"/>
      <path d="m140.65,77.41c0,.18.51.4,1.33.61.83.16,1.94.5,3.2.76,2.49.67,4.62,1.05,4.72.69.1-.34-1.82-1.27-4.4-1.97-1.31-.28-2.52-.48-3.41-.41-.89.03-1.43.13-1.44.32Z" style="fill: #6e4620;"/>
      <path d="m125.31,107.2c.19.05.45-.42.93-1.02.48-.59,1.27-1.37,2.22-1.45.88-.1,1.77.67,2.42,1.17.67.52,1.2.77,1.31.63.11-.14-.14-.59-.65-1.29-.25-.35-.61-.75-1.1-1.15-.49-.38-1.26-.75-2.11-.67-.84.06-1.49.5-1.97.93-.48.45-.76.94-.95,1.37-.36.87-.29,1.46-.13,1.49Z" style="fill: #e8955d;"/>
    </g>
    <path d="m165.84,42.74c-.44,6.96-2.82,13.71-2.82,13.71,7.68,17.65,1.52,38.31,1.52,38.31-3.78-10.68-8.9-30.1-9.91-33.95-.11-.44-.17-.68-.17-.68l-64.33,9.47c.02.21.04.44.05.69.59,8.27-1.15,34.99-1.15,34.99-11.98-26.94-9.87-36.7-9.87-36.7,0,0-13.19-6.38-13-14.03.17-7.51,13.89-6.45,14.4-6.41-.26-.24-.66-3.55-2.61-8.19-.96-2.3-.38-6.29,1.07-8.14,6.68-8.58,17.99.84,17.99.84,0,0-2.22-9.08,6.6-15.83,8.82-6.74,24.8,6.24,24.8,6.24,0,0,2.77-7.23,11.45-6.08,8.69,1.15,15.07,17.97,15.07,17.97,0,0,.98-9.04,6.3-5.77,4.11,2.53,4.95,8.11,4.61,13.57Z" style="fill: #a66128;"/>
    <path d="m90.13,69.6c.02.21.04.44.05.69.59,8.27-1.15,34.99-1.15,34.99-11.98-26.94-9.87-36.7-9.87-36.7,3.77.75,7.4.63,10.97,1.03Z" style="fill: #a66128;"/>
    <path d="m164.55,94.76c-3.78-10.68-9.07-30.78-10.08-34.63,5.44-2.44,8.56-3.68,8.56-3.68,7.68,17.65,1.52,38.31,1.52,38.31Z" style="fill: #a66128;"/>
    <g>
      <path d="m107.7,92.74c-2.91-.31-3.17,5.66-.64,6.28,2.12.52,3.19-1.7,3-3.41-.14-1.23-1.16-2.74-2.36-2.87Z" style="fill: #42210b;"/>
      <path d="m107.69,93.24c-2.21-.12-2.13,3.34-1.36,4.65.31.53.82.69,1.4.71.93.04,1.47-.91,1.71-1.65.46-1.42-.32-3.43-1.89-3.73-.63-.12-.35-1.08.28-.96,4.59.87,2.69,9.35-1.54,6.97-2.5-1.41-1.85-7.17,1.42-6.99.64.04.62,1.04-.02,1Z" style="fill: #42210b;"/>
    </g>
    <g>
      <path d="m142.79,87.9c-2.91-.31-3.17,5.66-.64,6.28,2.12.52,3.19-1.7,3-3.41-.14-1.23-1.16-2.74-2.36-2.87Z" style="fill: #42210b;"/>
      <path d="m142.78,88.4c-2.21-.12-2.13,3.34-1.36,4.65.31.53.82.69,1.4.71.93.04,1.47-.91,1.71-1.65.46-1.42-.32-3.43-1.89-3.73-.63-.12-.35-1.08.28-.96,4.59.87,2.69,9.35-1.54,6.97-2.5-1.41-1.85-7.17,1.42-6.99.64.04.62,1.04-.02,1Z" style="fill: #42210b;"/>
    </g>
    <path d="m127.46,110.39c2.55.08,6.88-.62,8.75-.75s2.25,1.63.75,6.25-8,6.5-11.75,3.25c-3.75-3.25-4.12-7.88-3.37-8.25s1.63-.62,5.63-.5Z" style="fill: #b34b3d;"/>
    <path d="m123.9,117.85c5.28-5.16,10.23-3.22,12.47-.69-.42.48-.9,1-1.48,1.58-3.01,2.98-8.42,2.36-10.98-.88Z" style="fill: #fc8271;"/>
    <ellipse cx="112.72" cy="66.99" rx="8.67" ry="6.52" style="fill: #a66128;"/>
    <ellipse cx="96.83" cy="69.48" rx="8.67" ry="6.52" style="fill: #a66128;"/>
    <ellipse cx="146.93" cy="61.42" rx="7.52" ry="9.45" transform="translate(70.33 201.03) rotate(-83.93)" style="fill: #a66128;"/>
    <ellipse cx="129.39" cy="62.45" rx="7.52" ry="9.45" transform="translate(53.62 184.52) rotate(-83.93)" style="fill: #a66128;"/>
    <path d="m148.46,164.36c-.25.08.2,1.53.41,3.99.06,1.2.1,2.73-.52,4.11-.31.68-.75,1.32-1.41,1.77-.66.45-1.5.75-2.42.93h-.03s-.07.03-.07.03c-2.61.7-6.25.19-8.38-2.11-1.02-1.08-1.66-2.43-2.05-3.87-.19-.72-.33-1.46-.44-2.19-.04-.25-.02-.11-.03-.17v-.04s.02-.02.04-.04h.02s.29-.03.29-.03l.57-.05c.37-.07.73-.13,1.09-.2.72-.12,1.4-.28,2.05-.44,1.28-.33,2.46-.63,3.55-.9,1.07-.29,2.04-.46,2.89-.63.85-.13,1.59-.18,2.2-.26,1.2.02,1.92-.04,1.95-.19.03-.15-.62-.39-1.91-.7-.64-.05-1.44-.14-2.36-.12-.91.05-1.97.12-3.09.31-1.13.16-2.34.42-3.62.63-.64.12-1.3.24-1.97.31-.34.04-.68.09-1.02.14-.43.02-.86.04-1.3.06l-1.08.06-.55.03h-.14s.01.14.01.14l.03.27c.07.69.14,1.38.21,2.08.09.8.23,1.63.43,2.47.41,1.68,1.21,3.45,2.55,4.87,1.43,1.56,3.4,2.45,5.24,2.8,1.87.36,3.73.26,5.41-.27l-.1.03c1.16-.27,2.28-.72,3.2-1.44.93-.72,1.53-1.73,1.86-2.67.66-1.93.38-3.62.14-4.92-.6-2.6-1.47-3.88-1.65-3.81Z" style="fill: #61828f;"/>
    <path d="m112.75,58.11c-.03-.07-.41.04-1.1.18-.17.03-.36.06-.58.1-.21.01-.45.03-.7.05-.25.02-.53,0-.82,0h-.22c-.07,0-.09-.01-.18-.03-.15-.03-.31-.06-.47-.09-1.25-.28-2.88-.61-4.11-1.69-.59-.56-1.1-1.27-1.2-2.18-.11-.44-.1-.87.03-1.26.07-.19.15-.37.27-.52l.04-.06c.07-.07.07-.05.08-.06h.04s.08-.04.08-.04l.16-.06.63-.24.32-.12c.11-.04.39-.1.57-.15l1.26-.31-.5-.14-.12-.04-.17-.06-.88-.24c-.67-.18-1.35-.36-2.04-.54-.81-.21-1.44-.39-2.16-.63-1.39-.46-2.75-1.11-3.74-2.17-1.08-1.1-1.72-2.52-1.86-3.92-.18-1.42.32-2.76.96-3.98,1.3-2.42,3.32-4.11,5.22-4.89,1.92-.76,3.69-.5,4.84-.21,1.16.29,1.8.55,1.84.45.03-.06-.52-.48-1.69-.94-1.13-.45-3.07-.92-5.31-.18-2.18.76-4.45,2.53-5.96,5.18-.18.33-.34.69-.52,1.03-.16.36-.28.75-.42,1.12-.11.39-.17.82-.24,1.24,0,.42-.06.85,0,1.28.15,1.73.93,3.44,2.19,4.72,1.22,1.29,2.82,2.01,4.29,2.49.72.23,1.54.45,2.14.6.01,0,.14,0,.07.02-.03.03,0-.03-.08.09-.22.29-.35.6-.45.91-.18.62-.16,1.28-.01,1.82.08.28.12.55.22.81.13.25.25.5.38.74.13.24.33.42.49.63l.25.3.29.24c.2.16.39.31.58.46.22.1.43.21.64.31.42.22.83.35,1.23.46.4.13.78.21,1.16.27.37.07.72.13,1.06.16.17.02.33.04.49.05.06,0,.2.03.28.01l.23-.02c.31-.03.59-.03.85-.08.26-.05.51-.1.74-.14.22-.07.42-.14.59-.2.69-.27,1.01-.51.99-.56Z" style="fill: #874b1b;"/>
    <path d="m132.01,52.82c-.02-.06-.32.03-.86.14-.13.02-.29.05-.45.08-.17.01-.35.02-.55.04-.19.02-.41,0-.64,0h-.17c-.06,0-.07,0-.14-.02-.12-.02-.24-.05-.37-.07-.98-.22-2.25-.48-3.21-1.32-.46-.44-.86-1-.94-1.7-.08-.34-.08-.68.03-.99.05-.15.12-.29.21-.4l.03-.05c.06-.05.05-.04.06-.05h.03s.06-.03.06-.03l.12-.05.5-.19.25-.09c.08-.03.3-.08.45-.12l.98-.24-.39-.11-.1-.03-.13-.04-.69-.18c-.53-.14-1.06-.28-1.59-.42-.64-.17-1.12-.31-1.69-.49-1.09-.36-2.15-.87-2.93-1.7-.84-.86-1.35-1.97-1.45-3.07-.14-1.11.25-2.16.75-3.12,1.02-1.89,2.6-3.22,4.08-3.83,1.5-.6,2.89-.39,3.79-.16.91.23,1.41.43,1.44.35.02-.05-.41-.37-1.32-.73-.89-.35-2.4-.72-4.16-.14-1.71.6-3.48,1.98-4.66,4.05-.14.26-.27.54-.4.81-.12.28-.22.58-.33.88-.09.31-.13.64-.19.97,0,.33-.05.67,0,1,.11,1.35.73,2.69,1.71,3.69.95,1.01,2.2,1.57,3.36,1.95.56.18,1.2.35,1.68.47,0,0,.11,0,.06.02-.02.02,0-.02-.06.07-.17.22-.28.47-.35.71-.14.49-.13,1-.01,1.42.06.22.09.43.18.64.1.2.2.39.3.58.1.19.26.33.38.49l.2.23.23.19c.15.12.3.24.45.36.17.08.34.16.5.24.33.17.65.27.96.36.31.1.61.16.9.21.29.06.57.1.83.13.13.01.26.03.39.04.05,0,.16.02.22,0h.18c.24-.04.46-.04.67-.08.21-.04.4-.08.58-.11.17-.06.32-.11.46-.16.54-.22.79-.4.78-.44Z" style="fill: #874b1b;"/>
    <path d="m160.17,245.62c-.06.06.11.32.53.7.43.35,1.14.77,2.1,1.04,1.89.56,4.64.62,7.53.14,1.32-.25,2.61-.43,3.78-.79.59-.15,1.13-.39,1.64-.58.5-.22.96-.48,1.39-.69l-.04.02c.94-.45,1.74-.87,2.24-1.24.49-.4.7-.68.64-.75-.07-.08-.38.05-.91.27-.55.21-1.33.47-2.35.82l-.04.02c-.41.16-.86.33-1.33.51-.5.13-1,.33-1.56.44-1.1.29-2.35.43-3.67.68-2.79.46-5.32.54-7.11.25-1.78-.26-2.7-.99-2.84-.83Z" style="fill: #61828f;"/>
    <path d="m109.95,242.45c-.11.06-.02.43.31,1.01.36.56,1.05,1.28,2.12,1.9,2.12,1.24,5.58,2.12,9.51,2.37,1.81.07,3.56.23,5.24.12.83-.01,1.64-.16,2.39-.23.76-.13,1.48-.31,2.13-.45h-.06c1.44-.27,2.68-.56,3.51-.87.84-.35,1.25-.64,1.21-.74-.05-.12-.52-.05-1.3.07-.81.09-1.95.19-3.43.32h-.06c-.61.09-1.27.17-1.97.26-.7.02-1.45.11-2.22.09-1.55.03-3.22-.16-5.03-.23-3.79-.24-7.06-.89-9.19-1.76-2.13-.84-2.91-2.01-3.17-1.85Z" style="fill: #61828f;"/>
    <path d="m147.48,215.61c-.15.11.21.75.83,1.61.13.21.27.45.43.7.07.13.1.26.16.39.04.12.13.3.13.35.08.71.19,1.49.33,2.31.24,1.61.74,3.17,1.05,4.15.34,1.01.65,1.64.83,1.62.18-.02.2-.71.08-1.82-.1-1.15-.41-2.5-.66-4.17-.14-.82-.28-1.6-.43-2.31-.07-.3-.19-.42-.27-.61-.1-.17-.18-.35-.29-.49-.23-.27-.44-.52-.64-.72-.84-.75-1.39-1.11-1.54-1Z" style="fill: #61828f;"/>
    <path d="m128.53,141.72c-.1.15.55.72,1.88,1.24,1.34.5,3.45.68,5.63.08,2.21-.57,3.8-1.9,4.84-2.83.94-1.06,1.38-1.79,1.22-1.91-.17-.13-.9.34-1.94,1.13-1.14.66-2.62,1.7-4.52,2.19-1.87.51-3.64.52-4.91.33-1.25-.21-2.08-.43-2.2-.22Z" style="fill: #979930;"/>
  </g>
  <g>
    <path d="m459.58,228.12c2.7-3.8,3.06-10.18-2.16-12.06-2.5-.88-5.92-.05-8.09,1.22-2.31,1.48-2.35,4.45-2.74,6.77-1.92-.83-3.88-1.84-6.08-1.49-2.02.3-4.28,1.22-5.38,2.97-1.14,1.57-1.44,3.5-1.24,5.11.11,2.01.72,2.97,2.46,3.85-1.5,1.66-2.74,3.62-2.73,6.03.19,2.36,2.24,3.71,4.51,4.46,2.54,1.05,4.92.66,7.66.18,2.34-.57,3.54.44,5.08,2.1,2.17,1.88,4.81,2.54,7.48.96,2.45-1.7,3.11-4.45,3.02-7.21,0-.74-.07-1.09.78-1.49.86-.39,2.02-.3,2.88-.7,2.8-1.05,4.49-3.49,4.58-6.29-.02-4.81-5.77-7.3-9.84-5.2" style="fill: #ffd271;"/>
    <path d="m428.16,230.3c.4-1.71.41-3.34-.78-4.87-2.04-2.55-4.9-1.85-7.63-.58-.42-1.72-.93-3.01-2.69-3.6-1.57-.63-3.58-.55-5.34-.33-3.92.54-3.9,4.79-2.06,7.38-3.77-.51-5.84,1.82-5.58,5.4.35,3.96,2.92,6.18,6.74,5.25.75,1.44.84,2.63,2.37,3.07,1.33.49,2.91.31,4.25-.02,2.72-.46,4.7-3.17,4.43-5.94.57-.14,1.29.29,1.91.35.62.05,1.24.1,1.81-.04,1.34-.32,2.25-.75,2.97-1.94.77-1,1.5-3,.08-3.87" style="fill: #fff;"/>
    <path d="m486.27,244.9c-.09-2.9-1.33-5.82-4.22-6.88-1.17-.46-3.2-.42-4.29.44-1.16,1.13-1.03,3.33-.68,4.71-.88.06-1.52-.26-2.39-.2-.61.13-1.12.42-1.73.55-1.19.69-2.36,1.82-2.44,3.24-.02,1.15.24,2.37.83,3.39.86,1.09,2.11,1.28,3.14,2.27-.2-.2-1.22,2.25-1.25,2.53-.09.84.13,1.64.56,2.36.92,1.53,2.75,2.5,4.45,2.87,1.63.35,3.58.22,4.75-1.11.2-.23.45-1.01.66-1.13.58-.34,1.25.12,1.91.3,1.48.42,2.75.45,4.12-.34,3.83-2.2,1.56-5.42-1.21-7.24,1.12-.42,2.27-.41,2.72-1.58.55-1,.3-2.22-.19-3.07-1.36-1.94-2.65-1.42-4.57-1.21" style="fill: #fc8271;"/>
    <path d="m479.15,247.67c-1.67,2.37,2.08,4.94,4.22,3.83,3.4-1.76-1.91-7.13-4.22-3.83Z" style="fill: #ffd271;"/>
    <path d="m453.47,235.15c1.41-1.27,1.61-2.8.15-4.11-1.54-1.66-4.5-2.05-6.14-.18-3.79,4.8,5.58,8.08,6.27,3.84" style="fill: #fff;"/>
    <path d="m419.02,232.72c.63-.76.92-1.24.68-2.19-.23-.96-.8-1.63-1.75-2.21-1.75-1.4-4.86-.85-5.45,1.73-.73,2,1.26,4.35,3.26,4.27,1.24.11,2.15-.32,2.92-1.32.48-.52.54-1.14,1.02-1.66" style="fill: #ffd271;"/>
  </g>
  <g>
    <path d="m21.39,245.53c-.34-1.73-1-3.21-2.71-4.13-2.9-1.49-5.23.32-7.2,2.6-1.09-1.4-2.09-2.37-3.93-2.18-1.69.07-3.49.97-5.01,1.89-3.35,2.1-1.59,5.97,1.15,7.58-3.64,1.08-4.58,4.05-2.87,7.21,1.95,3.47,5.19,4.44,8.3,2.03,1.28,1,1.85,2.06,3.42,1.83,1.41-.1,2.78-.91,3.87-1.76,2.3-1.53,2.99-4.81,1.61-7.23.47-.36,1.29-.26,1.88-.46.59-.21,1.17-.41,1.64-.78,1.09-.85,1.74-1.6,1.92-2.98.29-1.23.14-3.35-1.52-3.56" style="fill: #fff;"/>
    <path d="m46.13,230.79c-1.27-2.61-3.6-4.77-6.67-4.54-1.26.06-3.09.93-3.73,2.16-.6,1.51.43,3.46,1.32,4.58-.78.41-1.49.39-2.27.8-.5.37-.85.85-1.35,1.21-.8,1.12-1.4,2.63-.9,3.96.46,1.05,1.18,2.06,2.14,2.75,1.23.64,2.45.3,3.8.79-.27-.1-.19,2.55-.1,2.82.26.81.79,1.44,1.48,1.92,1.47,1.02,3.53,1.16,5.24.79,1.63-.35,3.36-1.27,3.88-2.96.09-.29,0-1.1.14-1.3.39-.55,1.19-.41,1.87-.51,1.52-.22,2.69-.71,3.62-2,2.6-3.57-.8-5.59-4.07-6.11.85-.85,1.9-1.3,1.84-2.56.09-1.14-.64-2.15-1.44-2.73-2.03-1.22-3-.21-4.67.77" style="fill: #fc8271;"/>
    <path d="m40.78,236.25c-.55,2.85,3.93,3.65,5.42,1.76,2.38-3-4.66-5.72-5.42-1.76Z" style="fill: #ffd271;"/>
    <path d="m14.05,251.48c.26-.95.33-1.5-.27-2.28-.6-.78-1.4-1.16-2.5-1.3-2.17-.55-4.78,1.22-4.27,3.81.15,2.12,2.93,3.45,4.73,2.56,1.18-.41,1.83-1.17,2.12-2.4.23-.67.02-1.26.25-1.93" style="fill: #ffd271;"/>
  </g>
  <g>
    <ellipse cx="318.53" cy="261.56" rx="66.81" ry="10.28" style="opacity: .1;"/>
    <g>
      <g>
        <path d="m361.48,222.01c-.09-.87-.42-1.48-.9-1.89-.21-.18-.44-.32-.7-.42-.12-.05-.25-.09-.38-.12,0,0,0,0,0,0-.8-.23-1.82-.18-2.8-.05-.98.13-2.01.39-2.96.68-1.47.47-2.66.94-3.15,1.14-.15.06-.24.1-.24.1,0,0-1.6,3.34-3.33,6.65-1.72,3.32-3.57,6.6-3.57,6.6,0,0-.48,4.25-.34,9.3.01.63.03,1.27.08,1.91.31,5.89,1.62,12.05,4.44,13.5.21.11.44.19.67.25.31.08.63.12.96.1.11,0,.21,0,.32-.03,4.87-.78,8.73-14.54,10.64-25.41.98-5.58,1.44-10.4,1.27-12.32Z" style="fill: #526f7a;"/>
        <path d="m350.13,223.34c-.16.65-.35,1.3-.55,1.95-.42,1.35-.94,2.68-1.55,3.97-1.27,2.7-2.92,5.19-4.76,7.54-4.13-.91-8.21-2.25-12.08-3.96-7.74-3.4-13.86-8.89-18.6-15.83-1.32-1.93-2.49-3.94-3.55-6.01-2.12-4.08-3.84-8.37-5.54-12.62,5.8-1.58,11.6-3.17,17.4-4.8,1.02-.28,2.04-.57,3.07-.85.62-.17.64-.34.84.28.93,2.8,1.73,5.63,2.8,8.38,1.28,3.28,2.78,6.51,4.9,9.31.75.98,1.57,1.9,2.48,2.76,2.36,2.21,5.24,3.86,8.18,5.17,1.37.61,2.79,1.15,4.2,1.64.67.24,1.36.43,2.03.64.18.06,1.07.21,1.17.38.18.3-.35,1.68-.44,2.06Z" style="fill: #f7cb9c;"/>
      </g>
      <g>
        <g>
          <path d="m311.13,258.31s0,0,0,0c-.18-3.04-3.62-7.27-4.44-8.24h-.01c-.11-.13-.17-.21-.17-.21l-13.63-1.27s-4.72,1.58-9.52,3.79c-4.81,2.21-9.73,5.05-10.13,7.53-.09.54,0,1.06.29,1.57,3.01,5.23,31.36,1.72,36.1-.5.11-.05.21-.12.31-.18.94-.57,1.27-1.47,1.19-2.5Z" style="fill: #526f7a;"/>
          <path d="m306.68,250.06c-.79.39-15.78,7.53-23.32,2.32,4.8-2.21,9.52-3.79,9.52-3.79l13.63,1.27s.06.08.17.21Z" style="fill: #f7cb9c;"/>
        </g>
        <path d="m306.71,250.05c-5.34,1.09-9.77.68-15.66-.82,0,0-1.62-8.34-3.07-16.72-1.47-8.38-2.64-16.84-2.64-16.84l-.4-2.91v-.1s-.03-.22-.08-.61c-.15-1.2-.5-4.06-.85-6.91-.42-3.75-.83-7.52-.83-7.52l20.04-.11s.1,3.54.18,7.08c.03,1.03.08,2.06.11,2.99.1,2.28.16,4.06.16,4.06v.06l.13,2.85s.44,8.77,1.22,17.63c.76,8.85,1.7,17.88,1.7,17.88Z" style="fill: #f7cb9c;"/>
      </g>
      <path d="m343.11,244c-.14-5.05.34-9.3.34-9.3,0,0,1.85-3.28,3.57-6.6,1.73-3.31,3.33-6.65,3.33-6.65,0,0,.09-.03.24-.1,3.32,3.86-.95,19.03-7.48,22.65Z" style="fill: #f7cb9c;"/>
      <polygon points="282.47 180.09 327.06 180.09 338.5 214.68 317.44 225.46 308.4 213.76 305.75 225.6 284.42 225.6 282.47 180.09" style="fill: #993e31;"/>
      <path d="m308.28,224.76c.67-2.37-1.38-2.85-6.07-3.37-4.69-.51-18.72,1.08-20,1.51s-.2,3.8.59,5.82,2.28.89,9.46.81c4.9-.06,9.4-.46,11.92.17s3-1.08,4.09-4.94Z" style="fill: #e0695a;"/>
      <path d="m338.75,211.19c-.54-2.4-2.57-1.85-6.94-.05-4.36,1.79-15.92,9.91-16.84,10.9s1.64,3.43,3.3,4.83,2.43-.31,8.69-3.82c4.28-2.4,8.03-4.91,10.55-5.56s2.12-2.38,1.23-6.29Z" style="fill: #e0695a;"/>
      <path d="m326.63,194.55c-.82,0-1.6-.24-2.35-.7-3.88-2.44-5.37-10.49-5.43-10.83-.05-.27.13-.53.4-.58.26-.04.53.13.58.4.01.08,1.47,7.96,4.98,10.16.88.55,1.79.69,2.78.41.27-.07.54.08.62.35.07.27-.08.54-.35.62-.42.12-.83.17-1.23.17Z" style="fill: #b04d40;"/>
    </g>
    <g>
      <path d="m349.84,185.54s-2.71,1.04-5.3,2.34c-2.58,1.3-5.05,2.85-4.51,3.99,1.06,2.29,7.24.05,7.24.05,0,0-1.64,2.69-3,5.62-1.36,2.94-2.44,6.13-1.22,7.21.82.74,2.35-.86,3.66-2.66,1.31-1.8,2.4-3.79,2.4-3.79,0,0-.48,2.35-.67,4.8-.19,2.45-.09,4.99,1.14,5.4,1.23.41,2.43-1.71,3.31-3.93.88-2.22,1.43-4.54,1.43-4.54,0,0,.24,2.29.72,4.56.48,2.28,1.18,4.55,2.16,4.5,1.77-.1,2.48-2.39,2.73-4.65.25-2.26.05-4.49.05-4.49,0,0,1.29,6.69,3.66,6.39,1.19-.15,1.52-2.71,1.54-5.23.02-2.52-.28-4.99-.28-4.99,0,0,.78-1.14,1.25-2.75.48-1.6.64-3.69-.56-5.52-2.43-3.67-12.18-4.7-15.74-2.33Z" style="fill: #f7cb9c;"/>
      <path d="m328.52,156.21c1.75-5.63,3.5-11.27,5.26-16.9,3.04.82,6.04,2.26,8.93,3.5,2.76,1.18,5.49,2.44,8.17,3.82,6.73,3.45,14.26,7.85,17.68,14.93,2.69,5.57,1.1,11.86-.43,17.55-.32,1.18-.64,2.35-.98,3.52-.28.98-.57,1.95-.86,2.92-.11.37-.4,2.16-.71,2.31-.17.08-.85-.2-1.02-.24l-2.21-.52c-3.48-.81-6.96-1.62-10.44-2.44.94-3.99,1.93-8.02,2.5-12.09.29-2.12.51-3.87-1.09-5.53-1.34-1.39-3.1-2.33-4.78-3.23-6.28-3.35-13.19-5.67-20.02-7.61Z" style="fill: #f7cb9c;"/>
    </g>
    <g>
      <g>
        <path d="m242.18,110.92s.38-3.03.57-6.06c.15-3.01.12-5.99-1.16-6.06-1.29-.07-2.3,1.55-2.95,3.22-.66,1.67-.97,3.38-.97,3.38,0,0-.39-.72-1.01-1.78-.63-1.05-1.49-2.45-2.4-3.83-1.87-2.74-3.96-5.39-5.59-4.91-1.12.31-.67,2.52.19,4.68.84,2.16,2.05,4.21,2.05,4.21,0,0-1.86-1.68-3.93-3.22-2.07-1.53-4.35-2.92-5.45-2.1-1.11.84.08,3.2,1.6,5.27,1.52,2.08,3.36,3.86,3.36,3.86,0,0-2.24-1.03-4.59-1.93-2.36-.88-4.85-1.68-5.37-.76-.92,1.67.83,3.75,2.81,5.32,1.99,1.56,4.19,2.64,4.19,2.64,0,0-1.73-.65-3.61-1.03-1.88-.37-3.88-.54-4.39.65-.51,1.2,1.77,3.05,4.16,4.53,1.21.73,2.44,1.37,3.37,1.83.92.46,1.56.73,1.56.73,0,0,.71,1.34,2.02,2.67,1.29,1.34,3.27,2.56,5.62,2.37,4.69-.41,10.35-9.23,9.94-13.67Z" style="fill: #f7cb9c;"/>
        <path d="m237.42,105.73c-.16-.12-.35-.17-.55-.14h0c-1.54.22-3,1.02-4,2.2-.26.31-.5.65-.7,1-.58,1.04-.85,2.2-.78,3.36.03.41.39.73.8.71.02,0,.04,0,.07,0,.18-.03.34-.11.46-.25.13-.15.2-.34.19-.55-.06-.85.15-1.76.58-2.54.15-.27.33-.53.52-.76.76-.9,1.87-1.52,3.05-1.69.41-.06.69-.44.65-.84-.02-.2-.12-.38-.28-.5Z" style="fill: #e8955d;"/>
      </g>
      <path d="m288.82,139.23c-1.38,5.3-2.76,10.62-4.15,15.92-.2.76-.39,1.52-.59,2.28-1.91-.64-3.84-1.25-5.74-1.93-.73-.26-1.44-.53-2.15-.81-2.18-.88-4.32-1.87-6.47-2.83-6.52-2.9-12.59-6.99-18.39-11.07-5.89-4.16-11.32-8.91-16.61-13.8-.48-.44-.95-.88-1.42-1.34-.11-.11-1.05-.83-1.06-1.04,0-.13.31-.41.41-.51.97-1.13,1.95-2.27,2.92-3.4,2.12-2.48,4.25-4.96,6.39-7.43,10.71,9.28,22.8,17.61,36.14,22.63.33.14.65.26.97.37,3.22,1.16,6.45,2.06,9.75,2.95Z" style="fill: #f7cb9c;"/>
    </g>
    <path d="m278.7,199.35c15.95,4.72,34.51,4.82,54.84,1.78l-2.99-23.07-1.37-10.58,20.35.76,3.98-25.62-15.15-4.85-67.85-12.77-8.95-.69-3.39,25.6,23.92,8.62-3.39,40.83Z" style="fill: #b283db;"/>
    <path d="m300.75,120.12c.12,1.2-1.95,11.42-1.95,11.42l5.11,5.8c1.75,1.57,4.32,1.8,6.33.58l7.22-4.39.73-12.47-17.43-.94Z" style="fill: #f2b87b;"/>
    <g>
      <path d="m264.28,90.88c-1.94,4.36.16,10.07,4.7,12.75,4.54,2.68,9.8,1.32,11.74-3.04,1.94-4.36-.16-10.07-4.7-12.75-4.54-2.68-9.8-1.32-11.74,3.04Z" style="fill: #f7cb9c;"/>
      <path d="m363.52,109.02c-.49,4.75-5.17,8.64-10.44,8.69-5.27.05-9.15-3.75-8.65-8.5.49-4.75,5.17-8.64,10.44-8.69,5.27-.05,9.15,3.75,8.65,8.5Z" style="fill: #f7cb9c;"/>
      <path d="m359.47,83.11c4.02-24.26-13.32-47.13-38.28-49.39-20.99-1.9-40.45,12.2-45.21,32.73-1.43,6.16-1.45,12.27-.3,18.03.87,4.38.68,8.89-.18,13.26-1.6,8.1.24,25.42,32.47,30.75,34.53,5.71,42.41-9.8,42.77-18.11.21-4.75,1.63-9.37,3.94-13.52,2.32-4.16,3.97-8.78,4.79-13.75Z" style="fill: #f7cb9c;"/>
      <path d="m355.83,47.82c-12.39-21.64-48.47-22.51-55.54-11.49-9.08-.88-20.87,3.12-26.11,16.68-.09.22-.18.44-.26.66-7.19,19.79,2.1,38.81,2.1,38.81,0,0,8.48-15.9,8.26-30.13,0,0,14.4-2.87,22.81-9.94,14.77,10.69,44.62,15.44,44.62,15.44-4.56,19.07-.89,36.22-.89,36.22,5.69-5.52,10.31-12.61,12.15-21.17,2.12-9.8.6-21.54-7.14-35.07Z" style="fill: #d48637;"/>
      <path d="m350.83,61.22c0-.09-.59-.15-1.64-.28-.53-.08-1.17-.17-1.92-.28-.37-.06-.78-.11-1.22-.15-.21-.02-.42-.05-.65-.07-.22-.04-.45-.08-.68-.12-1.87-.36-4.13-.69-6.59-1.17-2.45-.5-5.16-1.12-7.92-1.91-2.76-.78-5.26-1.97-7.53-3.01-2.2-1.15-4.13-2.32-5.6-3.49-1.47-1.17-2.6-2.24-3.43-2.92-.83-.68-1.31-1.03-1.37-.97-.05.06.33.52,1.06,1.29.73.78,1.76,1.93,3.22,3.22,1.46,1.3,3.4,2.56,5.64,3.8,2.29,1.13,4.82,2.35,7.68,3.17,2.84.81,5.56,1.4,8.07,1.85,2.5.43,4.77.68,6.66.94.24.03.48.06.7.09.23.01.46.02.68.03.42.02.83.04,1.2.06.75.05,1.42.08,1.95.09,1.08,0,1.68-.09,1.67-.16Z" style="fill: #c96526;"/>
      <path d="m288.25,52.55c.08.17,1.03-.04,2.5-.5.74-.2,1.63-.44,2.61-.7.98-.26,2.08-.49,3.21-.78,1.14-.21,2.25-.53,3.22-.66.97-.17,1.9-.23,2.68-.37.39-.07.74-.13,1.05-.19.31-.09.57-.18.79-.26.42-.16.64-.29.61-.38-.02-.09-.28-.13-.71-.13-.22,0-.47.02-.77.03-.31,0-.65,0-1.04,0-.77.02-1.69-.02-2.77.09-1.07.07-2.16.36-3.35.57-1.16.3-2.27.57-3.26.9-.98.36-1.87.66-2.58.99-1.42.7-2.25,1.21-2.18,1.37Z" style="fill: #c96526;"/>
      <path d="m307.25,50.55c-.06.01-.13-.2-.21-.61-.06-.4-.05-1-.05-1.68-.02-.34-.03-.7-.09-1.11-.06-.4-.07-.84-.16-1.29-.09-.45-.17-.92-.27-1.4-.13-.48-.25-.98-.4-1.48-.6-2.02-1.39-3.79-1.95-5.07-.56-1.29-.9-2.09-.79-2.16.1-.05.64.64,1.34,1.88.71,1.23,1.61,2.99,2.24,5.1.15.53.27,1.05.4,1.55.1.51.16,1.01.24,1.48.07.47.06.93.08,1.35.03.42,0,.82-.02,1.19-.08.72-.18,1.27-.23,1.65-.03.38-.07.6-.13.61Z" style="fill: #c96526;"/>
      <path d="m352.52,39.51c-1.84-5.98-1.56-14.34,7.06-19.91,8.61-5.58,22.36-2.64,27.54-1.8s3.4,2.09.22,11.34-15.19,25.79-32.61,14.41c-1.3-1.97-2.2-4.03-2.2-4.03Z" style="fill: #d48637;"/>
      <path d="m354.5,46.91c3.14-1.58,3.47-4.56.08-7.48-3.39-2.92-5.34,1.07-5.34,1.07l5.26,6.41Z" style="fill: #b34b3d;"/>
      <path d="m280.27,39.77c-6.15,1.18-14.42,0-19.03-9.17s-.21-22.52,1.18-27.57,2.44-3.15,11.3,1.01,24,17.88,10.8,33.97c-2.1,1.08-4.25,1.76-4.25,1.76Z" style="fill: #d48637;"/>
      <path d="m287.84,38.61c-1.23-3.3-4.16-3.94-7.42-.89s.48,5.42.48,5.42l6.94-4.53Z" style="fill: #b34b3d;"/>
      <path d="m352.58,113.44c.03.09.69.06,1.56-.63.43-.34.87-.89,1.1-1.63.04-.19.09-.38.13-.59-.02-.24.02-.52-.1-.75-.16-.53-.59-.84-.97-1.12l.04.03c-.41-.31-.93-.37-1.33-.37-.39,0-.8.04-.96,0-.02,0,0,0-.02-.02-.03-.02-.06-.03-.06-.05-.03-.02-.03-.05-.05-.08-.02-.08.02-.26.09-.44.16-.37.44-.75.72-1.08.27-.32.6-.65.85-.84.29-.17.6-.32.89-.35.58-.11,1.09.07,1.44.22.35.15.55.25.61.19.04-.05-.06-.26-.38-.54-.3-.27-.89-.66-1.73-.63-.42,0-.84.14-1.29.35-.44.28-.76.57-1.11.93-.34.36-.69.77-.95,1.32-.11.29-.25.62-.17,1.07.05.22.15.44.31.61.07.1.16.15.24.21.09.04.21.17.33.17.59.11.93.03,1.27.03.33-.01.55.03.7.13l.04.03c.27.18.53.36.59.58.08.1.03.22.08.33-.02.15-.04.3-.06.44-.12.58-.4,1.05-.7,1.39-.6.7-1.17.96-1.11,1.1Z" style="fill: #e8955d;"/>
      <path d="m272.29,100.76c-.03.09-.69.06-1.56-.63-.43-.34-.87-.89-1.1-1.63-.04-.19-.09-.38-.13-.59.02-.24-.02-.52.1-.75.16-.53.59-.84.97-1.12l-.04.03c.41-.31.93-.37,1.33-.37.39,0,.8.04.96,0,.02,0,0,0,.02-.02.03-.02.06-.03.06-.05.03-.02.03-.05.05-.08.02-.08-.02-.26-.09-.44-.16-.37-.44-.75-.72-1.08-.27-.32-.6-.65-.85-.84-.29-.17-.6-.32-.89-.35-.58-.11-1.09.07-1.44.22-.35.15-.55.25-.61.19-.04-.05.06-.26.38-.54.3-.27.89-.66,1.73-.63.42,0,.84.14,1.29.35.44.28.76.57,1.11.93.34.36.69.77.95,1.32.11.29.25.62.17,1.07-.05.22-.15.44-.31.61-.07.1-.16.15-.24.21-.09.04-.21.17-.33.17-.59.11-.93.03-1.27.03-.33-.01-.55.03-.7.13l-.04.03c-.27.18-.53.36-.59.58-.08.1-.03.22-.08.33.02.15.04.3.06.44.12.58.4,1.05.7,1.39.6.7,1.17.96,1.11,1.1Z" style="fill: #e8955d;"/>
      <path d="m339.97,86.34c-.12.13-.64-.07-1.37-.51-.7-.47-1.73-1.02-2.8-1.72-2.23-1.28-4.01-2.53-3.83-2.85.17-.31,2.19.39,4.5,1.72,1.13.73,2.12,1.44,2.7,2.12.61.65.92,1.1.79,1.24Z" style="fill: #c96526;"/>
      <path d="m297.95,76.27c0,.18-.51.4-1.33.61-.83.16-1.94.5-3.2.76-2.49.67-4.62,1.05-4.72.69-.1-.34,1.82-1.27,4.4-1.97,1.31-.28,2.52-.48,3.41-.41.89.03,1.43.13,1.44.32Z" style="fill: #c96526;"/>
      <path d="m314.29,104.06c-.19.05-.45-.42-.93-1.02-.48-.59-1.27-1.37-2.22-1.45-.88-.1-1.77.67-2.42,1.17-.67.52-1.2.77-1.31.63-.11-.14.14-.59.65-1.29.25-.35.61-.75,1.1-1.15.49-.38,1.26-.75,2.11-.67.84.06,1.49.5,1.97.93.48.45.76.94.95,1.37.36.87.29,1.46.13,1.49Z" style="fill: #e8955d;"/>
      <path d="m308.83,108.15c2.5.49,6.89.48,8.76.66,1.87.18,1.96,1.96-.26,6.29-2.22,4.33-8.94,5.14-12.12,1.33-3.18-3.81-2.81-8.43-2.01-8.68.8-.25,1.7-.36,5.63.41Z" style="fill: #b34b3d;"/>
      <path d="m306.61,117.67c3.42-6.55,8.72-6.25,11.63-4.54-.25.59-.55,1.23-.92,1.96-1.93,3.76-7.26,4.86-10.71,2.58Z" style="fill: #fc8271;"/>
      <g>
        <path d="m330.79,91.49c-2.59-1.37-5.04,4.08-2.93,5.59,1.77,1.27,3.59-.39,4.05-2.05.33-1.19-.06-2.98-1.12-3.54Z" style="fill: #42210b;"/>
        <path d="m330.59,91.95c-2.01-.93-3.21,2.31-2.98,3.81.09.61.51.94,1.04,1.18.85.38,1.7-.3,2.2-.9.96-1.14.98-3.3-.37-4.16-.54-.35.07-1.13.61-.79,3.94,2.51-.98,9.68-4.02,5.9-1.8-2.23.95-7.34,3.91-5.97.58.27.19,1.19-.39.92Z" style="fill: #42210b;"/>
      </g>
      <g>
        <path d="m296.53,87.06c-2.92.21-2.12,6.13.47,6.3,2.17.14,2.84-2.23,2.35-3.88-.35-1.18-1.63-2.5-2.83-2.41Z" style="fill: #42210b;"/>
        <path d="m296.6,87.56c-2.2.27-1.51,3.66-.52,4.81.4.47.93.53,1.51.45.92-.12,1.29-1.15,1.4-1.92.21-1.48-.92-3.32-2.51-3.34-.64,0-.54-1,.1-.99,4.67.05,4.29,8.73-.3,7.14-2.71-.94-3.08-6.74.17-7.13.64-.08.8.91.15.99Z" style="fill: #42210b;"/>
      </g>
    </g>
    <path d="m328.32,166.97c-1-5.67-2.01-11.15-.69-16.88.05-.23-.34-.34-.41-.11-1.72,5.63-1.34,11.48.19,17.12.15.56,1.02.47.91-.13Z" style="fill: #9769bf;"/>
    <path d="m332.61,150.06c-1.53,4.4-2.6,9.1-2.94,13.75-.03.48.66.57.74.09.77-4.61,1.55-9.18,2.55-13.75.04-.2-.29-.29-.36-.1Z" style="fill: #9769bf;"/>
    <path d="m280.75,137.8c-.12-.39-.77-.21-.68.19,1.27,6.23,2.15,11.98,1.22,18.36-.11.78,1.11.94,1.22.16.83-6.39.14-12.56-1.75-18.7Z" style="fill: #9769bf;"/>
    <path d="m286.85,145.02c0-.11-.16-.09-.18,0-.85,3.93-1.97,7.67-3.34,11.44-.21.56.58.88.85.36,1.87-3.61,2.77-7.76,2.67-11.8Z" style="fill: #9769bf;"/>
    <path d="m296.23,135.2c-.12.07.47,1.43,2.12,3.15.43.41.88.89,1.46,1.29.28.21.57.44.88.65.33.19.66.38,1.01.58,1.41.71,3.12,1.37,5.02,1.33,3.75-.02,6.79-1.54,8.79-2.68,2.02-1.19,3.11-2.13,3.02-2.27-.1-.17-1.38.5-3.45,1.44-2.05.91-5.01,2.18-8.35,2.19-1.65.04-3.18-.51-4.49-1.1-.32-.16-.64-.32-.95-.48-.3-.18-.57-.37-.85-.55-.57-.33-1.02-.74-1.46-1.09-1.71-1.44-2.57-2.59-2.76-2.47Z" style="fill: #9769bf;"/>
    <path d="m289.8,250.56c2.91,1.72,4.62,5.03,4.45,8.36-.03.58.51,1.07,1.07,1.07.6,0,1.04-.49,1.07-1.07.21-4.09-1.99-8.12-5.51-10.21-1.19-.7-2.26,1.14-1.08,1.85h0Z" style="fill: #526f7a;"/>
    <path d="m343.96,238.84c3.3-1.51,7.25-.99,10.08,1.2.49.38,1.26.2,1.6-.29.37-.53.2-1.22-.29-1.6-3.47-2.68-8.37-3.21-12.36-1.39-1.35.61-.38,2.69.97,2.08h0Z" style="fill: #526f7a;"/>
  </g>
</svg>