<?xml version="1.0" encoding="UTF-8"?>
<svg id="a" data-name="Режим изоляции" xmlns="http://www.w3.org/2000/svg" viewBox="0 0 26.23 29.12">
  <defs>
    <style>
      .b {
        fill: #95c11f;
      }

      .c {
        fill: #008d36;
      }
    </style>
  </defs>
  <path class="c" d="m17.56,6.05c-.13,1.35-1.13,6.88-.58,7.8.13.21.4.16.59-.04s.92-1.71,1.29-2.61c.26-.66.58-1.55.76-2.03s.71-2.84.77-3.52c.06-.72.24-1.42.23-2.15,0-.43.06-.87-.15-1.24-.22-.38-.54-.67-1-.66-.67.02-1.11.31-1.39.92-.25.53-.35,1.01-.42,1.34-.06.28-.17.69-.15,1.13,0,.2.1.63.06,1.06Z"/>
  <path class="c" d="m12.08,4.99c.08.32.21.64.27.82.58,2.11.42,4.47.92,6.63.03.14.07.43.15.43s.12-.3.16-.46c.06-.25.1-.77.14-1,.13-1.14.79-5.38.91-5.8.23-.81.28-1.46.26-1.89-.03-.54-.06-1.07-.08-1.6-.02-.37.04-.74-.02-1.11-.05-.29-.06-.51-.29-.68-.16-.12-.35-.21-.56-.26-.72-.18-1.31.1-1.68.64-.19.28-.24.61-.22.94.02.47.01.95.02,1.42,0,.59-.05,1.58.03,1.94Z"/>
  <path class="c" d="m22.01,12.13c-.91,2.98-3.41,5.73-2.57,8.98.1.3.32.38.52.49.58.14,1.27.02,2.02-.08.05-.35.06-.71.09-1.07.04-.55.06-1.09.03-1.63-.02-.27-.03-.54-.02-.82.01-.41.08-.81.2-1.21.13-.43.3-.84.49-1.24.14-.27.28-.54.43-.81.17-.29.32-.58.49-.86.2-.31,1.38-2.53,1.58-2.93.23-.44.48-.86.63-1.34.15-.46.29-.91.31-1.41.02-.39-.06-.73-.27-1.05-.17-.26-.41-.45-.71-.52-.49-.11-.86.12-1.16.49-.16.19-.28.37-.35.47-.15.25-.58,1.16-.79,1.73-.19.52-.68,1.93-.94,2.8Z"/>
  <path class="c" d="m6.37,25c.1-1.38-.42-2.77-.01-4.12.08-.36.19-.72.29-1.09-.16.05-.34.05-.51-.04-.28-.16-.56-.35-.81-.56-.13-.11-.28-.21-.38-.36-.1-.17-.2-.32-.29-.49-.24-.46-.57-.85-.89-1.25-.24-.31-.49-.61-.81-.85-.15-.11-.3-.21-.44-.32-.26-.18-.55-.29-.84-.38-.32-.1-.66-.06-.96.07-.28.12-.54.27-.65.6-.04.12-.06.24-.07.35-.02.19-.02.4.09.58.09.14.2.27.31.4.19.25.39.48.55.75.08.15.19.3.29.44.17.25.35.5.49.77.18.34.32.71.57,1,.26.29.49.61.77.89.34.35.65.72,1.01,1.05.02.02.03.03.05.05.19.25.43.44.65.66.11.11.23.2.3.34.23.43.57.77.89,1.12.14.15.25.32.37.48,0-.03.02-.06.02-.08Z"/>
  <path class="c" d="m20.58,25.59c-1.64.46-3.3,1.22-4.69,2.28-.38.31-.74.65-1.06,1.01-.02.02-.03.05-.05.07.22-.04.45-.08.68-.11.36-.05.73-.09,1.08-.07.53.03,1.06.08,1.59.03.29-.03.58-.07.85-.2.45-.21.78-.55,1.1-.93.19-.22.51-.8.6-.98.12-.24.22-.5.32-.76.06-.15.12-.31.17-.46-.2.04-.39.07-.59.12Z"/>
  <path class="c" d="m6.27,7.1c.12.56.21,1.07.36,1.35.09.16.98,1.42,1.27,2.08.67,1.51,1.62,3.56,1.93,3.5.22-.05.03-2.21.03-2.75,0-1.67-.4-3.65-.52-4.42s-.34-1.29-.44-1.9c-.11-.64-.34-1.22-.67-1.78-.14-.24-.35-.43-.59-.55-.3-.16-.64-.19-.97-.07-.26.1-.52.2-.67.44-.23.36-.28.76-.27,1.18,0,.5.1.99.2,1.48.1.48.24.95.34,1.43Z"/>
  <path class="b" d="m18.51,21.7c-.97-2.88,1.6-5.79,2.48-8.67.32-1.04,1.1-2.23.61-3.31-.43-.84-1.04-.63-1.51.07-.56.78-.82,1.72-1.17,2.6-.38.96-.87,1.86-1.37,2.76-.17.27-.61.59-.92.47-1-.38.17-6.84.3-8.22.15-1.54-1.34-2.05-1.9-.8-.17.38-.34.96-.4,1.52-.06.54-.17.81-.22,1.34-.13,1.11-.32,2.05-.47,3.21-.09.64-.17,1.45-.4,1.89-.04.08-.11.24-.2.24s-.1-.13-.13-.19c-.87-2.35-.61-5.07-1.27-7.47-.48-1.48-2.08-.45-1.93.79.07,1.45.51,3,.46,4.45-.01.81.54,4.73-1.05,2.63-.35-.57-.92-1.65-1.59-3.17-.69-1.57-2.42-3.34-2.47-.9-.03,1.26,1.92,4.03,2.35,6.24.29,1.26-.31,2.46-.57,3.68-.4,1.33.12,2.69.01,4.04-.04.17-.09.34-.14.51.02.03.04.05.06.08.14.16.27.33.39.5.27.39.58.75.9,1.1,0,0,0,0,0,0,.13-.29.22-.53.27-.7.24-.55.28-1.15.25-1.74-.04-.98.27-1.88.49-2.82.08-1.78-1.69-4.2-1.03-5.24.45-.3.77.28.85.68.17.83.6,2.12,1.34,2.58.18.11.33-.05.35-.26.08-1.32.29-2.63.35-3.95.12-.45-.11-1.23.43-1.31.46-.07.82.34.77.92-.11,1.3-.04,2.62-.09,3.95-.04,1.09.68-.08.83-.5.32-.87.68-1.63.97-2.47.14-.41.36-.79.47-1.22.16-.52.8-.44,1.01,0,.16.36-.06.73-.11,1.09-.26.82-.4,1.72-.72,2.52-1.16,2.88.12,1.48,1.2.08.38-.49.73-1,1.12-1.46.06-.1.16-.12.25-.14.49,0,.81.57.55,1.02-.51.89-.96,1.81-1.64,2.6-.38.49-2.63,3.73-.64,3.02.75-.36,1.46-.83,2.32-.8.71-.06,1.55.57.71,1.1-.76.29-1.32.67-2.04,1.05-.27.17-.49.41-.72.64-.31.31-.69.49-1.11.56-.71.16-1.37.49-1.98.89-.35.29-.63.61-.7,1.07-.04.3-.17.56-.29.83.49.05.98,0,1.46-.07.21-.03.41-.07.62-.11.04-.05.07-.1.1-.15,1.56-1.74,3.84-2.93,6.08-3.56.23-.05.53-.11.69-.14l.63-.1c.41-.06.81-.11,1.22-.16.51-.01.98-.36,1.5-.25.41.07.91.19,1.25.07.16-.06.27-.17.33-.37.03-.1.08-.34,0-.44-2.48-3.62-6.21.14-7.21-2.12Z"/>
</svg>