<svg xmlns="http://www.w3.org/2000/svg" viewBox="0 0 46.12 46.29">
  <defs>
    <style>
      .b-logo {
        fill: #95c11f;
      }

      .c-logo {
        fill: #008d36;
      }

      .d-logo {
        fill: #1d1d1b;
      }
    </style>
  </defs>
  <path class="c-logo" d="m26.87,13.6c-.13,1.35-1.13,6.88-.58,7.8.13.21.4.16.59-.04s.92-1.71,1.29-2.61c.26-.66.58-1.55.76-2.03s.71-2.84.77-3.52c.06-.72.24-1.42.23-2.15,0-.43.06-.87-.15-1.24-.22-.38-.54-.67-1-.66-.67.02-1.11.31-1.39.92-.25.53-.35,1.01-.42,1.34-.06.28-.17.69-.15,1.13,0,.2.1.63.06,1.06Z"/>
  <path class="c-logo" d="m21.39,12.54c.08.32.21.64.27.82.58,2.11.42,4.47.92,6.63.03.14.07.43.15.43s.12-.3.16-.46c.06-.25.1-.77.14-1,.13-1.14.79-5.38.91-5.8.23-.81.28-1.46.26-1.89-.03-.54-.06-1.07-.08-1.6-.02-.37.04-.74-.02-1.11-.05-.29-.06-.51-.29-.68-.16-.12-.35-.21-.56-.26-.72-.18-1.31.1-1.68.64-.19.28-.24.61-.22.94.02.47.01.95.02,1.42,0,.59-.05,1.58.03,1.94Z"/>
  <path class="c-logo" d="m31.32,19.67c-.91,2.98-3.41,5.73-2.57,8.98.1.3.32.38.52.49.58.14,1.27.02,2.02-.08.05-.35.06-.71.09-1.07.04-.55.06-1.09.03-1.63-.02-.27-.03-.54-.02-.82.01-.41.08-.81.2-1.21.13-.43.3-.84.49-1.24.14-.27.28-.54.43-.81.17-.29.32-.58.49-.86.2-.31,1.38-2.53,1.58-2.93.23-.44.48-.86.63-1.34.15-.46.29-.91.31-1.41.02-.39-.06-.73-.27-1.05-.17-.26-.41-.45-.71-.52-.49-.11-.86.12-1.16.49-.16.19-.28.37-.35.47-.15.25-.58,1.16-.79,1.73-.19.52-.68,1.93-.94,2.8Z"/>
  <path class="c-logo" d="m15.68,32.55c.1-1.38-.42-2.77-.01-4.12.08-.36.19-.72.29-1.09-.16.05-.34.05-.51-.04-.28-.16-.56-.35-.81-.56-.13-.11-.28-.21-.38-.36-.1-.17-.2-.32-.29-.49-.24-.46-.57-.85-.89-1.25-.24-.31-.49-.61-.81-.85-.15-.11-.3-.21-.44-.32-.26-.18-.55-.29-.84-.38-.32-.1-.66-.06-.96.07-.28.12-.54.27-.65.6-.04.12-.06.24-.07.35-.02.19-.02.4.09.58.09.14.2.27.31.4.19.25.39.48.55.75.08.15.19.3.29.44.17.25.35.5.49.77.18.34.32.71.57,1,.26.29.49.61.77.89.34.35.65.72,1.01,1.05.02.02.03.03.05.05.19.25.43.44.65.66.11.11.23.2.3.34.23.43.57.77.89,1.12.14.15.25.32.37.48,0-.03.02-.06.02-.08Z"/>
  <path class="c-logo" d="m29.89,33.13c-1.64.46-3.3,1.22-4.69,2.28-.38.31-.74.65-1.06,1.01-.02.02-.03.05-.05.07.22-.04.45-.08.68-.11.36-.05.73-.09,1.08-.07.53.03,1.06.08,1.59.03.29-.03.58-.07.85-.2.45-.21.78-.55,1.1-.93.19-.22.51-.8.6-.98.12-.24.22-.5.32-.76.06-.15.12-.31.17-.46-.2.04-.39.07-.59.12Z"/>
  <path class="c-logo" d="m15.58,14.65c.12.56.21,1.07.36,1.35.09.16.98,1.42,1.27,2.08.67,1.51,1.62,3.56,1.93,3.5.22-.05.03-2.21.03-2.75,0-1.67-.4-3.65-.52-4.42s-.34-1.29-.44-1.9c-.11-.64-.34-1.22-.67-1.78-.14-.24-.35-.43-.59-.55-.3-.16-.64-.19-.97-.07-.26.1-.52.2-.67.44-.23.36-.28.76-.27,1.18,0,.5.1.99.2,1.48.1.48.24.95.34,1.43Z"/>
  <path class="b-logo" d="m27.82,29.24c-.97-2.88,1.6-5.79,2.48-8.67.32-1.04,1.1-2.23.61-3.31-.43-.84-1.04-.63-1.51.07-.56.78-.82,1.72-1.17,2.6-.38.96-.87,1.86-1.37,2.76-.17.27-.61.59-.92.47-1-.38.17-6.84.3-8.22.15-1.54-1.34-2.05-1.9-.8-.17.38-.34.96-.4,1.52-.06.54-.17.81-.22,1.34-.13,1.11-.32,2.05-.47,3.21-.09.64-.17,1.45-.4,1.89-.04.08-.11.24-.2.24s-.1-.13-.13-.19c-.87-2.35-.61-5.07-1.27-7.47-.48-1.48-2.08-.45-1.93.79.07,1.45.51,3,.46,4.45-.01.81.54,4.73-1.05,2.63-.35-.57-.92-1.65-1.59-3.17-.69-1.57-2.42-3.34-2.47-.9-.03,1.26,1.92,4.03,2.35,6.24.29,1.26-.31,2.46-.57,3.68-.4,1.33.12,2.69.01,4.04-.04.17-.09.34-.14.51.02.03.04.05.06.08.14.16.27.33.39.5.27.39.58.75.9,1.1,0,0,0,0,0,0,.13-.29.22-.53.27-.7.24-.55.28-1.15.25-1.74-.04-.98.27-1.88.49-2.82.08-1.78-1.69-4.2-1.03-5.24.45-.3.77.28.85.68.17.83.6,2.12,1.34,2.58.18.11.33-.05.35-.26.08-1.32.29-2.63.35-3.95.12-.45-.11-1.23.43-1.31.46-.07.82.34.77.92-.11,1.3-.04,2.62-.09,3.95-.04,1.09.68-.08.83-.5.32-.87.68-1.63.97-2.47.14-.41.36-.79.47-1.22.16-.52.8-.44,1.01,0,.16.36-.06.73-.11,1.09-.26.82-.4,1.72-.72,2.52-1.16,2.88.12,1.48,1.2.08.38-.49.73-1,1.12-1.46.06-.1.16-.12.25-.14.49,0,.81.57.55,1.02-.51.89-.96,1.81-1.64,2.6-.38.49-2.63,3.73-.64,3.02.75-.36,1.46-.83,2.32-.8.71-.06,1.55.57.71,1.1-.76.29-1.32.67-2.04,1.05-.27.17-.49.41-.72.64-.31.31-.69.49-1.11.56-.71.16-1.37.49-1.98.89-.35.29-.63.61-.7,1.07-.04.3-.17.56-.29.83.49.05.98,0,1.46-.07.21-.03.41-.07.62-.11.04-.05.07-.1.1-.15,1.56-1.74,3.84-2.93,6.08-3.56.23-.05.53-.11.69-.14l.63-.1c.41-.06.81-.11,1.22-.16.51-.01.98-.36,1.5-.25.41.07.91.19,1.25.07.16-.06.27-.17.33-.37.03-.1.08-.34,0-.44-2.48-3.62-6.21.14-7.21-2.12Z"/>
  <g>
    <path class="d-logo" d="m6.87,36.08c.23-.17.47-.34.7-.51.22-.15.44-.31.66-.47.22-.16.44-.31.66-.47.19-.15.23-.34.1-.52-.1-.15-.22-.29-.36-.41-.24-.2-.5-.33-.78-.37-.29-.05-.59.02-.9.21-.08.05-.15.09-.22.14-.07.05-.14.09-.21.14-.06.03-.11.07-.17.1-.05.03-.1.06-.15.09-.23.13-.45.26-.67.4-.23.15-.43.34-.6.56-.02.02-.03.03-.05.05l-.06.05c-.11.08-.22.16-.33.24-.11.08-.23.16-.34.24-.11.08-.19.18-.22.26-.05.07-.06.15-.05.24.02.09.07.16.15.21.1.06.17.14.22.23l.18.32c.06.1.07.15.08.15,0,.01-.04.05-.13.11-.13.1-.25.19-.36.28-.1.09-.2.17-.31.24-.1.08-.21.15-.32.23-.11.08-.23.16-.36.23-.04.02-.08.04-.11.06-.04.03-.08.06-.11.09-.05.05-.08.1-.1.16-.02.06-.03.15.05.24.07.09.15.12.2.12.01,0,.02,0,.03,0,.06,0,.11-.03.18-.06l.47-.3c.17-.12.33-.24.47-.34.15-.11.3-.21.44-.32.15-.11.29-.22.45-.33.15-.11.33-.23.51-.38.08-.05.18-.11.29-.18.12-.07.23-.15.35-.23.24-.17.48-.34.71-.51Zm1.46-1.8c-.06.05-.12.09-.17.14-.08.06-.16.13-.25.19l-1.91,1.38-.42.28c-.14.09-.27.18-.41.26-.08.04-.12.05-.12.06,0,0-.03-.04-.08-.12-.06-.08-.11-.15-.16-.23-.05-.08-.1-.16-.14-.25-.02-.04-.03-.06-.04-.07,0,0,.02-.03.06-.06.62-.47,1.27-.93,1.92-1.38.08-.06.16-.11.24-.16.09-.05.18-.11.27-.18.18-.14.37-.19.57-.16.21.03.39.1.55.24.02.01.04.03.05.04,0,0,.01.02.02.03Z"/>
    <path class="d-logo" d="m9.38,38.01c.09-.09.18-.19.26-.29.08-.1.17-.2.25-.3.08-.11.16-.22.22-.33.07-.11.13-.22.18-.34.08-.14.13-.29.15-.44.02-.16,0-.31-.08-.47.02,0,.04,0,.06,0,.16.02.32.02.48,0,.17-.02.33-.09.46-.2.21-.17.37-.4.48-.66.12-.28.12-.56,0-.85-.05-.12-.1-.23-.16-.33-.06-.1-.11-.2-.17-.31-.08-.13-.18-.21-.29-.22-.12-.02-.24.03-.38.14-.07.07-.14.14-.2.21-.06.07-.13.14-.19.21l-.4.48c-.13.15-.27.31-.41.46-.28.28-.56.56-.84.83-.28.27-.57.55-.85.82l-.49.46c-.16.15-.32.31-.48.48-.16.17-.33.34-.48.5-.16.17-.32.34-.48.51-.08.09-.12.18-.1.28.01.09.07.17.18.23l.15.08s.07.05.11.08l.71.76c.09.1.16.15.24.16,0,0,.02,0,.03,0,.07,0,.15-.03.24-.1.04-.03.07-.06.1-.08l.46-.47c.12-.13.25-.26.37-.4.15-.15.29-.3.43-.45.14-.15.28-.3.42-.46Zm.47-1.55c-.1.17-.2.34-.3.5-.1.16-.22.31-.35.44l-.42.43c-.07.07-.15.16-.25.27l-.94,1.01c-.11.13-.18.14-.2.14h0s-.09-.01-.21-.13c-.09-.1-.17-.19-.25-.28-.08-.1-.16-.19-.25-.31,0,0,0-.02.04-.05.14-.17.28-.33.43-.49.15-.16.29-.32.45-.47.26-.26.52-.52.79-.78.27-.25.53-.51.78-.76.07-.05.13-.11.18-.16.05-.05.1-.1.15-.13.05-.03.07-.04.08-.04.02,0,.02.01.04.03.11.15.21.33.3.52.02.04.02.07.01.11-.01.05-.03.1-.06.15Zm.3-1.44c.08-.09.16-.18.24-.27.08-.09.16-.19.24-.28l.38-.44s.08-.07.11-.07h0s.07.03.11.09c.12.18.18.37.17.55-.01.18-.09.34-.23.48-.12.12-.29.18-.5.18h-.01c-.2,0-.37-.05-.49-.16-.04-.04-.04-.05,0-.08Z"/>
    <path class="d-logo" d="m12.59,38.9c.12-.13.23-.29.32-.44.05-.07.08-.15.11-.25v-.02s0-.03,0-.03c0-.03-.02-.07-.04-.11-.03-.07-.07-.1-.11-.12-.08-.05-.18-.04-.26.02-.04.02-.08.05-.1.08l-.04.06c-.07.08-.13.17-.19.25-.06.08-.12.15-.18.23l-.22.27c-.08.09-.15.19-.22.29-.06.09-.12.17-.18.24-.05.06-.12.09-.23.09-.05,0-.09.03-.12.06h-.03c-.21.11-.42.2-.63.29-.12.05-.25.1-.37.16,0,0,0,0,0,0,.07-.09.14-.19.2-.27l.15-.16c.05-.06.1-.11.14-.17l.78-1.08c.08-.11.16-.22.25-.33.09-.11.18-.22.26-.34.07-.1.12-.2.15-.32.02-.1-.02-.19-.1-.25-.08-.06-.16-.07-.25-.05l-.04.02s-.08.06-.12.08c-.06.04-.11.08-.14.13-.1.13-.2.26-.29.39l-.28.39c-.18.26-.36.52-.54.78-.18.25-.37.5-.58.74-.16.18-.31.36-.47.54s-.31.36-.46.55c-.03.04-.05.08-.07.12-.02.04-.03.08-.04.13-.02.06-.03.12-.03.18,0,.06.03.15.15.22.13.08.28.05.39-.07.07-.07.14-.13.22-.17.09-.05.18-.09.27-.13.08-.03.15-.06.21-.1.05-.03.11-.06.19-.09l.45-.21c.06-.03.12-.06.19-.09-.11.14-.22.29-.32.43-.16.22-.33.44-.5.67-.03.04-.06.07-.08.11-.03.04-.07.08-.11.15-.07.13-.05.27.08.39.07.05.13.07.2.07.08,0,.16-.03.22-.1.03-.02.05-.05.07-.09,0-.01.02-.03.03-.04l.43-.61c.14-.2.29-.4.44-.59.25-.32.49-.64.74-.95.24-.31.48-.63.73-.94Z"/>
    <path class="d-logo" d="m14.47,40.81c.17,0,.31-.03.43-.1.11-.07.21-.16.31-.27.1-.12.17-.26.21-.4.04-.13.07-.26.1-.39.02-.08.02-.15-.01-.22-.04-.08-.11-.13-.2-.14-.11-.02-.18.02-.22.05-.04.04-.07.09-.08.13-.04.08-.07.16-.09.23-.02.06-.04.12-.07.19-.12.24-.29.34-.57.3-.02,0-.03,0-.03,0,0,0,0-.03.02-.06.02-.05.03-.09.06-.13.03-.05.05-.1.08-.15.07-.14.09-.25.06-.34-.02-.06-.07-.11-.15-.15-.09-.03-.26-.04-.38.19-.05.06-.09.13-.13.21-.02.05-.05.11-.08.16,0,0-.01.01-.02.02,0,0,0,0-.01-.02-.04-.07-.03-.15.01-.24.04-.08.09-.16.13-.24.05-.08.1-.17.14-.25.07-.13.11-.26.12-.36.02-.09.01-.17-.03-.25-.04-.08-.11-.12-.18-.13-.12-.02-.19.01-.23.05-.04.04-.08.08-.1.13-.05.08-.1.16-.14.25-.04.08-.08.16-.13.23-.12.2-.19.39-.2.59-.02.19.03.39.15.59-.27.11-.5.27-.69.46-.2.2-.36.44-.48.72l-.26.62c-.08.2-.18.4-.31.6-.03.06-.05.11-.06.16-.02.15.05.26.2.32.04,0,.08,0,.12,0,.06,0,.11-.03.13-.06.09-.06.16-.16.19-.26.08-.18.16-.37.24-.55.08-.18.15-.36.23-.55.06-.16.15-.3.26-.41.12-.12.25-.24.39-.35.01-.01.03-.02.04-.03-.05.1-.09.21-.14.31-.06.14-.13.28-.2.41-.11.22-.22.44-.34.65l-.35.64c-.03.06-.05.11-.07.17-.02.06-.03.12-.04.17-.02.09,0,.17.05.23.03.04.09.08.2.08.1,0,.18-.05.25-.12.03-.04.06-.08.07-.12,0-.02.02-.05.04-.09.02-.06.04-.13.07-.2.02-.06.04-.12.07-.17.14-.29.3-.58.48-.9.17-.3.32-.62.44-.93l.05-.1s.03,0,.03.02c.02.03.04.07.05.12,0,0,0,.03,0,.11,0,.08,0,.16-.01.24,0,.07-.02.15-.04.22-.04.19-.1.38-.18.57-.07.18-.16.37-.26.54-.07.12-.13.24-.18.36l-.16.37c-.1.28.06.4.12.42.04.03.09.04.14.04.04,0,.08,0,.12-.03.07-.04.13-.1.18-.19l.03-.06c.09-.19.17-.38.26-.57.09-.19.18-.39.26-.58.13-.31.22-.62.28-.93.05-.28.03-.56-.08-.84.02,0,.04,0,.07,0Z"/>
    <path class="d-logo" d="m17.77,41.15c.03-.2.03-.38-.03-.54-.05-.16-.13-.3-.22-.42-.09-.12-.21-.22-.33-.3-.12-.08-.25-.14-.38-.18-.25-.08-.44,0-.53.24-.08.21-.15.42-.2.62-.08.25-.15.49-.22.74-.06.24-.14.48-.23.72-.12.38-.25.76-.38,1.13l-.39,1.14c-.06.2,0,.37.18.47l1.03.44s.08.02.13.02c.01,0,.03,0,.04,0,.04,0,.08,0,.11,0,.1,0,.18-.05.21-.14.02-.05.04-.14-.02-.25-.04-.07-.1-.13-.17-.16-.05-.03-.11-.05-.17-.07-.11-.03-.21-.07-.32-.11-.1-.04-.21-.08-.32-.12-.02,0-.03-.01-.03-.01,0,0,0-.01,0-.05.03-.13.07-.26.11-.39.04-.13.08-.26.12-.4.02-.08.04-.09.04-.09,0,0,.04-.01.16.01.1.02.2.04.29.07.1.03.21.06.32.08.16.04.27.04.36,0,.08-.05.14-.14.19-.3l.04-.13h0c.02-.09.04-.18.07-.3.03-.11.07-.22.1-.32.03-.1.08-.22.13-.38.04-.16.09-.32.15-.48.06-.17.1-.34.12-.51Zm-.6-.31c0,.08-.02.16-.03.24,0,.07-.02.14-.04.2-.07.22-.15.44-.22.66-.07.22-.15.44-.22.66h0c-.02.1-.04.17-.07.22-.02.04-.04.06-.05.06,0,0-.02.01-.09,0-.06,0-.15-.02-.24-.04l-.16-.06.43-1.45c.04-.13.08-.26.12-.38.03-.12.07-.25.1-.36l.04-.13s.04-.07.05-.08c0,0,0,0,0,0,.01,0,.04,0,.08.03.2.1.29.24.29.44Z"/>
    <path class="d-logo" d="m20.25,40.66c-.12-.05-.2,0-.23.04-.03.03-.06.07-.1.13-.02.04-.03.08-.04.12l-.18,1c-.02.09-.04.11-.06.11h0l-.38-.07c-.12-.02-.24-.05-.37-.08-.04,0-.05,0-.03-.08l.07-.41c.02-.14.05-.28.06-.41l.03-.16c.01-.06.02-.12.02-.18,0-.17-.09-.28-.26-.3-.14,0-.25.07-.3.23,0,.03-.01.05-.02.08-.01.04-.02.07-.03.11l-.31,1.68s-.01.08-.01.12c0,.02,0,.05-.01.09l-.31,1.7-.09.37c-.03.12-.06.25-.08.38-.03.15-.02.27.03.35.04.06.1.1.18.12.08.02.29.01.37-.32.09-.39.17-.77.25-1.16.08-.39.14-.79.18-1.19,0-.05.01-.1.03-.15.02-.06.04-.12.05-.19,0-.04.01-.06.07-.06h0l.37.07c.12.02.24.05.39.08,0,0,0,.01,0,.05-.04.2-.07.4-.1.59-.03.19-.07.38-.11.58-.02.13-.05.27-.08.4-.03.14-.06.27-.08.4l-.08.28c-.03.1-.05.2-.07.29-.03.14-.04.29-.04.44,0,.05.03.1.07.14.03.04.07.06.09.07.04.03.08.04.13.04.03,0,.07,0,.1-.02.05-.03.1-.07.14-.13.03-.06.05-.11.06-.16l.11-.61c.04-.25.09-.49.14-.73.05-.24.09-.49.13-.73.04-.24.09-.48.15-.71.07-.24.11-.5.13-.75.01-.19.03-.37.07-.55.04-.19.07-.38.11-.57.05-.25-.12-.31-.17-.33Z"/>
    <path class="d-logo" d="m23.07,41.15s-.05-.05-.09-.08c-.06-.04-.12-.04-.15-.03-.1,0-.17.06-.21.16-.02.04-.04.08-.04.13v.07c-.01.11-.02.21-.03.31,0,.09-.01.19-.02.29l-.04.34c-.01.12-.02.24-.03.36,0,.11,0,.21-.02.3-.01.07-.05.13-.14.2-.03.03-.06.08-.06.11l-.02.03c-.12.2-.24.39-.37.58-.07.11-.15.22-.22.33,0,0,0,0,0,0,0-.12.02-.23.02-.34l.03-.22c.01-.08.02-.15.02-.22l.05-1.33c0-.13.01-.27.03-.41.01-.14.02-.29.03-.42,0-.12-.01-.23-.05-.35-.04-.09-.12-.14-.23-.15-.08,0-.17.03-.23.1l-.02.04s-.04.09-.06.14c-.03.06-.04.13-.05.18-.01.16-.02.32-.03.48l-.02.48c0,.31,0,.63-.02.94,0,.31-.03.63-.08.94-.03.23-.06.47-.09.71-.03.24-.06.47-.08.72,0,.05,0,.1.01.14,0,.04.02.09.04.13.02.06.05.12.08.16.04.05.1.11.24.1.15,0,.26-.11.29-.28.02-.1.05-.19.09-.27.04-.09.1-.17.15-.25.04-.07.08-.13.12-.2.03-.06.06-.11.1-.18l.26-.43c.04-.06.07-.12.11-.18-.01.18-.02.36-.03.54-.01.27-.03.55-.05.83,0,.04,0,.09-.01.13,0,.05-.01.11-.01.19.02.15.11.25.28.28h.02c.17,0,.28-.09.32-.26.01-.03.02-.07.01-.11,0-.02,0-.04,0-.05l.03-.75c0-.24.02-.49.04-.74.03-.4.06-.8.09-1.2.03-.39.05-.79.08-1.19.02-.17.03-.36.02-.54,0-.08-.01-.17-.05-.26l-.02-.04Z"/>
    <path class="d-logo" d="m25.61,45.49c-.06,0-.12,0-.18,0-.11.01-.22.02-.33.03-.11,0-.22.01-.33.02h-.04s0,0-.01-.05c-.02-.14-.04-.27-.06-.4-.02-.13-.03-.27-.05-.41-.01-.07,0-.1,0-.1,0,0,.03-.03.15-.05.1-.03.2-.04.3-.06.11-.01.21-.03.33-.05.16-.03.27-.07.32-.15.06-.08.07-.19.06-.35v-.13s-.01-.01-.01-.01c-.02-.08-.03-.17-.05-.29-.02-.12-.03-.23-.04-.34-.01-.11-.02-.24-.03-.4-.02-.17-.04-.33-.06-.5-.01-.18-.05-.35-.09-.52-.05-.19-.13-.36-.24-.49-.11-.13-.24-.23-.37-.3-.14-.07-.28-.12-.43-.14-.15-.02-.29-.03-.42-.02-.26.02-.4.18-.38.43,0,.23.03.44.06.65.03.26.06.51.09.76.04.24.06.49.08.75.04.4.08.8.11,1.19l.09,1.2c.02.21.15.34.35.36h1.12c.06-.02.11-.04.16-.06.03-.02.07-.04.1-.05.09-.04.14-.12.14-.21,0-.06-.02-.14-.12-.22-.07-.05-.15-.07-.22-.08Zm-1.33-4.09s.02-.01.05-.01c.01,0,.02,0,.03,0,.22.01.36.11.44.29l.07.23c.02.07.04.13.04.2.02.23.04.46.06.69.02.23.04.46.06.7h0c.02.1.02.18.02.23,0,.05-.01.07-.02.08,0,0-.02.02-.08.04-.06.02-.15.04-.24.06h-.17s-.19-1.5-.19-1.5c-.01-.14-.03-.27-.05-.39-.02-.12-.04-.25-.06-.37v-.14c-.02-.05,0-.08,0-.09Z"/>
    <path class="d-logo" d="m30.69,43.05l-.32-.75c-.11-.23-.25-.43-.42-.59-.15-.14-.34-.25-.57-.31.06-.1.11-.2.14-.31.03-.11.05-.22.05-.33.02-.14,0-.28-.03-.41-.03-.12-.07-.23-.12-.35-.04-.12-.11-.17-.17-.19-.07-.03-.15-.03-.24,0-.08.04-.13.11-.15.18-.01.06-.02.11,0,.18.01.07.03.13.06.18.02.04.04.08.05.11l.05.22s0,.06-.03.12c-.09.16-.2.32-.32.47-.04.05-.07.06-.07.06,0,0-.02-.02-.04-.07-.05-.13-.09-.25-.13-.38-.04-.13-.08-.25-.12-.39,0-.02-.01-.04-.02-.06,0-.03-.01-.06-.03-.11-.13-.24-.3-.18-.37-.14-.03.03-.06.06-.09.1-.02.04-.04.08-.04.1-.03.06-.02.12,0,.18.01.02.02.05.03.06.08.27.16.54.25.8.09.26.17.51.25.77.05.17.11.34.17.51.06.16.12.32.18.48l.6,1.69s.03.07.04.1c.02.05.05.08.1.12.07.04.13.07.2.07.03,0,.06,0,.09-.02.05-.02.09-.06.12-.11.02-.04.04-.08.05-.13,0-.06,0-.12-.03-.17-.01-.03-.02-.05-.04-.1-.09-.2-.18-.39-.26-.59-.08-.19-.14-.39-.18-.6-.04-.16-.09-.31-.15-.45-.06-.14-.11-.28-.16-.41-.02-.09-.05-.17-.08-.25-.03-.07-.05-.15-.07-.24,0-.03-.01-.05.05-.07.31-.08.54,0,.72.27.12.18.23.37.33.56s.18.4.24.62c.02.06.04.13.06.2.02.08.04.15.06.22.04.11.08.22.12.33.04.11.09.22.13.33,0,.03.02.05.02.08.01.06.04.11.08.14.1.11.2.12.25.12.1,0,.17-.04.2-.09.04-.05.06-.11.06-.18,0-.1,0-.2-.05-.32l-.48-1.26Z"/>
    <path class="d-logo" d="m37.22,43.18c-.12-.17-.22-.34-.32-.49-.1-.15-.2-.31-.3-.46-.1-.15-.2-.31-.3-.47-.1-.16-.22-.34-.35-.53-.05-.08-.1-.19-.17-.3-.07-.12-.14-.24-.21-.37-.16-.25-.31-.49-.48-.73-.16-.24-.32-.48-.47-.73-.14-.23-.29-.45-.43-.68-.15-.23-.29-.45-.43-.68-.07-.11-.15-.17-.25-.19-.09-.02-.18,0-.27.06-.15.09-.3.21-.43.33-.21.23-.35.48-.42.76-.06.29,0,.59.16.91.04.08.09.16.13.23.04.07.08.15.12.22.03.06.06.12.09.17.03.05.06.1.09.16.12.23.24.47.37.69.13.24.31.45.53.62.02.02.03.03.04.05l.04.06c.08.11.15.23.22.34.07.12.15.23.23.35.07.11.17.19.25.23.06.05.15.08.23.06.06,0,.15-.04.22-.14.07-.1.15-.17.24-.21l.33-.16c.11-.05.15-.07.15-.07.01.01.04.04.11.13.09.14.18.26.26.37.08.11.16.21.23.32.07.11.14.22.21.33.07.11.14.24.21.37.02.04.03.08.05.11.02.04.05.08.09.12.04.05.1.09.15.11.03.01.06.02.09.02.05,0,.11-.02.16-.05.12-.08.13-.17.13-.23,0-.06-.02-.11-.05-.18l-.28-.48Zm-1.71-1.51s-.04.03-.12.07c-.08.05-.16.1-.24.15-.08.04-.17.09-.26.13-.04.02-.07.03-.07.03,0,0-.02-.02-.05-.06-.43-.65-.86-1.32-1.28-1.99-.06-.08-.11-.17-.15-.25-.05-.1-.1-.19-.16-.28-.13-.19-.17-.38-.13-.58.04-.21.12-.38.27-.54.02-.02.03-.04.05-.05,0,0,.02-.01.02-.02.04.06.09.12.13.17.06.08.12.17.17.26l1.28,1.98.26.43c.08.14.16.28.24.42.04.08.05.12.05.12Z"/>
    <path class="d-logo" d="m38.35,38.66c-.17-.17-.32-.35-.45-.53-.03-.04-.05-.08-.08-.11l-.15-.14c-.17-.19-.35-.37-.52-.56-.2-.21-.4-.42-.6-.63-.13-.12-.26-.24-.4-.34-.15-.11-.33-.18-.53-.21-.3-.04-.56,0-.77.14-.22.14-.33.38-.33.73,0,.21.02.41.09.61.06.19.17.37.32.53.23.25.46.5.68.73.22.24.45.48.68.73.15.16.29.32.43.49.15.17.29.34.44.49.1.13.22.21.33.23.02,0,.04,0,.06,0,.1,0,.21-.04.32-.12.19-.12.37-.25.55-.4.18-.14.34-.31.49-.49.12-.15.17-.26.17-.35,0-.09-.07-.19-.21-.31-.17-.17-.35-.34-.52-.51Zm-2.17-.06c-.22-.22-.43-.45-.63-.67-.12-.14-.22-.31-.31-.49-.03-.05-.04-.1-.05-.15l-.02-.2c0-.09,0-.16.03-.21.03-.05.06-.08.1-.1.04-.02.09-.03.14-.03.06,0,.12.01.16.03.11.04.22.12.33.22.11.1.22.2.32.31l1.89,2.06c.09.1.13.15.14.18-.02.02-.05.07-.15.16-.15.14-.31.26-.46.38-.06.04-.08.05-.08.05,0,0-.03-.01-.08-.05-.09-.09-.17-.19-.25-.29-.08-.1-.17-.2-.26-.29-.03-.03-.06-.07-.08-.1,0,0-.01-.01-.02-.02h.01s-.73-.77-.73-.77Z"/>
    <path class="d-logo" d="m41.16,36.65c-.13-.09-.27-.18-.41-.27-.14-.09-.28-.19-.41-.28-.02-.02-.05-.03-.07-.04l-.05-.02c-.15-.04-.28.02-.33.15-.02.04-.03.09-.04.14,0,.08.03.13.05.16.04.05.08.1.13.13.04.03.08.06.12.09.05.04.11.08.17.13.06.04.12.08.17.11.04.03.04.05.02.1-.06.09-.12.18-.18.27-.07.09-.13.18-.19.27-.05.06-.09.07-.16.03-.08-.04-.15-.09-.23-.14-.07-.05-.14-.1-.2-.16-.3-.25-.59-.5-.88-.73-.29-.24-.58-.49-.87-.74-.11-.1-.2-.21-.26-.33-.07-.13-.12-.26-.15-.4-.02-.08-.02-.16-.01-.24,0-.09.03-.18.05-.27v-.02s.03,0,.04.02c.03.01.05.03.08.05.04.04.08.07.11.08.07.06.13.1.17.12.2.09.32,0,.39-.06.05-.06.14-.22-.05-.44l-.06-.05c-.11-.07-.22-.14-.32-.21-.11-.07-.21-.14-.33-.21-.2-.1-.38-.05-.48.13-.16.24-.24.51-.23.79.01.65.28,1.18.78,1.59.31.26.62.53.93.8.31.27.64.53.97.77.07.05.14.1.21.15.06.04.12.08.19.13.1.07.2.11.29.11.03,0,.05,0,.08,0,.1-.03.19-.1.29-.21l.36-.44.07-.1c.04-.05.09-.1.13-.16.07-.08.14-.17.2-.25.08-.1.12-.2.11-.29-.01-.09-.07-.17-.18-.24Z"/>
    <path class="d-logo" d="m42.69,34.51l-.11-.07c-.05-.02-.11-.05-.16-.08-.06-.04-.13-.07-.2-.08-.23-.09-.45-.21-.64-.36-.21-.16-.43-.3-.67-.42h0c-.06-.03-.14-.07-.22-.12-.09-.05-.17-.1-.26-.16-.07-.05-.16-.1-.27-.18-.2-.11-.39-.21-.58-.32-.19-.11-.38-.22-.57-.32l-.07-.04s-.03-.03-.01-.03l.21-.27s.06-.07.09-.12c.04-.05.06-.1.08-.16.04-.14,0-.26-.13-.37-.06-.04-.21-.12-.37.03-.04.03-.08.06-.1.09-.02.02-.04.04-.06.07-.18.2-.33.42-.47.64l-.41.65-.05.08s-.04.07-.05.11c-.04.12,0,.23.08.31.09.09.21.1.31.05.06-.02.12-.06.16-.1.04-.03.07-.07.11-.12.04-.05.07-.11.1-.16.02-.04.04-.08.08-.13.03-.05.05-.07.05-.08.01,0,.04,0,.08.03.13.07.26.13.39.19.12.06.23.12.34.21.19.13.38.25.58.35.19.1.37.21.55.34.31.2.62.39.94.56.31.17.62.35.9.53.05.04.1.07.14.07h0s.09.02.13.02c.13,0,.22-.06.27-.18.04-.07.09-.22-.07-.39-.04-.03-.07-.06-.11-.08Z"/>
    <path class="d-logo" d="m44.46,30.85s-.03,0-.05-.01l-.69-.28c-.23-.09-.46-.19-.68-.28-.37-.17-.74-.33-1.1-.48-.36-.16-.73-.32-1.09-.48-.16-.08-.33-.15-.5-.2-.07-.03-.16-.04-.27-.04h-.05s-.06.04-.1.07c-.06.04-.08.1-.08.14-.03.09,0,.18.08.25.03.04.06.06.11.08l.07.03c.1.05.19.09.29.13.09.04.18.08.27.12l.31.15c.11.05.22.1.33.15.1.03.2.07.28.12.06.04.11.1.15.2.02.04.05.08.11.12.14.18.29.36.42.55.08.11.16.21.24.32,0,0,0,0,0,0-.11-.05-.22-.09-.31-.13l-.19-.1c-.07-.04-.14-.07-.2-.09l-1.24-.49c-.12-.05-.25-.1-.38-.16-.13-.06-.26-.12-.39-.17-.11-.04-.22-.07-.34-.07-.1,0-.18.07-.21.16-.04.09-.03.17.01.25l.03.03s.07.07.11.1c.05.05.1.09.16.11.15.07.3.13.45.19l.45.18c.29.11.59.22.88.33.29.11.58.24.86.39.21.11.42.22.64.33.21.11.43.21.65.32.05.02.09.03.14.04.04,0,.09.01.13.01,0,0,.03,0,.04,0,.05,0,.1,0,.15-.02.06-.02.14-.07.17-.2.04-.15-.01-.28-.16-.37-.09-.05-.16-.11-.22-.18-.07-.07-.13-.15-.19-.23-.05-.06-.1-.12-.15-.18-.04-.04-.08-.1-.13-.16-.1-.13-.21-.26-.31-.39-.04-.05-.09-.11-.13-.16.17.07.33.14.49.21.25.1.5.21.77.33.04.02.08.03.12.06.05.02.1.05.17.07.15.03.27-.02.36-.17.07-.16.02-.31-.13-.4-.03-.02-.06-.04-.1-.05Z"/>
    <path class="d-logo" d="m45.33,27.11h-.06c-.21-.05-.41-.09-.62-.13-.21-.04-.42-.08-.63-.11-.33-.05-.66-.06-.97-.04-.28.02-.55.11-.8.28,0-.02-.01-.04-.02-.07-.03-.16-.1-.3-.2-.4-.09-.09-.21-.17-.34-.23-.14-.07-.29-.11-.44-.11-.13,0-.27,0-.41,0-.06,0-.15.02-.21.07-.07.05-.1.14-.09.23.01.11.06.17.1.19.05.03.11.04.15.05.09.02.17.03.25.04.07,0,.13.01.2.03.26.05.4.2.43.47,0,.02,0,.03,0,.04,0,0-.03,0-.06,0-.05,0-.09-.01-.14-.03-.05-.02-.11-.03-.17-.04-.35-.08-.43.1-.46.21,0,.09.03.25.28.32.07.04.15.06.23.07.06,0,.12.02.17.04,0,0,.01.01.02.02,0,0,0,0,0,0-.06.05-.14.07-.23.05-.09-.02-.18-.04-.27-.07-.09-.03-.18-.05-.27-.07-.14-.03-.28-.04-.38-.03-.1,0-.17.03-.23.08-.07.06-.09.14-.08.21,0,.1.04.17.1.21.04.03.1.06.16.07.09.03.18.05.27.07.09.02.17.04.25.07.22.07.43.08.62.06.19-.03.37-.12.54-.29.17.23.38.42.61.56.25.15.52.25.81.29l.67.1c.21.03.43.08.66.16.06.01.11.02.15.02h.02c.15-.02.24-.11.26-.27,0-.04-.02-.08-.03-.12-.02-.05-.06-.1-.08-.11-.08-.08-.19-.12-.3-.12-.2-.04-.4-.07-.59-.1-.19-.03-.39-.06-.59-.09-.17-.02-.33-.08-.46-.16-.15-.08-.29-.18-.43-.3-.01,0-.03-.02-.04-.03.11.02.22.04.33.06.15.03.3.06.45.09.24.06.48.11.72.17l.71.18c.06.01.12.02.18.03.06,0,.12,0,.18,0,.09,0,.16-.04.21-.1.03-.04.06-.1.03-.21-.03-.09-.09-.17-.18-.21-.04-.02-.09-.03-.13-.04-.02,0-.05,0-.1-.02-.07,0-.14-.01-.21-.01-.07,0-.13-.01-.19-.02-.34-.08-.67-.16-.99-.25-.34-.1-.68-.17-1.01-.21l-.11-.03s0-.03,0-.03c.02-.03.06-.05.1-.08,0,0,.03-.02.11-.04l.24-.05c.08-.01.15-.02.23-.02.2,0,.4,0,.59.04.2.03.39.07.59.12.13.04.25.07.39.09.12.02.25.04.39.06.29.04.37-.15.38-.22.04-.09.02-.18-.05-.26-.05-.06-.13-.1-.23-.12Z"/>
    <path class="d-logo" d="m46.09,24.26s-.03-.08-.04-.11c-.02-.1-.09-.16-.18-.17-.09-.02-.16,0-.24.08-.06.06-.1.13-.11.2-.01.06-.02.12-.03.18,0,.11-.02.22-.03.33-.01.11-.03.22-.04.33v.04s-.02,0-.06,0c-.14,0-.27,0-.41-.01-.13,0-.27-.01-.42-.02h0c-.08,0-.1-.02-.1-.02s-.02-.03-.02-.15c0-.1-.01-.2,0-.3,0-.11,0-.22,0-.33,0-.17-.03-.28-.09-.34-.06-.07-.17-.11-.33-.12h-.14c-.08,0-.18,0-.3-.01-.12,0-.23-.01-.34-.02s-.23-.02-.4-.04c-.17,0-.33-.01-.5-.03-.18-.02-.36-.02-.53,0-.2.01-.37.06-.52.15-.14.09-.26.19-.36.32-.09.12-.16.25-.21.4-.05.14-.08.28-.09.41-.02.26.11.42.36.45.22.03.44.04.65.05.26.02.52.03.77.04.25,0,.51.02.76.05.4.03.8.06,1.19.1l1.2.11s.03,0,.04,0c.19,0,.32-.1.37-.29l.18-1.1c0-.05,0-.11-.02-.17Zm-4.1.1s.04,0,.07,0c.23.02.46.04.69.06.23.02.46.04.7.06h0c.1,0,.17,0,.22.01.04,0,.06.02.07.03,0,0,.02.02.03.08.01.07.02.15.02.25l-.02.17-1.51-.07c-.14,0-.27-.02-.4-.02s-.25,0-.38,0h-.14c-.05-.02-.08-.03-.09-.04,0-.01,0-.04,0-.09.05-.22.17-.34.36-.38l.24-.03s.09,0,.13,0Z"/>
    <path class="d-logo" d="m45.08,20.94c-.25.02-.5.03-.74.04-.25.01-.49.03-.74.05-.25.02-.49.03-.72.03-.26-.01-.51.01-.76.05-.18.03-.37.06-.57.06-.19,0-.37.02-.56.03-.25.02-.27.2-.28.24-.01.13.05.19.09.22.04.02.08.04.15.06.04,0,.08.01.13,0l1.02-.06c.09,0,.12.01.12.03l.02.38c0,.12.01.25.01.38,0,.04,0,.05-.07.05l-.41.03c-.14,0-.28.02-.41.04h-.16c-.06.01-.12.02-.18.04-.17.04-.25.16-.23.33.02.13.12.22.3.24.01,0,.03,0,.04,0,.04,0,.06,0,.09,0,.02,0,.04,0,.06,0l1.71-.11s.09,0,.12-.02c.02,0,.05,0,.09,0l1.72-.11h.38c.13,0,.26,0,.38-.01.16,0,.26-.04.33-.11.05-.05.07-.12.07-.2,0-.08-.05-.28-.39-.28h-.01c-.4,0-.79.02-1.18.04-.39.02-.79.05-1.2.11-.05.01-.1.02-.15,0-.06,0-.13,0-.2,0-.03,0-.06,0-.07-.05l-.02-.38c0-.12-.01-.25-.01-.4,0,0,.01,0,.05-.01.2-.01.4-.03.59-.04.19-.02.39-.03.59-.03.14,0,.27-.02.41-.02.14,0,.28-.01.41-.02h.29c.1,0,.2,0,.3,0,.14,0,.29-.03.43-.07.05-.02.09-.05.12-.11.03-.04.04-.08.05-.11.03-.08.01-.16-.04-.23-.04-.05-.09-.08-.16-.1-.06-.02-.12-.02-.17-.02l-.62.04Z"/>
    <path class="d-logo" d="m43.67,17.92c-.4.07-.79.14-1.18.21-.39.07-.78.14-1.17.21-.18.02-.36.06-.53.11-.08.02-.16.05-.25.11l-.04.04s-.04.07-.05.11c-.02.07-.01.12,0,.16.03.09.1.15.21.16.04.01.09.02.14,0h.06c.11-.03.21-.05.31-.07.09-.02.19-.04.29-.05.1-.01.2-.03.29-.04h.05c.12-.02.23-.04.36-.07.1-.03.2-.05.3-.06.08,0,.14.02.23.08.04.03.09.04.13.04h.03c.22.08.44.15.65.23.12.04.25.09.38.13,0,0,0,0,0,0-.12.02-.23.04-.33.06l-.22.02c-.08,0-.15.02-.22.03l-1.3.28c-.13.03-.27.05-.41.07-.14.02-.28.05-.42.08-.12.03-.22.07-.32.13-.08.06-.11.15-.09.26.02.09.07.16.15.2h.04s.1.02.14.03c.03,0,.07,0,.1,0s.06,0,.09-.01c.16-.03.32-.05.48-.09l.47-.1c.31-.07.61-.14.92-.21.29-.07.61-.12.93-.16.23-.02.47-.05.71-.08.24-.03.47-.06.71-.09.05-.01.1-.03.13-.04.04-.02.08-.04.12-.07.06-.03.1-.07.14-.12.03-.04.08-.13.04-.26-.04-.15-.16-.23-.34-.22-.1,0-.19,0-.28-.02-.09-.02-.19-.05-.28-.09-.08-.03-.15-.05-.22-.07-.06-.01-.12-.03-.2-.06l-.48-.15c-.07-.02-.13-.04-.2-.06.18-.03.35-.07.53-.1.26-.05.54-.1.82-.16.04,0,.09-.02.13-.02.05,0,.11-.02.18-.03.14-.05.21-.17.21-.34-.04-.17-.15-.26-.31-.26h-.02s-.07,0-.12.02c-.01,0-.03.01-.05.01l-.73.15c-.24.05-.48.1-.73.14Z"/>
    <path class="d-logo" d="m41.64,14.12l-.62.28c-.16.07-.33.15-.49.22-.22.09-.43.21-.61.35-.18.15-.32.35-.42.6-.07.17-.1.31-.08.43.02.13.1.25.23.38.12.1.25.17.38.21.17.06.34.08.49.07.15-.01.31-.04.47-.09.03-.01.07-.02.11-.03.02,0,.03,0,.03,0,.04.03.07.06.08.11.02.05.03.1.03.17-.04.02-.08.04-.12.06-.13.07-.26.14-.39.21-.13.07-.26.14-.38.2-.07.03-.13.08-.2.15-.05.05-.08.11-.1.17-.02.06-.03.15.05.26.03.05.1.12.23.12.05,0,.11-.01.18-.04.06-.03.11-.05.14-.08.13-.09.27-.18.41-.25.15-.07.31-.14.47-.21.09-.04.17-.07.25-.12.07-.04.15-.07.23-.11.13-.06.25-.12.36-.18.1-.06.21-.09.34-.12.35-.09.68-.22.99-.38.3-.16.62-.3.94-.41l.05-.02c.16-.1.21-.26.13-.45-.1-.17-.27-.21-.45-.12l-.49.23c-.16.07-.32.15-.48.24-.07.03-.14.06-.2.09-.06.03-.11.04-.18.05l-.47.14c-.17.05-.33.13-.51.24-.02.02-.04.03-.06.04-.04.01-.07.02-.12.03,0,0-.02,0-.04-.02-.01-.01-.05-.05-.04-.16.01-.11.06-.14.08-.15l.52-.25c.2-.1.4-.19.59-.27.19-.08.42-.18.68-.3.09-.04.19-.07.29-.11.11-.04.21-.08.3-.12.13-.05.21-.11.25-.19.04-.08.04-.17,0-.3-.02-.11-.06-.23-.13-.35-.05-.09-.09-.18-.13-.27-.04-.08-.05-.16-.06-.26,0-.13-.05-.23-.13-.31-.07-.07-.16-.12-.26-.16-.21-.07-.42-.04-.62.07-.04.03-.09.06-.15.09l-.21.08c-.2.09-.4.18-.6.26-.2.08-.41.17-.6.26Zm-.98,1.18c.15-.08.3-.15.46-.22.16-.07.32-.14.49-.22.07-.04.15-.08.24-.12.09-.04.19-.08.28-.12.09-.04.19-.08.31-.11l.75-.36.28-.12s.08-.03.1-.04c.01.02.03.05.04.09l.18.42c.03.07.04.12.06.18,0,0,0,.01-.03.02-.04.02-.09.04-.16.07-.12.05-.25.1-.38.14-.13.04-.26.1-.39.16l-.64.29c-.21.1-.43.2-.64.3-.16.08-.32.14-.48.2-.15.06-.31.09-.48.11-.05,0-.09,0-.13,0-.03,0-.06,0-.09,0-.06,0-.12-.01-.17-.04-.04-.02-.07-.06-.1-.11-.02-.04-.02-.08-.01-.12.01-.05.05-.11.11-.16.12-.12.26-.21.41-.28Z"/>
    <path class="d-logo" d="m22.97.61c7.85,0,15.01,4,19.13,10.7.09.14.28.19.42.1.14-.09.19-.28.1-.42C38.38,4.11,31.04,0,22.97,0,10.93,0,1.06,9.03,0,21.01c-.01.17.11.32.28.33,0,0,.02,0,.03,0,.16,0,.29-.12.3-.28C1.62,9.59,11.44.61,22.97.61Z"/>
    <path class="d-logo" d="m22.97,4.25c-.56,0-1.12.03-1.67.07C11.69,5.17,4.16,13.4,4.16,23.06c0,2.95.67,5.78,1.98,8.4.05.11.16.17.27.17.05,0,.09-.01.14-.03.15-.08.21-.26.14-.41-1.27-2.54-1.91-5.27-1.91-8.13,0-9.35,7.28-17.31,16.58-18.13.53-.05,1.08-.07,1.62-.07.17,0,.31-.14.31-.31s-.14-.31-.31-.31Z"/>
  </g>
</svg>